<svg width="3297" height="1386" xmlns="http://www.w3.org/2000/svg" xmlns:xlink="http://www.w3.org/1999/xlink" overflow="hidden"><defs><clipPath id="clip0"><rect x="357" y="550" width="3297" height="1386"/></clipPath></defs><g clip-path="url(#clip0)" transform="translate(-357 -550)"><path d="M365 564C463.77 552.371 538.262 553.223 602.998 564 667.735 574.778 764.38 574.71 825.427 564 886.474 553.29 976.69 558.77 1016.72 564 1056.74 569.23 1182.66 573.002 1270.28 564 1357.91 554.998 1407.09 552.161 1523.85 564 1640.62 575.839 1644 569.354 1699.57 564 1755.14 558.646 1816.73 564.456 1922 564 1922.94 634.549 1916.03 702.061 1922 750.14 1927.97 798.219 1928.39 854.783 1922 949.9 1915.61 1045.02 1928.79 1080.34 1922 1149.66 1915.21 1218.98 1924.79 1291.95 1922 1376.66 1919.21 1461.37 1921.49 1528.64 1922 1590.04 1922.51 1651.44 1910.85 1824.34 1922 1926 1879.02 1919.25 1801.72 1924.6 1746.28 1926 1690.84 1927.4 1600.99 1919.42 1523.85 1926 1446.71 1932.58 1350.46 1929.3 1285.85 1926 1221.25 1922.7 1107.27 1918.61 1047.86 1926 988.439 1933.39 923.482 1915.09 825.427 1926 727.372 1936.91 711.618 1925.36 602.998 1926 494.379 1926.64 478.1 1928.97 365 1926 374.751 1860.79 355.561 1793.79 365 1726.24 374.439 1658.69 366.334 1614.71 365 1540.1 363.666 1465.5 373.018 1390.71 365 1313.1 356.983 1235.49 371.734 1193.63 365 1126.96 358.267 1060.29 370.498 984.524 365 899.96 359.502 815.397 376.981 718.458 365 564Z" stroke="#7F7F7F" stroke-width="10.3125" stroke-miterlimit="8" fill="none" fill-rule="evenodd"/><path d="M2087 564C2185.77 552.371 2260.26 553.223 2325 564 2389.73 574.778 2486.38 574.71 2547.43 564 2608.47 553.29 2698.69 558.77 2738.72 564 2778.74 569.23 2904.66 573.002 2992.28 564 3079.91 554.998 3129.09 552.161 3245.85 564 3362.62 575.839 3366 569.354 3421.57 564 3477.14 558.646 3538.73 564.456 3644 564 3644.94 634.549 3638.03 702.061 3644 750.14 3649.97 798.219 3650.39 854.783 3644 949.9 3637.61 1045.02 3650.79 1080.34 3644 1149.66 3637.21 1218.98 3646.79 1291.95 3644 1376.66 3641.21 1461.37 3643.49 1528.64 3644 1590.04 3644.51 1651.44 3632.85 1824.34 3644 1926 3601.02 1919.25 3523.72 1924.6 3468.28 1926 3412.84 1927.4 3322.99 1919.42 3245.85 1926 3168.71 1932.58 3072.46 1929.3 3007.85 1926 2943.25 1922.7 2829.27 1918.61 2769.86 1926 2710.44 1933.39 2645.48 1915.09 2547.43 1926 2449.37 1936.91 2433.62 1925.36 2325 1926 2216.38 1926.64 2200.1 1928.97 2087 1926 2096.75 1860.79 2077.56 1793.79 2087 1726.24 2096.44 1658.69 2088.33 1614.71 2087 1540.1 2085.67 1465.5 2095.02 1390.71 2087 1313.1 2078.98 1235.49 2093.73 1193.63 2087 1126.96 2080.27 1060.29 2092.5 984.524 2087 899.96 2081.5 815.397 2098.98 718.458 2087 564Z" stroke="#7F7F7F" stroke-width="10.3125" stroke-miterlimit="8" fill="none" fill-rule="evenodd"/><path d="M429 961C532.593 966.961 577.557 958.208 675.74 961 773.922 963.792 795.961 955.766 912.99 961 1030.02 966.235 1045.93 968.134 1150.24 961 1254.55 953.867 1290.9 964.754 1378 961 1381.39 1037.67 1368.73 1062.5 1378 1157.02 1387.27 1251.54 1380.36 1287.62 1378 1370.86 1375.64 1454.1 1385.66 1496.91 1378 1575.79 1370.34 1654.67 1380.33 1728.35 1378 1852 1283.52 1853.88 1267.77 1850.24 1169.22 1852 1070.67 1853.76 1052.37 1854.52 960.44 1852 868.51 1849.48 771.376 1860.7 704.21 1852 637.044 1843.3 514.684 1849.21 429 1852 424.251 1749.28 417.361 1712.67 429 1611.43 440.639 1510.19 425.711 1466.72 429 1370.86 432.289 1275 418.732 1257.16 429 1157.02 439.268 1056.88 434.554 1020.05 429 961Z" stroke="#ED7D31" stroke-width="10.3125" stroke-miterlimit="8" stroke-dasharray="30.9375 10.3125" fill="none" fill-rule="evenodd"/><text fill="#7F7F7F" font-family="SimHei,SimHei_MSFontService,sans-serif" font-weight="400" font-size="110" transform="matrix(1 0 0 1 782.532 1419)">文字</text><path d="M1442 961C1536.46 951.539 1608.4 966.088 1657.73 961 1707.06 955.912 1810.31 969.389 1865 961 1864.21 1024.46 1859.52 1097 1865 1183.75 1870.48 1270.5 1873.51 1307.17 1865 1388.68 1856.49 1470.19 1855.73 1490.18 1865 1584.7 1874.27 1679.22 1854.25 1726.2 1865 1852 1773.82 1848.34 1730.98 1842.16 1661.96 1852 1592.94 1861.84 1512.62 1858.92 1442 1852 1448.24 1761.39 1431.73 1718.84 1442 1611.43 1452.27 1504.02 1440.84 1478.31 1442 1397.59 1443.16 1316.87 1453.61 1239.1 1442 1157.02 1430.39 1074.94 1440.75 1007.88 1442 961Z" stroke="#548235" stroke-width="10.3125" stroke-miterlimit="8" stroke-dasharray="30.9375 10.3125" fill="none" fill-rule="evenodd"/><text fill="#7F7F7F" font-family="SimHei,SimHei_MSFontService,sans-serif" font-weight="400" font-size="110" transform="matrix(1 0 0 1 1532.24 1430)">图片</text><path d="M2144 615C2248.03 620.204 2298.37 603.721 2397.52 615 2496.67 626.279 2581.63 622.073 2636.68 615 2691.73 607.926 2813.29 615.03 2875.85 615 2938.41 614.97 3039.15 623.804 3143.72 615 3248.28 606.196 3277.95 617.683 3339.83 615 3401.72 612.317 3518.59 605.563 3579 615 3575.81 668.764 3572.15 706.767 3579 765.72 3585.85 824.673 3577.6 884.639 3579 929 3490.17 937.359 3427.78 928.027 3382.88 929 3337.99 929.974 3270.27 933.718 3186.77 929 3103.26 924.283 3002.84 940.241 2918.9 929 2834.96 917.759 2789.42 933.216 2722.78 929 2656.15 924.785 2519.7 920.861 2454.92 929 2390.14 937.139 2230.03 929.718 2144 929 2147.26 874.639 2140.01 812.168 2144 781.42 2147.99 750.672 2147.5 673.804 2144 615Z" stroke="#ED7D31" stroke-width="10.3125" stroke-miterlimit="8" stroke-dasharray="30.9375 10.3125" fill="none" fill-rule="evenodd"/><path d="M2148 1536C2252.03 1541.2 2302.37 1524.72 2401.52 1536 2500.67 1547.28 2585.63 1543.07 2640.68 1536 2695.73 1528.93 2817.29 1536.03 2879.85 1536 2942.41 1535.97 3043.15 1544.8 3147.72 1536 3252.28 1527.2 3281.95 1538.68 3343.83 1536 3405.72 1533.32 3522.59 1526.56 3583 1536 3579.81 1589.76 3576.15 1627.77 3583 1686.72 3589.85 1745.67 3581.6 1805.64 3583 1850 3494.17 1858.36 3431.78 1849.03 3386.88 1850 3341.99 1850.97 3274.27 1854.72 3190.77 1850 3107.26 1845.28 3006.84 1861.24 2922.9 1850 2838.96 1838.76 2793.42 1854.22 2726.78 1850 2660.15 1845.78 2523.7 1841.86 2458.92 1850 2394.14 1858.14 2234.03 1850.72 2148 1850 2151.26 1795.64 2144.01 1733.17 2148 1702.42 2151.99 1671.67 2151.5 1594.8 2148 1536Z" stroke="#ED7D31" stroke-width="10.3125" stroke-miterlimit="8" stroke-dasharray="30.9375 10.3125" fill="none" fill-rule="evenodd"/><path d="M2144 992C2248.03 997.205 2298.37 980.718 2397.52 992 2496.67 1003.28 2581.63 999.076 2636.68 992 2691.73 984.925 2813.29 992.03 2875.85 992 2938.41 991.97 3039.15 1000.81 3143.72 992 3248.28 983.194 3277.95 994.684 3339.83 992 3401.72 989.316 3518.59 982.561 3579 992 3569.79 1095.54 3588.28 1143.32 3579 1222.88 3569.72 1302.44 3590 1363.88 3579 1473 3490.17 1481.36 3427.78 1472.03 3382.88 1473 3337.99 1473.97 3270.27 1477.72 3186.77 1473 3103.26 1468.28 3002.84 1484.24 2918.9 1473 2834.96 1461.76 2789.42 1477.22 2722.78 1473 2656.15 1468.78 2519.7 1464.86 2454.92 1473 2390.14 1481.14 2230.03 1473.72 2144 1473 2152.75 1371.37 2147.67 1317.35 2144 1246.93 2140.33 1176.51 2132.4 1044.55 2144 992Z" stroke="#548235" stroke-width="10.3125" stroke-miterlimit="8" stroke-dasharray="30.9375 10.3125" fill="none" fill-rule="evenodd"/><text fill="#7F7F7F" font-family="SimHei,SimHei_MSFontService,sans-serif" font-weight="400" font-size="110" transform="matrix(1 0 0 1 2750.21 813)">文字<tspan font-size="110" x="3.73731" y="922">文字</tspan><tspan font-size="110" x="3.73731" y="461">图片</tspan></text><path d="M429 603C533.104 608.204 583.475 591.721 682.693 603 781.911 614.279 866.937 610.073 922.027 603 977.116 595.926 1098.76 603.03 1161.36 603 1223.96 602.97 1324.77 611.804 1429.41 603 1534.05 594.196 1563.74 605.683 1625.67 603 1687.6 600.317 1804.55 593.563 1865 603 1861.81 656.764 1858.15 694.767 1865 753.72 1871.85 812.673 1863.6 872.639 1865 917 1776.1 925.359 1713.68 916.027 1668.75 917 1623.82 917.974 1556.05 921.718 1472.49 917 1388.93 912.283 1288.44 928.241 1204.44 917 1120.44 905.759 1074.87 921.216 1008.19 917 941.505 912.785 804.959 908.861 740.133 917 675.307 925.139 515.092 917.718 429 917 432.264 862.639 425.01 800.168 429 769.42 432.99 738.672 432.501 661.804 429 603Z" stroke="#ED7D31" stroke-width="10.3125" stroke-miterlimit="8" stroke-dasharray="30.9375 10.3125" fill="none" fill-rule="evenodd"/><text fill="#7F7F7F" font-family="SimHei,SimHei_MSFontService,sans-serif" font-weight="400" font-size="110" transform="matrix(1 0 0 1 1035.59 801)">文字</text></g></svg>