<?xml version="1.0" standalone="no"?><!DOCTYPE svg PUBLIC "-//W3C//DTD SVG 1.1//EN" "http://www.w3.org/Graphics/SVG/1.1/DTD/svg11.dtd"><svg t="1713080485764" class="icon" viewBox="0 0 1337 1024" version="1.1" xmlns="http://www.w3.org/2000/svg" p-id="24096" xmlns:xlink="http://www.w3.org/1999/xlink" width="261.1328125" height="200"><path d="M121.267593 0a414.201278 414.201278 0 0 0 40.666835 60.728513h-0.130644a125.810082 125.810082 0 0 0-19.267363-1.463211h-0.585285a148.534283 148.534283 0 0 0-45.138776 7.565588l1.045152-0.292642c27.543655 23.11352 50.820479 39.956132 71.386443 52.955201 50.446838 16.384052 106.537493 43.593259 154.350549 74.020224 23.907835 15.213483 45.264194 30.259742 62.024501 43.46784 16.760307 13.164986 31.597535 26.247667 34.606264 31.97379 3.00481 5.684316-0.041806 7.732813-4.555553 3.343177-4.513747-4.346523-16.843919-17.767571-33.437001-30.80322-17.636927-13.792077-37.741718-28.003521-58.514099-41.293925l-3.175954-1.881273c-43.175198-27.292818-110.465955-53.49868-151.300014-78.778275-31.764759-10.156257-65.869351-11.535857-105.994014 7.523782 29.298202 18.389436 53.874934 31.639341 75.399824 41.586569 61.522828 8.651239 125.888468 38.745063 179.721596 72.891461a803.094219 803.094219 0 0 1 68.00146 48.357841c8.818464 6.980304 16.175022 13.206792 21.73392 18.264018 5.475286 5.01542 9.821809 8.651239 11.034184 11.703082 1.672242 4.137493-1.128763 5.809735-4.722777 3.175953-1.79766-1.212375-4.722777-5.684316-10.156257-10.65793a414.606274 414.606274 0 0 0-20.605157-17.506283l-0.836121-0.668897a781.788811 781.788811 0 0 0-67.412256-47.81567c-49.819747-31.263087-124.425256-56.381991-176.92059-77.781462-33.478807-6.140264-68.168684-3.343178-106.119432 21.686888a706.766548 706.766548 0 0 0 65.869351 25.867494c-31.555729 1.128763-62.860622 10.992378-93.410393 39.956132 26.582116 6.562243 49.319381 11.034184 69.339253 13.917495-24.533619 5.01542-48.48326 16.72242-71.84631 40.123357 18.056294 3.886656 34.313622 6.854886 49.193963 9.0693-18.350243 8.86027-35.654028 22.611847-51.494602 43.635064 20.772381 1.672242 39.163124 2.341139 55.713094 2.382945-20.061678 9.236524-38.785563 23.868642-55.504063 47.35319a718.018908 718.018908 0 0 0 75.941996 0.130644c-23.530274 9.56836-45.264194 25.866187-63.739856 53.995127 4.388329 0.130644 9.570973 0.167224 14.795423 0.167224a659.268343 659.268343 0 0 0 79.119256-4.764583l-3.135454 0.292642-0.459867 0.130644c55.169615-4.049961 128.186494 7.063916 165.21751 47.270884a2.897682 2.897682 0 1 1-4.049961 4.137493c-36.111282-32.308238-83.256748-46.100315-161.163629-51.366571-30.301548 8.36121-58.346875 24.909874-81.417283 59.893699a718.493145 718.493145 0 0 0 76.067415-2.632475c-26.207168 14.203605-48.52376 35.812108-63.362295 72.673285A688.322241 688.322241 0 0 0 102.965688 576.194496c-20.228902 14.753616-37.281851 35.442385-48.650484 66.538248 18.056294-4.012074 34.062786-8.149567 48.48326-12.330172a139.211533 139.211533 0 0 0-28.421582 60.185035l-0.167224 0.914507c19.560006-7.23114 36.487537-14.251944 51.617407-21.190442h0.130644c15.756962-12.831844 39.585104-25.453352 71.84631-34.64807 28.212552-8.065955 60.310453-15.840574 92.075212-16.760307 2.00669-0.083612 4.388329-0.130644 6.81308-0.130643s4.764583 0.041806 7.147528 0.130643h-0.334449c5.558898 0.167224 3.510402 5.809735 0.334449 5.726123-40.583223-0.459867-72.557013 7.356558-104.363578 16.425858a534.021337 534.021337 0 0 0-76.661844 30.76664l3.175953-1.421406a138.874472 138.874472 0 0 0-30.59419 65.534903l-0.130644 0.836121a704.151057 704.151057 0 0 0 69.004805-31.639341c-17.345591 18.551435-30.259742 42.339077-35.404498 75.607547a650.666748 650.666748 0 0 0 83.220168-43.091585l-2.841505 1.630435c-24.073753 20.187096-42.589913 47.020048-48.984933 88.481199a600.523004 600.523004 0 0 0 100.560534-54.669249L258.693224 774.430946c-10.239869 20.730575-15.677269 44.971552-13.08268 75.2326 42.459269-32.60088 69.381059-58.848547 89.400931-82.086179-0.334448 3.63582-0.501673 7.856925-0.501673 12.121142a148.061352 148.061352 0 0 0 4.973614 38.24339l-0.250837-1.045151c25.035292-43.007974 49.986971-60.895737 75.399824-75.692466-31.388505 20.605157-25.867493 37.40727-25.867493 56.507408 38.076166-40.123356 91.156785-82.629658 107.372307-109.295385-21.73392 32.60088-30.468772 63.529519-36.2367 90.780531-111.134852 58.806741-178.885475 74.103836-254.660247 97.63411 29.423621 10.825154 61.021156 21.357666 47.981587 36.319006l-34.821826 34.735602c22.235593-6.896692 44.846134-16.72242 64.538089-3.21776-1.881272 18.223518-24.952986 27.460043-44.595297 38.076167 34.564458-12.497396 42.130047-9.654585 51.282959-6.687662 4.471941 21.775726-11.326827 33.562419-21.566696 47.939782 87.227017-66.329218 200.953843-118.573716 281.15875-140.47486 112.680369-37.950748 258.130149-77.447014 297.626415-173.702831 13.081374-52.704365 26.623922-106.161238 39.412653-158.36393-6.185989-1.959659-13.666659-3.510402-19.518199-7.398365a36.747518 36.747518 0 0 1-12.957263-16.425858l-0.083612-0.250836c-14.042913 3.677626-24.575425 1.714048-31.223894-4.890002-6.562243-6.520437-9.361942-16.384052-11.326826-27.292818-11.36602 2.341139-20.270708 0.961539-26.205861-4.221105-6.353213-5.684316-9.48736-14.501474-11.034185-24.700843l-0.334448-2.299333 2.048496-0.794315a47.265659 47.265659 0 0 0 16.72242-10.86696 14.182702 14.182702 0 0 0 4.180605-10.072645 17.017675 17.017675 0 0 0-0.20903-2.550169v0.083612l-0.334448-2.048496 1.672242-0.877928c9.0693-5.182644 19.267363-9.361942 23.948334-15.546624a15.21087 15.21087 0 0 0 3.00481-9.152912 17.691798 17.691798 0 0 0-0.20903-2.632475v0.083612a48.61913 48.61913 0 0 0-8.693046-20.187096l0.083612 0.130644-1.546824-2.220947 2.220947-1.505018c6.562243-5.01542 13.708465-9.821809 17.261979-14.335555a9.742116 9.742116 0 0 0 2.507057-6.140264c0-1.839466-0.836121-3.970268-3.63582-6.645856l-5.391674-5.225756 7.523782 0.334449c11.828499 0.501673 22.068369-0.334448 30.048099-2.966924a28.036182 28.036182 0 0 0 16.425858-12.371977l0.083612-0.130644a25.936735 25.936735 0 0 1-0.292642-3.761238v-0.376255a25.382805 25.382805 0 0 1 25.36974-25.36974 25.382805 25.382805 0 0 1 25.36974 25.36974 24.69823 24.69823 0 0 1-1.295987 7.523783l0.041806-0.167224c10.239869 0.877927 20.019872 0.459867 29.21459-3.552208l2.048496-0.668897c13.164986-4.680971 18.551435 2.508363 40.123357-25.57877-94.165515-122.085424-231.715258-35.233355-277.397512 90.5715-11.703081 32.138401-78.283135 32.138401-97.634111-0.130644C550.466792 237.816328 318.58431 64.114803 121.267593 0.083612z m40.792253 60.770319c14.042913-0.501673 62.98604 25.244322 73.016879 28.963754 35.651416 20.14529 64.156609 37.950748 91.907988 56.841857l-4.597359-2.925117c28.128939 18.723885 53.540486 36.947403 71.010189 50.279614 8.693046 6.687662 15.422513 12.162948 19.560006 15.88238a29.471959 29.471959 0 0 1 4.47194 4.555553 3.575724 3.575724 0 0 1 0.543479 1.212375v0.041806a3.591401 3.591401 0 0 1 0.167224 1.003345 2.978681 2.978681 0 0 1-0.376254 1.505018 2.918585 2.918585 0 0 1-2.382945 1.672242 4.141412 4.141412 0 0 1-0.752509 0.083612 5.127773 5.127773 0 0 1-0.794315-0.083612h0.041806c-3.175953 0.041806-11.243215-9.0693-27.627267-23.11352a1280.832855 1280.832855 0 0 0-147.327132-98.381393l-6.357133-3.396742c-28.08844-15.583205-53.284424-30.085985-70.417065-34.098059zM98.446716 216.083714c45.264194 0 105.325117 20.354321 163.337543 51.282959 58.136538 31.054056 113.850938 67.917847 140.767502 99.139128 3.677626 4.221105-1.045151 6.854886-4.311248 3.803044-28.963754-27.627267-81.459088-67.207145-139.220679-97.968558-35.484191-18.723885-119.702479-56.005736-160.62015-56.214767z m-23.864723 53.91674c62.186499 0.836121 130.862081 24.868068 191.262679 55.504064a653.256111 653.256111 0 0 1 77.781462 46.351151c20.730575 14.670004 37.494801 29.133591 40.917671 36.612955 3.468596 7.398364-1.045151 7.23114-4.806389 3.00481a244.61765 244.61765 0 0 0-38.577839-34.43904l-0.710703-0.501673a617.815032 617.815032 0 0 0-73.525084-44.21643l-3.594014-1.672242c-53.665904-26.874758-127.268068-51.617407-188.749089-60.644901z m9.027494 45.389612a84.210449 84.210449 0 0 1 11.201409 0.334449c45.807673 3.970268 95.795951 20.396127 141.143756 41.675406 60.561289 28.379776 113.391072 64.491058 135.626665 92.827721 1.959659 2.508363-0.627091 7.398364-4.346523 3.552208-23.864722-24.533619-73.560358-63.069652-133.578168-91.240398-50.864898-23.406162-127.226261-48.48326-181.856317-43.426034 10.490706-1.337794 20.772381-3.384984 31.764759-3.803044z m921.802498 0.752509c-20.354321 26.456697-29.549039 23.697498-39.079511 25.913219 5.182644 24.038479 19.5182 32.726298 32.642686 43.007974 112.561483-20.731881 239.070509-15.256595 338.836728-12.533976l-332.316291-56.307524z m-44.769054 27.500543c-10.574318 4.311249-21.566696 4.388329-32.559074 3.343177a25.445514 25.445514 0 0 1-21.73392 12.497396 25.252161 25.252161 0 0 1-22.993327-14.795422l-0.083613-0.167224a34.245687 34.245687 0 0 1-16.551276 11.619469l-0.250836 0.083612a86.132221 86.132221 0 0 1-23.155326 3.135453c-1.505018 0-3.00481-0.041806-4.471941-0.130643h0.20903c1.128763 1.959659 3.00481 3.719432 3.00481 5.726122a15.101129 15.101129 0 0 1-3.928462 9.696391c-4.049961 5.182644-10.490706 9.570973-16.425859 13.917495a51.734987 51.734987 0 0 1 8.230566 19.769036l0.041807 0.334448a23.646547 23.646547 0 0 1 0.20903 3.135454 21.365504 21.365504 0 0 1-4.180605 12.748232l0.041806-0.041806c-5.893347 7.816425-16.007798 11.744887-24.408201 16.425859 0 0.334448 0.041806 0.752509 0.041806 1.175795a20.8168 20.8168 0 0 1-5.182644 13.750271v-0.041806a49.188737 49.188737 0 0 1-16.216828 10.86696l-0.334448 0.130644c1.505018 8.734852 4.137493 15.756962 8.567627 19.72723 4.806389 4.221105 11.828499 5.809735 23.739304 2.716086l3.050535-0.877927 0.543479 3.050536c1.881272 11.535857 4.890001 21.52489 10.407094 26.95837 5.558898 5.517092 13.541241 7.523783 27.957796 3.050535l2.716086-0.877927 0.836121 2.799699a29.376589 29.376589 0 0 0 11.619469 15.631543l0.083612 0.083612c4.848195 3.343178 13.917495 6.227795 20.061679 8.191373 44.469879-48.357842 84.970796-98.766793 104.990668-159.367275-12.541815-9.821809-28.296164-18.682079-34.104591-44.302655zM80.26631 364.168582A371.446754 371.446754 0 0 1 236.875692 400.819423l-2.220946-0.961539c51.282959 23.948334 92.409661 52.32811 110.047894 72.849655 4.137493 4.848195-1.128763 6.81308-4.049961 4.137492a456.836917 456.836917 0 0 0-105.784984-70.717546l-2.716087-1.175795c-50.363226-23.197132-122.378066-35.985864-176.084469-39.997938a312.875171 312.875171 0 0 1 24.240977-0.710703z m24.073752 45.464079c33.979174 1.128763 69.088417 8.651239 100.685952 19.596586 42.130047 14.586392 79.119256 34.228703 97.299662 54.627443 2.466557 2.799699-0.292642 7.23114-4.012074 3.886656-19.434587-16.927531-53.624098-38.661451-95.127054-53.122425-32.057402-10.86696-90.069828-20.437933-126.515559-22.068369 10.908766-1.175795 16.342246-3.343178 27.627267-2.966923z m49.775328 99.264546c2.799699 0 5.726122 0.20903 8.693046 0.459867 23.613886 1.881272 49.361187 7.398364 74.772733 22.611847 2.382945 1.463212 2.716087 7.565589-2.799699 5.01542-47.685026-22.402817-73.936612-27.251012-136.964458-17.178368 18.849303-6.311407 36.319006-11.07599 56.298378-10.908766z m23.155326 43.676871c16.72242 0.20903 34.146398 3.468596 55.629482 12.037529 2.466557 1.003345 4.471941 7.02211-1.839466 5.225757-47.772557-13.541241-65.034536-18.265325-127.518904 5.809734 15.677269-12.748232 34.564458-20.437933 56.967275-22.444623a160.038785 160.038785 0 0 1 16.760307-0.627091z m81.33367 37.950748a223.340983 223.340983 0 0 1 25.620577 1.463212c2.966923 0.292642 3.050535 5.684316-0.376255 5.558898-7.23114-0.41806-15.677269-0.668897-24.157364-0.668897a442.03235 442.03235 0 0 0-80.999222 7.440171l2.716087-0.418061c-13.541241 2.550169-23.530274 2.466557-78.241329 25.620577 15.924186-13.040875 44.303961-25.118904 77.237984-31.223894 24.742649-4.471941 52.035468-7.900037 78.199522-7.816425z m74.438285 50.488644c1.959659-0.292642 5.851541 4.680971 0.961539 5.558898-40.666835 7.565589-69.339253 14.920841-100.017055 25.36974-12.03753 4.137493-32.269045 11.535857-69.213835 32.768105 14.419168-15.004453 36.487537-27.543655 67.583399-38.117973a561.254059 561.254059 0 0 1 97.21605-25.118903l3.468596-0.501673z m17.26198 28.296164c4.180605-0.668897 5.517092 4.848195 1.212375 5.684316-67.834235 13.374017-98.093977 30.970444-141.603623 63.738549 28.046634-29.127059 72.225177-58.508873 140.39386-69.41764z m33.227971 24.909873a5.146063 5.146063 0 0 1 0.836121-0.083612 6.225182 6.225182 0 0 1 0.877927 0.083612h-0.041806c3.343178 0.627091 3.84485 4.973614-0.501673 5.558898-48.608678 7.23114-82.420627 30.928638-125.76305 74.229255 16.427165-27.538429 56.050155-69.208609 124.595093-79.782927z m20.688769 21.817533c2.550169-0.292642 6.478631 4.049961 1.379599 5.558898a148.036529 148.036529 0 0 0-37.323657 16.72242c-10.156257 6.562243-16.843919 11.243215-33.437002 28.296163 6.227795-13.666659 16.676695-24.240977 30.426966-32.935328 13.708465-8.734852 28.254358-16.342246 38.954094-17.68004z" fill="#008080" p-id="24097"></path></svg>