<svg width="360" height="360" xmlns="http://www.w3.org/2000/svg" xmlns:xlink="http://www.w3.org/1999/xlink" overflow="hidden"><defs><clipPath id="clip0"><rect x="388" y="1503" width="360" height="360"/></clipPath></defs><g clip-path="url(#clip0)" transform="translate(-388 -1503)"><path d="M388 1544.5C388 1521.58 406.58 1503 429.5 1503 452.42 1503 471 1521.58 471 1544.5 471 1567.42 452.42 1586 429.5 1586 406.58 1586 388 1567.42 388 1544.5Z" fill="#4472C4" fill-rule="evenodd"/><path d="M526 1544.5C526 1521.58 544.58 1503 567.5 1503 590.42 1503 609 1521.58 609 1544.5 609 1567.42 590.42 1586 567.5 1586 544.58 1586 526 1567.42 526 1544.5Z" fill="#4472C4" fill-rule="evenodd"/><path d="M664 1544.5C664 1521.58 682.804 1503 706 1503 729.196 1503 748 1521.58 748 1544.5 748 1567.42 729.196 1586 706 1586 682.804 1586 664 1567.42 664 1544.5Z" fill="#4472C4" fill-rule="evenodd"/><path d="M429.5 1641C452.42 1641 471 1659.58 471 1682.5 471 1705.42 452.42 1724 429.5 1724 406.58 1724 388 1705.42 388 1682.5 388 1659.58 406.58 1641 429.5 1641Z" fill="#4472C4" fill-rule="evenodd"/><path d="M429.5 1779C452.42 1779 471 1797.8 471 1821 471 1844.2 452.42 1863 429.5 1863 406.58 1863 388 1844.2 388 1821 388 1797.8 406.58 1779 429.5 1779Z" fill="#4472C4" fill-rule="evenodd"/><path d="M567.5 1641C590.42 1641 609 1659.58 609 1682.5 609 1705.42 590.42 1724 567.5 1724 544.58 1724 526 1705.42 526 1682.5 526 1659.58 544.58 1641 567.5 1641Z" fill="#4472C4" fill-rule="evenodd"/><path d="M706 1641C729.196 1641 748 1659.58 748 1682.5 748 1705.42 729.196 1724 706 1724 682.804 1724 664 1705.42 664 1682.5 664 1659.58 682.804 1641 706 1641Z" fill="#4472C4" fill-rule="evenodd"/><path d="M567.5 1779C590.42 1779 609 1797.8 609 1821 609 1844.2 590.42 1863 567.5 1863 544.58 1863 526 1844.2 526 1821 526 1797.8 544.58 1779 567.5 1779Z" fill="#4472C4" fill-rule="evenodd"/><path d="M706 1779C729.196 1779 748 1797.8 748 1821 748 1844.2 729.196 1863 706 1863 682.804 1863 664 1844.2 664 1821 664 1797.8 682.804 1779 706 1779Z" fill="#4472C4" fill-rule="evenodd"/></g></svg>