<?xml version="1.0" encoding="utf-8" standalone="no"?>
<!DOCTYPE svg PUBLIC "-//W3C//DTD SVG 1.1//EN"
  "http://www.w3.org/Graphics/SVG/1.1/DTD/svg11.dtd">
<svg xmlns:xlink="http://www.w3.org/1999/xlink" width="864.82021pt" height="438.08pt" viewBox="0 0 864.82021 438.08" xmlns="http://www.w3.org/2000/svg" version="1.1">
 <metadata>
  <rdf:RDF xmlns:dc="http://purl.org/dc/elements/1.1/" xmlns:cc="http://creativecommons.org/ns#" xmlns:rdf="http://www.w3.org/1999/02/22-rdf-syntax-ns#">
   <cc:Work>
    <dc:type rdf:resource="http://purl.org/dc/dcmitype/StillImage"/>
    <dc:date>2023-12-10T12:06:10.436627</dc:date>
    <dc:format>image/svg+xml</dc:format>
    <dc:creator>
     <cc:Agent>
      <dc:title>Matplotlib v3.7.3, https://matplotlib.org/</dc:title>
     </cc:Agent>
    </dc:creator>
   </cc:Work>
  </rdf:RDF>
 </metadata>
 <defs>
  <style type="text/css">*{stroke-linejoin: round; stroke-linecap: butt}</style>
 </defs>
 <g id="figure_1">
  <g id="patch_1">
   <path d="M 0 438.08 
L 864.82021 438.08 
L 864.82021 0 
L 0 0 
z
" style="fill: #ffffff"/>
  </g>
  <g id="axes_1">
   <g id="patch_2">
    <path d="M 78.5 388.08 
L 433.590909 388.08 
L 433.590909 0 
L 78.5 0 
z
" style="fill: #ffffff"/>
   </g>
   <g id="matplotlib.axis_1">
    <g id="xtick_1">
     <g id="line2d_1">
      <defs>
       <path id="m17771dd789" d="M 0 0 
L 0 3.5 
" style="stroke: #000000; stroke-width: 0.8"/>
      </defs>
      <g>
       <use xlink:href="#m17771dd789" x="94.640496" y="388.08" style="stroke: #000000; stroke-width: 0.8"/>
      </g>
     </g>
     <g id="text_1">
      <!-- 0 -->
      <g transform="translate(88.640496 411.58) scale(0.24 -0.24)">
       <defs>
        <path id="SimHei-30" d="M 225 2537 
Q 250 3200 412 3587 
Q 575 3975 875 4225 
Q 1175 4475 1612 4475 
Q 2050 4475 2375 4112 
Q 2700 3750 2800 3200 
Q 2900 2650 2862 1937 
Q 2825 1225 2612 775 
Q 2400 325 1975 150 
Q 1550 -25 1125 187 
Q 700 400 525 750 
Q 350 1100 275 1487 
Q 200 1875 225 2537 
z
M 750 2687 
Q 675 2000 800 1462 
Q 925 925 1212 700 
Q 1500 475 1800 612 
Q 2100 750 2237 1162 
Q 2375 1575 2375 2062 
Q 2375 2550 2337 2950 
Q 2300 3350 2112 3675 
Q 1925 4000 1612 4012 
Q 1300 4025 1062 3700 
Q 825 3375 750 2687 
z
" transform="scale(0.015625)"/>
       </defs>
       <use xlink:href="#SimHei-30"/>
      </g>
     </g>
    </g>
    <g id="xtick_2">
     <g id="line2d_2">
      <g>
       <use xlink:href="#m17771dd789" x="257.675808" y="388.08" style="stroke: #000000; stroke-width: 0.8"/>
      </g>
     </g>
     <g id="text_2">
      <!-- 50 -->
      <g transform="translate(245.675808 411.58) scale(0.24 -0.24)">
       <defs>
        <path id="SimHei-35" d="M 550 1325 
Q 725 650 1150 575 
Q 1575 500 1837 662 
Q 2100 825 2212 1087 
Q 2325 1350 2312 1675 
Q 2300 2000 2137 2225 
Q 1975 2450 1725 2525 
Q 1475 2600 1162 2525 
Q 850 2450 650 2175 
L 225 2225 
Q 275 2375 700 4375 
L 2675 4375 
L 2675 3925 
L 1075 3925 
Q 950 3250 825 2850 
Q 1200 3025 1525 3012 
Q 1850 3000 2150 2862 
Q 2450 2725 2587 2487 
Q 2725 2250 2787 2012 
Q 2850 1775 2837 1500 
Q 2825 1225 2725 937 
Q 2625 650 2425 462 
Q 2225 275 1937 162 
Q 1650 50 1275 75 
Q 900 100 562 350 
Q 225 600 100 1200 
L 550 1325 
z
" transform="scale(0.015625)"/>
       </defs>
       <use xlink:href="#SimHei-35"/>
       <use xlink:href="#SimHei-30" x="50"/>
      </g>
     </g>
    </g>
    <g id="xtick_3">
     <g id="line2d_3">
      <g>
       <use xlink:href="#m17771dd789" x="420.711119" y="388.08" style="stroke: #000000; stroke-width: 0.8"/>
      </g>
     </g>
     <g id="text_3">
      <!-- 100 -->
      <g transform="translate(402.711119 411.58) scale(0.24 -0.24)">
       <defs>
        <path id="SimHei-31" d="M 1400 3600 
Q 1075 3275 575 2975 
L 575 3450 
Q 1200 3875 1600 4450 
L 1900 4450 
L 1900 150 
L 1400 150 
L 1400 3600 
z
" transform="scale(0.015625)"/>
       </defs>
       <use xlink:href="#SimHei-31"/>
       <use xlink:href="#SimHei-30" x="50"/>
       <use xlink:href="#SimHei-30" x="100"/>
      </g>
     </g>
    </g>
    <g id="text_4">
     <!-- epoch -->
     <g transform="translate(226.045455 435.08) scale(0.24 -0.24)">
      <defs>
       <path id="SimHei-65" d="M 2850 1075 
Q 2800 625 2450 350 
Q 2100 75 1625 75 
Q 1025 75 637 462 
Q 250 850 250 1525 
Q 250 2200 637 2587 
Q 1025 2975 1625 2975 
Q 2150 2975 2487 2637 
Q 2825 2300 2825 1525 
L 800 1525 
Q 800 975 1037 750 
Q 1275 525 1625 525 
Q 1900 525 2075 662 
Q 2250 800 2300 1075 
L 2850 1075 
z
M 2250 1925 
Q 2200 2275 2025 2412 
Q 1850 2550 1575 2550 
Q 1325 2550 1125 2412 
Q 925 2275 825 1925 
L 2250 1925 
z
" transform="scale(0.015625)"/>
       <path id="SimHei-70" d="M 2825 1525 
Q 2825 800 2475 425 
Q 2125 50 1625 50 
Q 1350 50 1150 162 
Q 950 275 800 500 
L 800 -800 
L 300 -800 
L 300 2925 
L 800 2925 
L 800 2550 
Q 950 2775 1150 2875 
Q 1350 2975 1625 2975 
Q 2125 2975 2475 2612 
Q 2825 2250 2825 1525 
z
M 2275 1525 
Q 2275 2000 2087 2262 
Q 1900 2525 1525 2525 
Q 1225 2525 1012 2262 
Q 800 2000 800 1525 
Q 800 1050 1012 775 
Q 1225 500 1525 500 
Q 1900 500 2087 775 
Q 2275 1050 2275 1525 
z
" transform="scale(0.015625)"/>
       <path id="SimHei-6f" d="M 2925 1525 
Q 2925 875 2525 475 
Q 2125 75 1575 75 
Q 1025 75 625 475 
Q 225 875 225 1525 
Q 225 2175 625 2575 
Q 1025 2975 1575 2975 
Q 2125 2975 2525 2575 
Q 2925 2175 2925 1525 
z
M 2375 1525 
Q 2375 2025 2125 2275 
Q 1875 2525 1575 2525 
Q 1275 2525 1025 2275 
Q 775 2025 775 1525 
Q 775 1025 1025 775 
Q 1275 525 1575 525 
Q 1875 525 2125 775 
Q 2375 1025 2375 1525 
z
" transform="scale(0.015625)"/>
       <path id="SimHei-63" d="M 2850 1250 
Q 2850 725 2487 400 
Q 2125 75 1575 75 
Q 1025 75 625 462 
Q 225 850 225 1525 
Q 225 2200 625 2587 
Q 1025 2975 1575 2975 
Q 2125 2975 2450 2687 
Q 2775 2400 2775 2000 
L 2225 2000 
Q 2200 2300 2012 2412 
Q 1825 2525 1575 2525 
Q 1275 2525 1025 2287 
Q 775 2050 775 1525 
Q 775 1000 1025 762 
Q 1275 525 1575 525 
Q 1900 525 2100 700 
Q 2300 875 2300 1250 
L 2850 1250 
z
" transform="scale(0.015625)"/>
       <path id="SimHei-68" d="M 2800 125 
L 2300 125 
L 2300 1925 
Q 2300 2225 2150 2400 
Q 2000 2575 1750 2575 
Q 1425 2575 1137 2237 
Q 850 1900 850 1400 
L 850 125 
L 350 125 
L 350 4400 
L 850 4400 
L 850 2400 
Q 1050 2675 1287 2825 
Q 1525 2975 1900 2975 
Q 2350 2975 2575 2725 
Q 2800 2475 2800 2100 
L 2800 125 
z
" transform="scale(0.015625)"/>
      </defs>
      <use xlink:href="#SimHei-65"/>
      <use xlink:href="#SimHei-70" x="50"/>
      <use xlink:href="#SimHei-6f" x="100"/>
      <use xlink:href="#SimHei-63" x="150"/>
      <use xlink:href="#SimHei-68" x="200"/>
     </g>
    </g>
   </g>
   <g id="matplotlib.axis_2">
    <g id="ytick_1">
     <g id="line2d_4">
      <defs>
       <path id="m5ae9368b1d" d="M 0 0 
L -3.5 0 
" style="stroke: #000000; stroke-width: 0.8"/>
      </defs>
      <g>
       <use xlink:href="#m5ae9368b1d" x="78.5" y="387.060515" style="stroke: #000000; stroke-width: 0.8"/>
      </g>
     </g>
     <g id="text_5">
      <!-- 0.15 -->
      <g transform="translate(23.5 395.310515) scale(0.24 -0.24)">
       <defs>
        <path id="SimHei-2e" d="M 1075 125 
L 500 125 
L 500 675 
L 1075 675 
L 1075 125 
z
" transform="scale(0.015625)"/>
       </defs>
       <use xlink:href="#SimHei-30"/>
       <use xlink:href="#SimHei-2e" x="50"/>
       <use xlink:href="#SimHei-31" x="100"/>
       <use xlink:href="#SimHei-35" x="150"/>
      </g>
     </g>
    </g>
    <g id="ytick_2">
     <g id="line2d_5">
      <g>
       <use xlink:href="#m5ae9368b1d" x="78.5" y="320.860485" style="stroke: #000000; stroke-width: 0.8"/>
      </g>
     </g>
     <g id="text_6">
      <!-- 0.20 -->
      <g transform="translate(23.5 329.110485) scale(0.24 -0.24)">
       <defs>
        <path id="SimHei-32" d="M 300 250 
Q 325 625 650 925 
Q 975 1225 1475 1862 
Q 1975 2500 2125 2850 
Q 2275 3200 2237 3450 
Q 2200 3700 2000 3862 
Q 1800 4025 1537 4000 
Q 1275 3975 1037 3800 
Q 800 3625 675 3275 
L 200 3350 
Q 400 3925 712 4187 
Q 1025 4450 1450 4475 
Q 1700 4500 1900 4462 
Q 2100 4425 2312 4287 
Q 2525 4150 2662 3875 
Q 2800 3600 2762 3212 
Q 2725 2825 2375 2287 
Q 2025 1750 1025 600 
L 2825 600 
L 2825 150 
L 300 150 
L 300 250 
z
" transform="scale(0.015625)"/>
       </defs>
       <use xlink:href="#SimHei-30"/>
       <use xlink:href="#SimHei-2e" x="50"/>
       <use xlink:href="#SimHei-32" x="100"/>
       <use xlink:href="#SimHei-30" x="150"/>
      </g>
     </g>
    </g>
    <g id="ytick_3">
     <g id="line2d_6">
      <g>
       <use xlink:href="#m5ae9368b1d" x="78.5" y="254.660456" style="stroke: #000000; stroke-width: 0.8"/>
      </g>
     </g>
     <g id="text_7">
      <!-- 0.25 -->
      <g transform="translate(23.5 262.910456) scale(0.24 -0.24)">
       <use xlink:href="#SimHei-30"/>
       <use xlink:href="#SimHei-2e" x="50"/>
       <use xlink:href="#SimHei-32" x="100"/>
       <use xlink:href="#SimHei-35" x="150"/>
      </g>
     </g>
    </g>
    <g id="ytick_4">
     <g id="line2d_7">
      <g>
       <use xlink:href="#m5ae9368b1d" x="78.5" y="188.460427" style="stroke: #000000; stroke-width: 0.8"/>
      </g>
     </g>
     <g id="text_8">
      <!-- 0.30 -->
      <g transform="translate(23.5 196.710427) scale(0.24 -0.24)">
       <defs>
        <path id="SimHei-33" d="M 250 1225 
L 700 1300 
Q 800 975 1025 762 
Q 1250 550 1587 562 
Q 1925 575 2125 837 
Q 2325 1100 2300 1437 
Q 2275 1775 2037 1962 
Q 1800 2150 1275 2225 
L 1275 2550 
Q 1800 2600 2037 2825 
Q 2275 3050 2250 3412 
Q 2225 3775 1925 3937 
Q 1625 4100 1287 3975 
Q 950 3850 750 3275 
L 300 3350 
Q 450 3800 712 4100 
Q 975 4400 1425 4450 
Q 1875 4500 2212 4337 
Q 2550 4175 2687 3837 
Q 2825 3500 2725 3100 
Q 2625 2700 2150 2400 
Q 2500 2250 2687 1950 
Q 2875 1650 2812 1162 
Q 2750 675 2375 375 
Q 2000 75 1525 87 
Q 1050 100 700 387 
Q 350 675 250 1225 
z
" transform="scale(0.015625)"/>
       </defs>
       <use xlink:href="#SimHei-30"/>
       <use xlink:href="#SimHei-2e" x="50"/>
       <use xlink:href="#SimHei-33" x="100"/>
       <use xlink:href="#SimHei-30" x="150"/>
      </g>
     </g>
    </g>
    <g id="ytick_5">
     <g id="line2d_8">
      <g>
       <use xlink:href="#m5ae9368b1d" x="78.5" y="122.260397" style="stroke: #000000; stroke-width: 0.8"/>
      </g>
     </g>
     <g id="text_9">
      <!-- 0.35 -->
      <g transform="translate(23.5 130.510397) scale(0.24 -0.24)">
       <use xlink:href="#SimHei-30"/>
       <use xlink:href="#SimHei-2e" x="50"/>
       <use xlink:href="#SimHei-33" x="100"/>
       <use xlink:href="#SimHei-35" x="150"/>
      </g>
     </g>
    </g>
    <g id="ytick_6">
     <g id="line2d_9">
      <g>
       <use xlink:href="#m5ae9368b1d" x="78.5" y="56.060368" style="stroke: #000000; stroke-width: 0.8"/>
      </g>
     </g>
     <g id="text_10">
      <!-- 0.40 -->
      <g transform="translate(23.5 64.310368) scale(0.24 -0.24)">
       <defs>
        <path id="SimHei-34" d="M 2000 1100 
L 75 1100 
L 75 1525 
L 2100 4450 
L 2475 4450 
L 2475 1525 
L 3075 1525 
L 3075 1100 
L 2475 1100 
L 2475 150 
L 2000 150 
L 2000 1100 
z
M 2000 1525 
L 2000 3500 
L 600 1525 
L 2000 1525 
z
" transform="scale(0.015625)"/>
       </defs>
       <use xlink:href="#SimHei-30"/>
       <use xlink:href="#SimHei-2e" x="50"/>
       <use xlink:href="#SimHei-34" x="100"/>
       <use xlink:href="#SimHei-30" x="150"/>
      </g>
     </g>
    </g>
    <g id="text_11">
     <!-- loss -->
     <g transform="translate(16.5 218.04) rotate(-90) scale(0.24 -0.24)">
      <defs>
       <path id="SimHei-6c" d="M 1825 125 
L 1325 125 
L 1325 4400 
L 1825 4400 
L 1825 125 
z
" transform="scale(0.015625)"/>
       <path id="SimHei-73" d="M 2750 900 
Q 2750 500 2437 287 
Q 2125 75 1650 75 
Q 1050 75 725 312 
Q 400 550 400 1000 
L 900 1000 
Q 900 700 1112 600 
Q 1325 500 1625 500 
Q 1925 500 2075 612 
Q 2225 725 2225 900 
Q 2225 1025 2100 1150 
Q 1975 1275 1475 1350 
Q 900 1425 687 1637 
Q 475 1850 475 2200 
Q 475 2500 762 2737 
Q 1050 2975 1600 2975 
Q 2100 2975 2387 2750 
Q 2675 2525 2675 2150 
L 2175 2150 
Q 2175 2375 2012 2462 
Q 1850 2550 1600 2550 
Q 1275 2550 1137 2437 
Q 1000 2325 1000 2175 
Q 1000 2000 1125 1900 
Q 1250 1800 1650 1750 
Q 2300 1650 2525 1437 
Q 2750 1225 2750 900 
z
" transform="scale(0.015625)"/>
      </defs>
      <use xlink:href="#SimHei-6c"/>
      <use xlink:href="#SimHei-6f" x="50"/>
      <use xlink:href="#SimHei-73" x="100"/>
      <use xlink:href="#SimHei-73" x="150"/>
     </g>
    </g>
   </g>
   <g id="line2d_10">
    <path d="M 94.640496 106.140639 
L 97.901202 51.603631 
L 101.161908 52.40746 
L 104.422615 103.63679 
L 107.683321 99.465011 
L 110.944027 104.01064 
L 114.204733 101.255201 
L 117.46544 100.133652 
L 120.726146 113.62178 
L 123.986852 120.210266 
L 127.247558 110.727852 
L 130.508264 101.468238 
L 133.768971 109.583506 
L 137.029677 149.524575 
L 140.290383 145.373133 
L 143.551089 166.915281 
L 146.811796 166.065794 
L 150.072502 203.377791 
L 153.333208 153.131858 
L 156.593914 214.314291 
L 159.854621 203.829017 
L 163.115327 219.660214 
L 166.376033 221.740615 
L 169.636739 238.575985 
L 172.897446 238.939801 
L 176.158152 250.634237 
L 179.418858 239.84828 
L 182.679564 242.103333 
L 185.94027 251.622113 
L 189.200977 229.822482 
L 192.461683 260.642291 
L 195.722389 258.220162 
L 198.983095 257.134506 
L 202.243802 257.163799 
L 205.504508 223.015941 
L 208.765214 274.61434 
L 212.02592 285.93533 
L 215.286627 277.814068 
L 218.547333 288.777 
L 221.808039 242.571563 
L 225.068745 266.319167 
L 228.329452 246.055913 
L 231.590158 281.975073 
L 234.850864 276.782117 
L 238.11157 246.223629 
L 241.372276 280.201651 
L 244.632983 284.208138 
L 247.893689 256.349363 
L 251.154395 260.381071 
L 254.415101 290.289202 
L 257.675808 257.044941 
L 260.936514 269.814595 
L 264.19722 286.033683 
L 267.457926 262.817779 
L 270.718633 227.518033 
L 273.979339 269.351685 
L 277.240045 276.972224 
L 280.500751 250.892056 
L 283.761458 290.991143 
L 287.022164 300.125466 
L 290.28287 207.475426 
L 293.543576 269.332728 
L 296.804282 252.740801 
L 300.064989 283.732164 
L 303.325695 284.105913 
L 306.586401 248.500535 
L 309.847107 279.806386 
L 313.107814 280.334348 
L 316.36852 267.578095 
L 319.629226 259.06241 
L 322.889932 282.067702 
L 326.150639 269.309462 
L 329.411345 271.713004 
L 332.672051 271.656167 
L 335.932757 242.263877 
L 339.193464 279.391222 
L 342.45417 271.26629 
L 345.714876 270.875133 
L 348.975582 272.055675 
L 352.236289 275.94566 
L 355.496995 288.502042 
L 358.757701 238.736966 
L 362.018407 273.930312 
L 365.279113 267.690253 
L 368.53982 264.37244 
L 371.800526 220.947998 
L 375.061232 279.844535 
L 378.321938 280.27007 
L 381.582645 268.59183 
L 384.843351 292.127609 
L 388.104057 247.569058 
L 391.364763 274.08961 
L 394.62547 298.071531 
L 397.886176 283.132718 
L 401.146882 261.991794 
L 404.407588 237.974451 
L 407.668295 264.196778 
L 410.929001 233.80247 
L 414.189707 281.669642 
L 417.450413 285.980415 
" clip-path="url(#p96b3103738)" style="fill: none; stroke: #c82423; stroke-width: 2; stroke-linecap: square"/>
   </g>
   <g id="line2d_11">
    <path d="M 94.640496 17.64 
L 97.901202 62.62779 
L 101.161908 74.317687 
L 104.422615 82.056648 
L 107.683321 91.072199 
L 110.944027 89.350341 
L 114.204733 95.495717 
L 117.46544 98.709877 
L 120.726146 98.767845 
L 123.986852 103.256765 
L 127.247558 106.547911 
L 130.508264 113.904314 
L 133.768971 99.964057 
L 137.029677 112.19517 
L 140.290383 129.177406 
L 143.551089 143.299837 
L 146.811796 161.759236 
L 150.072502 175.986828 
L 153.333208 183.879275 
L 156.593914 193.407489 
L 159.854621 203.228426 
L 163.115327 207.307151 
L 166.376033 216.521578 
L 169.636739 219.297152 
L 172.897446 225.191799 
L 176.158152 233.492851 
L 179.418858 241.574637 
L 182.679564 249.057724 
L 185.94027 248.317337 
L 189.200977 254.673709 
L 192.461683 261.34077 
L 195.722389 271.13337 
L 198.983095 268.348072 
L 202.243802 270.980234 
L 205.504508 274.038483 
L 208.765214 283.39511 
L 212.02592 287.38955 
L 215.286627 282.307238 
L 218.547333 280.494306 
L 221.808039 295.141655 
L 225.068745 298.070635 
L 228.329452 302.300557 
L 231.590158 303.668411 
L 234.850864 304.497096 
L 238.11157 314.235203 
L 241.372276 313.811351 
L 244.632983 313.855959 
L 247.893689 314.138607 
L 251.154395 324.881377 
L 254.415101 323.639453 
L 257.675808 330.004068 
L 260.936514 329.570331 
L 264.19722 329.187881 
L 267.457926 334.952693 
L 270.718633 316.348588 
L 273.979339 330.255497 
L 277.240045 329.969319 
L 280.500751 334.847612 
L 283.761458 338.407641 
L 287.022164 338.101585 
L 290.28287 341.954418 
L 293.543576 331.554311 
L 296.804282 344.594392 
L 300.064989 351.124183 
L 303.325695 349.847753 
L 306.586401 341.003843 
L 309.847107 340.214081 
L 313.107814 350.337223 
L 316.36852 339.464294 
L 319.629226 350.880081 
L 322.889932 347.66716 
L 326.150639 333.036162 
L 329.411345 333.115006 
L 332.672051 350.723524 
L 335.932757 359.114814 
L 339.193464 344.164937 
L 342.45417 350.879219 
L 345.714876 353.684397 
L 348.975582 356.000671 
L 352.236289 350.643926 
L 355.496995 348.037192 
L 358.757701 361.250975 
L 362.018407 370.44 
L 365.279113 358.051132 
L 368.53982 263.21897 
L 371.800526 251.303234 
L 375.061232 266.055745 
L 378.321938 322.135865 
L 381.582645 322.413665 
L 384.843351 338.319477 
L 388.104057 345.653037 
L 391.364763 356.395431 
L 394.62547 351.281414 
L 397.886176 341.625061 
L 401.146882 340.427663 
L 404.407588 330.61769 
L 407.668295 280.667591 
L 410.929001 285.451147 
L 414.189707 266.939651 
L 417.450413 300.580881 
" clip-path="url(#p96b3103738)" style="fill: none; stroke: #2878b5; stroke-width: 2; stroke-linecap: square"/>
   </g>
   <g id="patch_3">
    <path d="M 78.5 388.08 
L 78.5 0 
" style="fill: none; stroke: #000000; stroke-width: 0.8; stroke-linejoin: miter; stroke-linecap: square"/>
   </g>
   <g id="patch_4">
    <path d="M 433.590909 388.08 
L 433.590909 0 
" style="fill: none; stroke: #000000; stroke-width: 0.8; stroke-linejoin: miter; stroke-linecap: square"/>
   </g>
   <g id="patch_5">
    <path d="M 78.5 388.08 
L 433.590909 388.08 
" style="fill: none; stroke: #000000; stroke-width: 0.8; stroke-linejoin: miter; stroke-linecap: square"/>
   </g>
   <g id="patch_6">
    <path d="M 78.5 0 
L 433.590909 0 
" style="fill: none; stroke: #000000; stroke-width: 0.8; stroke-linejoin: miter; stroke-linecap: square"/>
   </g>
   <g id="legend_1">
    <g id="patch_7">
     <path d="M 219.990909 83.175 
L 416.790909 83.175 
Q 421.590909 83.175 421.590909 78.375 
L 421.590909 16.8 
Q 421.590909 12 416.790909 12 
L 219.990909 12 
Q 215.190909 12 215.190909 16.8 
L 215.190909 78.375 
Q 215.190909 83.175 219.990909 83.175 
z
" style="fill: #ffffff; opacity: 0.8; stroke: #cccccc; stroke-linejoin: miter"/>
    </g>
    <g id="line2d_12">
     <path d="M 224.790909 30 
L 248.790909 30 
L 272.790909 30 
" style="fill: none; stroke: #c82423; stroke-width: 2; stroke-linecap: square"/>
    </g>
    <g id="text_12">
     <!-- val_loss -->
     <g transform="translate(291.990909 38.4) scale(0.24 -0.24)">
      <defs>
       <path id="SimHei-76" d="M 2875 2925 
L 1825 75 
L 1275 75 
L 225 2925 
L 750 2925 
L 1525 750 
L 1575 750 
L 2350 2925 
L 2875 2925 
z
" transform="scale(0.015625)"/>
       <path id="SimHei-61" d="M 2875 125 
L 2275 125 
Q 2225 175 2200 262 
Q 2175 350 2175 475 
Q 2000 275 1750 175 
Q 1500 75 1225 75 
Q 825 75 550 275 
Q 275 475 275 850 
Q 275 1225 525 1450 
Q 775 1675 1300 1750 
Q 1650 1800 1912 1875 
Q 2175 1950 2175 2075 
Q 2175 2225 2062 2375 
Q 1950 2525 1575 2525 
Q 1275 2525 1137 2412 
Q 1000 2300 950 2100 
L 400 2100 
Q 450 2500 762 2737 
Q 1075 2975 1575 2975 
Q 2125 2975 2400 2725 
Q 2675 2475 2675 2025 
L 2675 650 
Q 2675 500 2725 375 
Q 2775 250 2875 125 
z
M 2175 1050 
L 2175 1550 
Q 2025 1500 1887 1462 
Q 1750 1425 1425 1375 
Q 1050 1325 937 1200 
Q 825 1075 825 900 
Q 825 750 937 637 
Q 1050 525 1275 525 
Q 1500 525 1762 650 
Q 2025 775 2175 1050 
z
" transform="scale(0.015625)"/>
       <path id="SimHei-5f" d="M 3150 -850 
L 0 -850 
L 0 -550 
L 3150 -550 
L 3150 -850 
z
" transform="scale(0.015625)"/>
      </defs>
      <use xlink:href="#SimHei-76"/>
      <use xlink:href="#SimHei-61" x="50"/>
      <use xlink:href="#SimHei-6c" x="100"/>
      <use xlink:href="#SimHei-5f" x="150"/>
      <use xlink:href="#SimHei-6c" x="200"/>
      <use xlink:href="#SimHei-6f" x="250"/>
      <use xlink:href="#SimHei-73" x="300"/>
      <use xlink:href="#SimHei-73" x="350"/>
     </g>
    </g>
    <g id="line2d_13">
     <path d="M 224.790909 61.9875 
L 248.790909 61.9875 
L 272.790909 61.9875 
" style="fill: none; stroke: #2878b5; stroke-width: 2; stroke-linecap: square"/>
    </g>
    <g id="text_13">
     <!-- train_loss -->
     <g transform="translate(291.990909 70.3875) scale(0.24 -0.24)">
      <defs>
       <path id="SimHei-74" d="M 2750 200 
Q 2625 150 2462 112 
Q 2300 75 2025 75 
Q 1575 75 1300 325 
Q 1025 575 1025 1025 
L 1025 2525 
L 175 2525 
L 175 2925 
L 1025 2925 
L 1025 3900 
L 1525 3900 
L 1525 2925 
L 2550 2925 
L 2550 2525 
L 1525 2525 
L 1525 1000 
Q 1525 800 1625 662 
Q 1725 525 2000 525 
Q 2275 525 2450 575 
Q 2625 625 2750 700 
L 2750 200 
z
" transform="scale(0.015625)"/>
       <path id="SimHei-72" d="M 2500 2425 
Q 2025 2500 1700 2287 
Q 1375 2075 1150 1550 
L 1150 125 
L 650 125 
L 650 2925 
L 1150 2925 
L 1150 2200 
Q 1375 2600 1712 2787 
Q 2050 2975 2500 2975 
L 2500 2425 
z
" transform="scale(0.015625)"/>
       <path id="SimHei-69" d="M 1800 3725 
L 1300 3725 
L 1300 4375 
L 1800 4375 
L 1800 3725 
z
M 1800 125 
L 1300 125 
L 1300 2925 
L 1800 2925 
L 1800 125 
z
" transform="scale(0.015625)"/>
       <path id="SimHei-6e" d="M 2800 125 
L 2300 125 
L 2300 1925 
Q 2300 2225 2150 2400 
Q 2000 2575 1750 2575 
Q 1425 2575 1137 2237 
Q 850 1900 850 1400 
L 850 125 
L 350 125 
L 350 2925 
L 850 2925 
L 850 2400 
Q 1050 2675 1287 2825 
Q 1525 2975 1900 2975 
Q 2350 2975 2575 2725 
Q 2800 2475 2800 2100 
L 2800 125 
z
" transform="scale(0.015625)"/>
      </defs>
      <use xlink:href="#SimHei-74"/>
      <use xlink:href="#SimHei-72" x="50"/>
      <use xlink:href="#SimHei-61" x="100"/>
      <use xlink:href="#SimHei-69" x="150"/>
      <use xlink:href="#SimHei-6e" x="200"/>
      <use xlink:href="#SimHei-5f" x="250"/>
      <use xlink:href="#SimHei-6c" x="300"/>
      <use xlink:href="#SimHei-6f" x="350"/>
      <use xlink:href="#SimHei-73" x="400"/>
      <use xlink:href="#SimHei-73" x="450"/>
     </g>
    </g>
   </g>
  </g>
  <g id="axes_2">
   <g id="patch_8">
    <path d="M 504.609091 388.08 
L 859.7 388.08 
L 859.7 0 
L 504.609091 0 
z
" style="fill: #ffffff"/>
   </g>
   <g id="matplotlib.axis_3">
    <g id="xtick_4">
     <g id="line2d_14">
      <g>
       <use xlink:href="#m17771dd789" x="520.749587" y="388.08" style="stroke: #000000; stroke-width: 0.8"/>
      </g>
     </g>
     <g id="text_14">
      <!-- 0 -->
      <g transform="translate(514.749587 411.58) scale(0.24 -0.24)">
       <use xlink:href="#SimHei-30"/>
      </g>
     </g>
    </g>
    <g id="xtick_5">
     <g id="line2d_15">
      <g>
       <use xlink:href="#m17771dd789" x="683.784899" y="388.08" style="stroke: #000000; stroke-width: 0.8"/>
      </g>
     </g>
     <g id="text_15">
      <!-- 50 -->
      <g transform="translate(671.784899 411.58) scale(0.24 -0.24)">
       <use xlink:href="#SimHei-35"/>
       <use xlink:href="#SimHei-30" x="50"/>
      </g>
     </g>
    </g>
    <g id="xtick_6">
     <g id="line2d_16">
      <g>
       <use xlink:href="#m17771dd789" x="846.82021" y="388.08" style="stroke: #000000; stroke-width: 0.8"/>
      </g>
     </g>
     <g id="text_16">
      <!-- 100 -->
      <g transform="translate(828.82021 411.58) scale(0.24 -0.24)">
       <use xlink:href="#SimHei-31"/>
       <use xlink:href="#SimHei-30" x="50"/>
       <use xlink:href="#SimHei-30" x="100"/>
      </g>
     </g>
    </g>
    <g id="text_17">
     <!-- epoch -->
     <g transform="translate(652.154545 435.08) scale(0.24 -0.24)">
      <use xlink:href="#SimHei-65"/>
      <use xlink:href="#SimHei-70" x="50"/>
      <use xlink:href="#SimHei-6f" x="100"/>
      <use xlink:href="#SimHei-63" x="150"/>
      <use xlink:href="#SimHei-68" x="200"/>
     </g>
    </g>
   </g>
   <g id="matplotlib.axis_4">
    <g id="ytick_7">
     <g id="line2d_17">
      <g>
       <use xlink:href="#m5ae9368b1d" x="504.609091" y="359.634353" style="stroke: #000000; stroke-width: 0.8"/>
      </g>
     </g>
     <g id="text_18">
      <!-- 0.3 -->
      <g transform="translate(461.609091 367.884353) scale(0.24 -0.24)">
       <use xlink:href="#SimHei-30"/>
       <use xlink:href="#SimHei-2e" x="50"/>
       <use xlink:href="#SimHei-33" x="100"/>
      </g>
     </g>
    </g>
    <g id="ytick_8">
     <g id="line2d_18">
      <g>
       <use xlink:href="#m5ae9368b1d" x="504.609091" y="302.070645" style="stroke: #000000; stroke-width: 0.8"/>
      </g>
     </g>
     <g id="text_19">
      <!-- 0.4 -->
      <g transform="translate(461.609091 310.320645) scale(0.24 -0.24)">
       <use xlink:href="#SimHei-30"/>
       <use xlink:href="#SimHei-2e" x="50"/>
       <use xlink:href="#SimHei-34" x="100"/>
      </g>
     </g>
    </g>
    <g id="ytick_9">
     <g id="line2d_19">
      <g>
       <use xlink:href="#m5ae9368b1d" x="504.609091" y="244.506937" style="stroke: #000000; stroke-width: 0.8"/>
      </g>
     </g>
     <g id="text_20">
      <!-- 0.5 -->
      <g transform="translate(461.609091 252.756937) scale(0.24 -0.24)">
       <use xlink:href="#SimHei-30"/>
       <use xlink:href="#SimHei-2e" x="50"/>
       <use xlink:href="#SimHei-35" x="100"/>
      </g>
     </g>
    </g>
    <g id="ytick_10">
     <g id="line2d_20">
      <g>
       <use xlink:href="#m5ae9368b1d" x="504.609091" y="186.943229" style="stroke: #000000; stroke-width: 0.8"/>
      </g>
     </g>
     <g id="text_21">
      <!-- 0.6 -->
      <g transform="translate(461.609091 195.193229) scale(0.24 -0.24)">
       <defs>
        <path id="SimHei-36" d="M 250 1612 
Q 275 1975 387 2225 
Q 500 2475 725 2850 
L 1750 4450 
L 2325 4450 
L 1275 2800 
Q 1950 2975 2350 2750 
Q 2750 2525 2887 2237 
Q 3025 1950 3037 1612 
Q 3050 1275 2937 950 
Q 2825 625 2537 362 
Q 2250 100 1737 75 
Q 1225 50 862 262 
Q 500 475 362 862 
Q 225 1250 250 1612 
z
M 1025 787 
Q 1250 550 1625 525 
Q 2000 500 2250 775 
Q 2500 1050 2500 1575 
Q 2500 2100 2187 2300 
Q 1875 2500 1487 2450 
Q 1100 2400 925 2075 
Q 750 1750 775 1387 
Q 800 1025 1025 787 
z
" transform="scale(0.015625)"/>
       </defs>
       <use xlink:href="#SimHei-30"/>
       <use xlink:href="#SimHei-2e" x="50"/>
       <use xlink:href="#SimHei-36" x="100"/>
      </g>
     </g>
    </g>
    <g id="ytick_11">
     <g id="line2d_21">
      <g>
       <use xlink:href="#m5ae9368b1d" x="504.609091" y="129.379521" style="stroke: #000000; stroke-width: 0.8"/>
      </g>
     </g>
     <g id="text_22">
      <!-- 0.7 -->
      <g transform="translate(461.609091 137.629521) scale(0.24 -0.24)">
       <defs>
        <path id="SimHei-37" d="M 850 150 
Q 1300 2050 2425 3925 
L 275 3925 
L 275 4375 
L 2950 4375 
L 2950 3950 
Q 1775 2050 1400 150 
L 850 150 
z
" transform="scale(0.015625)"/>
       </defs>
       <use xlink:href="#SimHei-30"/>
       <use xlink:href="#SimHei-2e" x="50"/>
       <use xlink:href="#SimHei-37" x="100"/>
      </g>
     </g>
    </g>
    <g id="ytick_12">
     <g id="line2d_22">
      <g>
       <use xlink:href="#m5ae9368b1d" x="504.609091" y="71.815813" style="stroke: #000000; stroke-width: 0.8"/>
      </g>
     </g>
     <g id="text_23">
      <!-- 0.8 -->
      <g transform="translate(461.609091 80.065813) scale(0.24 -0.24)">
       <defs>
        <path id="SimHei-38" d="M 175 1375 
Q 175 1675 325 1962 
Q 475 2250 825 2425 
Q 525 2600 425 2812 
Q 325 3025 312 3300 
Q 300 3575 387 3775 
Q 475 3975 650 4150 
Q 825 4325 1037 4387 
Q 1250 4450 1500 4450 
Q 1750 4450 1950 4400 
Q 2150 4350 2375 4187 
Q 2600 4025 2700 3725 
Q 2800 3425 2687 3025 
Q 2575 2625 2100 2400 
Q 2525 2275 2700 2012 
Q 2875 1750 2875 1375 
Q 2875 1000 2762 775 
Q 2650 550 2512 400 
Q 2375 250 2137 162 
Q 1900 75 1537 75 
Q 1175 75 912 162 
Q 650 250 475 425 
Q 300 600 237 837 
Q 175 1075 175 1375 
z
M 687 1400 
Q 675 1100 787 875 
Q 900 650 1200 587 
Q 1500 525 1825 600 
Q 2150 675 2275 950 
Q 2400 1225 2362 1500 
Q 2325 1775 2050 1962 
Q 1775 2150 1450 2125 
Q 1125 2100 912 1900 
Q 700 1700 687 1400 
z
M 775 3350 
Q 775 3100 950 2875 
Q 1125 2650 1500 2650 
Q 1875 2650 2062 2875 
Q 2250 3100 2237 3412 
Q 2225 3725 2012 3875 
Q 1800 4025 1437 4000 
Q 1075 3975 925 3787 
Q 775 3600 775 3350 
z
" transform="scale(0.015625)"/>
       </defs>
       <use xlink:href="#SimHei-30"/>
       <use xlink:href="#SimHei-2e" x="50"/>
       <use xlink:href="#SimHei-38" x="100"/>
      </g>
     </g>
    </g>
    <g id="ytick_13">
     <g id="line2d_23">
      <g>
       <use xlink:href="#m5ae9368b1d" x="504.609091" y="14.252105" style="stroke: #000000; stroke-width: 0.8"/>
      </g>
     </g>
     <g id="text_24">
      <!-- 0.9 -->
      <g transform="translate(461.609091 22.502105) scale(0.24 -0.24)">
       <defs>
        <path id="SimHei-39" d="M 800 75 
Q 1350 1000 1700 1750 
Q 1075 1650 662 1912 
Q 250 2175 162 2625 
Q 75 3075 175 3437 
Q 275 3800 487 4037 
Q 700 4275 1000 4375 
Q 1300 4475 1537 4475 
Q 1775 4475 2025 4375 
Q 2275 4275 2475 4075 
Q 2675 3875 2750 3662 
Q 2825 3450 2825 3112 
Q 2825 2775 2575 2250 
Q 2325 1725 1350 75 
L 800 75 
z
M 662 2875 
Q 700 2550 937 2337 
Q 1175 2125 1450 2150 
Q 1725 2175 1887 2300 
Q 2050 2425 2200 2725 
Q 2300 3100 2250 3362 
Q 2200 3625 1987 3800 
Q 1775 3975 1525 3975 
Q 1375 4000 1137 3900 
Q 900 3800 762 3500 
Q 625 3200 662 2875 
z
" transform="scale(0.015625)"/>
       </defs>
       <use xlink:href="#SimHei-30"/>
       <use xlink:href="#SimHei-2e" x="50"/>
       <use xlink:href="#SimHei-39" x="100"/>
      </g>
     </g>
    </g>
    <g id="text_25">
     <!-- mAP -->
     <g transform="translate(454.609091 212.04) rotate(-90) scale(0.24 -0.24)">
      <defs>
       <path id="SimHei-6d" d="M 3050 125 
L 2550 125 
L 2550 2150 
Q 2550 2300 2500 2400 
Q 2450 2500 2300 2500 
Q 2125 2500 1975 2312 
Q 1825 2125 1825 1825 
L 1825 125 
L 1325 125 
L 1325 2150 
Q 1325 2300 1275 2400 
Q 1225 2500 1075 2500 
Q 900 2500 750 2312 
Q 600 2125 600 1825 
L 600 125 
L 100 125 
L 100 2925 
L 600 2925 
L 600 2550 
Q 725 2750 900 2862 
Q 1075 2975 1275 2975 
Q 1475 2975 1612 2862 
Q 1750 2750 1800 2550 
Q 1925 2750 2087 2862 
Q 2250 2975 2450 2975 
Q 2750 2975 2900 2812 
Q 3050 2650 3050 2350 
L 3050 125 
z
" transform="scale(0.015625)"/>
       <path id="SimHei-41" d="M 3075 125 
L 2475 125 
L 2125 1450 
L 1025 1450 
L 675 125 
L 75 125 
L 1325 4450 
L 1825 4450 
L 3075 125 
z
M 2000 1925 
L 1600 3450 
L 1550 3450 
L 1150 1925 
L 2000 1925 
z
" transform="scale(0.015625)"/>
       <path id="SimHei-50" d="M 2950 3100 
Q 2950 2500 2600 2150 
Q 2250 1800 1625 1800 
L 900 1800 
L 900 125 
L 325 125 
L 325 4400 
L 1625 4400 
Q 2250 4400 2600 4050 
Q 2950 3700 2950 3100 
z
M 2375 3100 
Q 2375 3575 2150 3750 
Q 1925 3925 1475 3925 
L 900 3925 
L 900 2275 
L 1475 2275 
Q 1925 2275 2150 2450 
Q 2375 2625 2375 3100 
z
" transform="scale(0.015625)"/>
      </defs>
      <use xlink:href="#SimHei-6d"/>
      <use xlink:href="#SimHei-41" x="50"/>
      <use xlink:href="#SimHei-50" x="100"/>
     </g>
    </g>
   </g>
   <g id="line2d_24">
    <path d="M 520.749587 305.309777 
L 524.010293 333.607616 
L 527.270999 322.170299 
L 530.531705 302.053906 
L 533.792412 296.942344 
L 537.053118 291.896272 
L 540.313824 291.778849 
L 543.57453 289.720536 
L 546.835237 291.883443 
L 550.095943 273.818324 
L 553.356649 273.321496 
L 556.617355 306.766789 
L 559.878062 252.256885 
L 563.138768 222.491999 
L 566.399474 231.981731 
L 569.66018 195.741807 
L 572.920887 194.515228 
L 576.181593 156.182854 
L 579.442299 205.89697 
L 582.703005 135.798718 
L 585.963711 140.696496 
L 589.224418 124.582121 
L 592.485124 124.561509 
L 595.74583 124.814602 
L 599.006536 109.580165 
L 602.267243 105.549727 
L 605.527949 116.99128 
L 608.788655 110.748703 
L 612.049361 106.529422 
L 615.310068 122.930979 
L 618.570774 80.446154 
L 621.83148 102.667007 
L 625.092186 85.544258 
L 628.352893 96.367011 
L 631.613599 117.684855 
L 634.874305 85.306923 
L 638.135011 75.44315 
L 641.395718 82.500936 
L 644.656424 70.470045 
L 647.91713 102.79831 
L 651.177836 83.421365 
L 654.438542 91.719699 
L 657.699249 73.599782 
L 660.959955 77.786607 
L 664.220661 93.209377 
L 667.481367 78.419171 
L 670.742074 72.801841 
L 674.00278 91.884012 
L 677.263486 89.322756 
L 680.524192 69.718943 
L 683.784899 86.732875 
L 687.045605 73.811164 
L 690.306311 71.917737 
L 693.567017 84.099256 
L 696.827724 108.10886 
L 700.08843 73.968579 
L 703.349136 70.999554 
L 706.609842 90.769378 
L 709.870548 60.42923 
L 713.131255 60.777006 
L 716.391961 123.561927 
L 719.652667 71.017023 
L 722.913373 75.474609 
L 726.17408 66.270976 
L 729.434786 66.672855 
L 732.695492 80.701503 
L 735.956198 67.202063 
L 739.216905 71.514229 
L 742.477611 77.884064 
L 745.738317 80.375422 
L 748.999023 73.67501 
L 752.25973 81.68363 
L 755.520436 72.20453 
L 758.781142 73.597821 
L 762.041848 89.14989 
L 765.302554 71.520255 
L 768.563261 70.669225 
L 771.823967 81.593127 
L 775.084673 80.597896 
L 778.345379 76.252237 
L 781.606086 67.775553 
L 784.866792 81.492727 
L 788.127498 62.768626 
L 791.388204 76.353834 
L 794.648911 83.376645 
L 797.909617 128.53545 
L 801.170323 75.705229 
L 804.431029 70.615299 
L 807.691736 79.874761 
L 810.952442 63.003318 
L 814.213148 78.419204 
L 817.473854 68.847902 
L 820.73456 58.576801 
L 823.995267 69.943692 
L 827.255973 78.845047 
L 830.516679 100.184528 
L 833.777385 93.006401 
L 837.038092 113.260939 
L 840.298798 73.983785 
L 843.559504 74.943109 
" clip-path="url(#pc35b6ceb95)" style="fill: none; stroke: #c82423; stroke-width: 2; stroke-linecap: square"/>
   </g>
   <g id="line2d_25">
    <path d="M 520.749587 370.44 
L 524.010293 345.078755 
L 527.270999 332.649919 
L 530.531705 327.322178 
L 533.792412 311.47747 
L 537.053118 316.928584 
L 540.313824 307.510511 
L 543.57453 302.687319 
L 546.835237 303.083589 
L 550.095943 293.626399 
L 553.356649 286.97958 
L 556.617355 280.33188 
L 559.878062 293.147687 
L 563.138768 277.825037 
L 566.399474 253.482954 
L 569.66018 235.127436 
L 572.920887 210.460623 
L 576.181593 194.615744 
L 579.442299 184.246277 
L 582.703005 176.874133 
L 585.963711 164.46723 
L 589.224418 155.653763 
L 592.485124 146.363756 
L 595.74583 141.499195 
L 599.006536 140.005512 
L 602.267243 127.769049 
L 605.527949 118.72481 
L 608.788655 109.843584 
L 612.049361 111.907635 
L 615.310068 103.582121 
L 618.570774 99.865712 
L 621.83148 89.196151 
L 625.092186 94.431526 
L 628.352893 91.248374 
L 631.613599 86.306958 
L 634.874305 77.688932 
L 638.135011 76.677977 
L 641.395718 78.506361 
L 644.656424 80.475979 
L 647.91713 68.508556 
L 651.177836 65.625731 
L 654.438542 63.583456 
L 657.699249 61.193247 
L 660.959955 61.268948 
L 664.220661 53.767139 
L 667.481367 52.470144 
L 670.742074 55.200732 
L 674.00278 53.054196 
L 677.263486 46.927253 
L 680.524192 46.337567 
L 683.784899 41.759355 
L 687.045605 42.94527 
L 690.306311 42.613751 
L 693.567017 38.497008 
L 696.827724 53.006569 
L 700.08843 42.036045 
L 703.349136 42.69157 
L 706.609842 39.279206 
L 709.870548 35.865451 
L 713.131255 36.008708 
L 716.391961 33.360715 
L 719.652667 40.804825 
L 722.913373 32.869672 
L 726.17408 28.636509 
L 729.434786 29.113644 
L 732.695492 35.029234 
L 735.956198 34.64351 
L 739.216905 28.372977 
L 742.477611 34.767219 
L 745.738317 28.320553 
L 748.999023 30.415529 
L 752.25973 40.503601 
L 755.520436 40.018193 
L 758.781142 28.387959 
L 762.041848 23.114997 
L 765.302554 32.354238 
L 768.563261 28.787557 
L 771.823967 26.971807 
L 775.084673 24.606411 
L 778.345379 28.585739 
L 781.606086 30.257617 
L 784.866792 22.204038 
L 788.127498 17.64 
L 791.388204 24.749565 
L 794.648911 95.674374 
L 797.909617 107.64537 
L 801.170323 91.637385 
L 804.431029 47.101919 
L 807.691736 47.728435 
L 810.952442 36.331173 
L 814.213148 31.008544 
L 817.473854 25.285632 
L 820.73456 28.709774 
L 823.995267 35.050519 
L 827.255973 34.944466 
L 830.516679 41.974251 
L 833.777385 80.992042 
L 837.038092 77.638536 
L 840.298798 92.501067 
L 843.559504 65.054025 
" clip-path="url(#pc35b6ceb95)" style="fill: none; stroke: #2878b5; stroke-width: 2; stroke-linecap: square"/>
   </g>
   <g id="patch_9">
    <path d="M 504.609091 388.08 
L 504.609091 0 
" style="fill: none; stroke: #000000; stroke-width: 0.8; stroke-linejoin: miter; stroke-linecap: square"/>
   </g>
   <g id="patch_10">
    <path d="M 859.7 388.08 
L 859.7 0 
" style="fill: none; stroke: #000000; stroke-width: 0.8; stroke-linejoin: miter; stroke-linecap: square"/>
   </g>
   <g id="patch_11">
    <path d="M 504.609091 388.08 
L 859.7 388.08 
" style="fill: none; stroke: #000000; stroke-width: 0.8; stroke-linejoin: miter; stroke-linecap: square"/>
   </g>
   <g id="patch_12">
    <path d="M 504.609091 0 
L 859.7 0 
" style="fill: none; stroke: #000000; stroke-width: 0.8; stroke-linejoin: miter; stroke-linecap: square"/>
   </g>
   <g id="legend_2">
    <g id="patch_13">
     <path d="M 658.1 376.08 
L 842.9 376.08 
Q 847.7 376.08 847.7 371.28 
L 847.7 309.705 
Q 847.7 304.905 842.9 304.905 
L 658.1 304.905 
Q 653.3 304.905 653.3 309.705 
L 653.3 371.28 
Q 653.3 376.08 658.1 376.08 
z
" style="fill: #ffffff; opacity: 0.8; stroke: #cccccc; stroke-linejoin: miter"/>
    </g>
    <g id="line2d_26">
     <path d="M 662.9 322.905 
L 686.9 322.905 
L 710.9 322.905 
" style="fill: none; stroke: #c82423; stroke-width: 2; stroke-linecap: square"/>
    </g>
    <g id="text_26">
     <!-- val_mAP -->
     <g transform="translate(730.1 331.305) scale(0.24 -0.24)">
      <use xlink:href="#SimHei-76"/>
      <use xlink:href="#SimHei-61" x="50"/>
      <use xlink:href="#SimHei-6c" x="100"/>
      <use xlink:href="#SimHei-5f" x="150"/>
      <use xlink:href="#SimHei-6d" x="200"/>
      <use xlink:href="#SimHei-41" x="250"/>
      <use xlink:href="#SimHei-50" x="300"/>
     </g>
    </g>
    <g id="line2d_27">
     <path d="M 662.9 354.8925 
L 686.9 354.8925 
L 710.9 354.8925 
" style="fill: none; stroke: #2878b5; stroke-width: 2; stroke-linecap: square"/>
    </g>
    <g id="text_27">
     <!-- train_mAP -->
     <g transform="translate(730.1 363.2925) scale(0.24 -0.24)">
      <use xlink:href="#SimHei-74"/>
      <use xlink:href="#SimHei-72" x="50"/>
      <use xlink:href="#SimHei-61" x="100"/>
      <use xlink:href="#SimHei-69" x="150"/>
      <use xlink:href="#SimHei-6e" x="200"/>
      <use xlink:href="#SimHei-5f" x="250"/>
      <use xlink:href="#SimHei-6d" x="300"/>
      <use xlink:href="#SimHei-41" x="350"/>
      <use xlink:href="#SimHei-50" x="400"/>
     </g>
    </g>
   </g>
  </g>
 </g>
 <defs>
  <clipPath id="p96b3103738">
   <rect x="78.5" y="0" width="355.090909" height="388.08"/>
  </clipPath>
  <clipPath id="pc35b6ceb95">
   <rect x="504.609091" y="0" width="355.090909" height="388.08"/>
  </clipPath>
 </defs>
</svg>
