<?xml version="1.0" encoding="utf-8" standalone="no"?>
<!DOCTYPE svg PUBLIC "-//W3C//DTD SVG 1.1//EN"
  "http://www.w3.org/Graphics/SVG/1.1/DTD/svg11.dtd">
<svg xmlns:xlink="http://www.w3.org/1999/xlink" width="1491.344pt" height="519.32pt" viewBox="0 0 1491.344 519.32" xmlns="http://www.w3.org/2000/svg" version="1.1">
 <metadata>
  <rdf:RDF xmlns:dc="http://purl.org/dc/elements/1.1/" xmlns:cc="http://creativecommons.org/ns#" xmlns:rdf="http://www.w3.org/1999/02/22-rdf-syntax-ns#">
   <cc:Work>
    <dc:type rdf:resource="http://purl.org/dc/dcmitype/StillImage"/>
    <dc:date>2023-12-10T12:19:50.384851</dc:date>
    <dc:format>image/svg+xml</dc:format>
    <dc:creator>
     <cc:Agent>
      <dc:title>Matplotlib v3.7.3, https://matplotlib.org/</dc:title>
     </cc:Agent>
    </dc:creator>
   </cc:Work>
  </rdf:RDF>
 </metadata>
 <defs>
  <style type="text/css">*{stroke-linejoin: round; stroke-linecap: butt}</style>
 </defs>
 <g id="figure_1">
  <g id="patch_1">
   <path d="M -0 519.32 
L 1491.344 519.32 
L 1491.344 0 
L -0 0 
z
" style="fill: #ffffff"/>
  </g>
  <g id="axes_1">
   <g id="patch_2">
    <path d="M 66.5 469.32 
L 1070.9 469.32 
L 1070.9 25.8 
L 66.5 25.8 
z
" style="fill: #ffffff"/>
   </g>
   <g id="matplotlib.axis_1">
    <g id="xtick_1">
     <g id="line2d_1">
      <defs>
       <path id="mf2e62ebd7f" d="M 0 0 
L 0 3.5 
" style="stroke: #000000; stroke-width: 0.8"/>
      </defs>
      <g>
       <use xlink:href="#mf2e62ebd7f" x="112.154545" y="469.32" style="stroke: #000000; stroke-width: 0.8"/>
      </g>
     </g>
     <g id="text_1">
      <!-- 0.0 -->
      <g transform="translate(94.154545 492.82) scale(0.24 -0.24)">
       <defs>
        <path id="SimHei-30" d="M 225 2537 
Q 250 3200 412 3587 
Q 575 3975 875 4225 
Q 1175 4475 1612 4475 
Q 2050 4475 2375 4112 
Q 2700 3750 2800 3200 
Q 2900 2650 2862 1937 
Q 2825 1225 2612 775 
Q 2400 325 1975 150 
Q 1550 -25 1125 187 
Q 700 400 525 750 
Q 350 1100 275 1487 
Q 200 1875 225 2537 
z
M 750 2687 
Q 675 2000 800 1462 
Q 925 925 1212 700 
Q 1500 475 1800 612 
Q 2100 750 2237 1162 
Q 2375 1575 2375 2062 
Q 2375 2550 2337 2950 
Q 2300 3350 2112 3675 
Q 1925 4000 1612 4012 
Q 1300 4025 1062 3700 
Q 825 3375 750 2687 
z
" transform="scale(0.015625)"/>
        <path id="SimHei-2e" d="M 1075 125 
L 500 125 
L 500 675 
L 1075 675 
L 1075 125 
z
" transform="scale(0.015625)"/>
       </defs>
       <use xlink:href="#SimHei-30"/>
       <use xlink:href="#SimHei-2e" x="50"/>
       <use xlink:href="#SimHei-30" x="100"/>
      </g>
     </g>
    </g>
    <g id="xtick_2">
     <g id="line2d_2">
      <g>
       <use xlink:href="#mf2e62ebd7f" x="294.772727" y="469.32" style="stroke: #000000; stroke-width: 0.8"/>
      </g>
     </g>
     <g id="text_2">
      <!-- 0.2 -->
      <g transform="translate(276.772727 492.82) scale(0.24 -0.24)">
       <defs>
        <path id="SimHei-32" d="M 300 250 
Q 325 625 650 925 
Q 975 1225 1475 1862 
Q 1975 2500 2125 2850 
Q 2275 3200 2237 3450 
Q 2200 3700 2000 3862 
Q 1800 4025 1537 4000 
Q 1275 3975 1037 3800 
Q 800 3625 675 3275 
L 200 3350 
Q 400 3925 712 4187 
Q 1025 4450 1450 4475 
Q 1700 4500 1900 4462 
Q 2100 4425 2312 4287 
Q 2525 4150 2662 3875 
Q 2800 3600 2762 3212 
Q 2725 2825 2375 2287 
Q 2025 1750 1025 600 
L 2825 600 
L 2825 150 
L 300 150 
L 300 250 
z
" transform="scale(0.015625)"/>
       </defs>
       <use xlink:href="#SimHei-30"/>
       <use xlink:href="#SimHei-2e" x="50"/>
       <use xlink:href="#SimHei-32" x="100"/>
      </g>
     </g>
    </g>
    <g id="xtick_3">
     <g id="line2d_3">
      <g>
       <use xlink:href="#mf2e62ebd7f" x="477.390909" y="469.32" style="stroke: #000000; stroke-width: 0.8"/>
      </g>
     </g>
     <g id="text_3">
      <!-- 0.4 -->
      <g transform="translate(459.390909 492.82) scale(0.24 -0.24)">
       <defs>
        <path id="SimHei-34" d="M 2000 1100 
L 75 1100 
L 75 1525 
L 2100 4450 
L 2475 4450 
L 2475 1525 
L 3075 1525 
L 3075 1100 
L 2475 1100 
L 2475 150 
L 2000 150 
L 2000 1100 
z
M 2000 1525 
L 2000 3500 
L 600 1525 
L 2000 1525 
z
" transform="scale(0.015625)"/>
       </defs>
       <use xlink:href="#SimHei-30"/>
       <use xlink:href="#SimHei-2e" x="50"/>
       <use xlink:href="#SimHei-34" x="100"/>
      </g>
     </g>
    </g>
    <g id="xtick_4">
     <g id="line2d_4">
      <g>
       <use xlink:href="#mf2e62ebd7f" x="660.009091" y="469.32" style="stroke: #000000; stroke-width: 0.8"/>
      </g>
     </g>
     <g id="text_4">
      <!-- 0.6 -->
      <g transform="translate(642.009091 492.82) scale(0.24 -0.24)">
       <defs>
        <path id="SimHei-36" d="M 250 1612 
Q 275 1975 387 2225 
Q 500 2475 725 2850 
L 1750 4450 
L 2325 4450 
L 1275 2800 
Q 1950 2975 2350 2750 
Q 2750 2525 2887 2237 
Q 3025 1950 3037 1612 
Q 3050 1275 2937 950 
Q 2825 625 2537 362 
Q 2250 100 1737 75 
Q 1225 50 862 262 
Q 500 475 362 862 
Q 225 1250 250 1612 
z
M 1025 787 
Q 1250 550 1625 525 
Q 2000 500 2250 775 
Q 2500 1050 2500 1575 
Q 2500 2100 2187 2300 
Q 1875 2500 1487 2450 
Q 1100 2400 925 2075 
Q 750 1750 775 1387 
Q 800 1025 1025 787 
z
" transform="scale(0.015625)"/>
       </defs>
       <use xlink:href="#SimHei-30"/>
       <use xlink:href="#SimHei-2e" x="50"/>
       <use xlink:href="#SimHei-36" x="100"/>
      </g>
     </g>
    </g>
    <g id="xtick_5">
     <g id="line2d_5">
      <g>
       <use xlink:href="#mf2e62ebd7f" x="842.627273" y="469.32" style="stroke: #000000; stroke-width: 0.8"/>
      </g>
     </g>
     <g id="text_5">
      <!-- 0.8 -->
      <g transform="translate(824.627273 492.82) scale(0.24 -0.24)">
       <defs>
        <path id="SimHei-38" d="M 175 1375 
Q 175 1675 325 1962 
Q 475 2250 825 2425 
Q 525 2600 425 2812 
Q 325 3025 312 3300 
Q 300 3575 387 3775 
Q 475 3975 650 4150 
Q 825 4325 1037 4387 
Q 1250 4450 1500 4450 
Q 1750 4450 1950 4400 
Q 2150 4350 2375 4187 
Q 2600 4025 2700 3725 
Q 2800 3425 2687 3025 
Q 2575 2625 2100 2400 
Q 2525 2275 2700 2012 
Q 2875 1750 2875 1375 
Q 2875 1000 2762 775 
Q 2650 550 2512 400 
Q 2375 250 2137 162 
Q 1900 75 1537 75 
Q 1175 75 912 162 
Q 650 250 475 425 
Q 300 600 237 837 
Q 175 1075 175 1375 
z
M 687 1400 
Q 675 1100 787 875 
Q 900 650 1200 587 
Q 1500 525 1825 600 
Q 2150 675 2275 950 
Q 2400 1225 2362 1500 
Q 2325 1775 2050 1962 
Q 1775 2150 1450 2125 
Q 1125 2100 912 1900 
Q 700 1700 687 1400 
z
M 775 3350 
Q 775 3100 950 2875 
Q 1125 2650 1500 2650 
Q 1875 2650 2062 2875 
Q 2250 3100 2237 3412 
Q 2225 3725 2012 3875 
Q 1800 4025 1437 4000 
Q 1075 3975 925 3787 
Q 775 3600 775 3350 
z
" transform="scale(0.015625)"/>
       </defs>
       <use xlink:href="#SimHei-30"/>
       <use xlink:href="#SimHei-2e" x="50"/>
       <use xlink:href="#SimHei-38" x="100"/>
      </g>
     </g>
    </g>
    <g id="xtick_6">
     <g id="line2d_6">
      <g>
       <use xlink:href="#mf2e62ebd7f" x="1025.245455" y="469.32" style="stroke: #000000; stroke-width: 0.8"/>
      </g>
     </g>
     <g id="text_6">
      <!-- 1.0 -->
      <g transform="translate(1007.245455 492.82) scale(0.24 -0.24)">
       <defs>
        <path id="SimHei-31" d="M 1400 3600 
Q 1075 3275 575 2975 
L 575 3450 
Q 1200 3875 1600 4450 
L 1900 4450 
L 1900 150 
L 1400 150 
L 1400 3600 
z
" transform="scale(0.015625)"/>
       </defs>
       <use xlink:href="#SimHei-31"/>
       <use xlink:href="#SimHei-2e" x="50"/>
       <use xlink:href="#SimHei-30" x="100"/>
      </g>
     </g>
    </g>
    <g id="text_7">
     <!-- Recall -->
     <g transform="translate(532.7 516.32) scale(0.24 -0.24)">
      <defs>
       <path id="SimHei-52" d="M 3000 125 
L 2400 125 
L 1500 1975 
L 850 1975 
L 850 125 
L 275 125 
L 275 4400 
L 1525 4400 
Q 2125 4400 2500 4112 
Q 2875 3825 2875 3175 
Q 2875 2675 2625 2400 
Q 2375 2125 2050 2050 
L 3000 125 
z
M 2300 3175 
Q 2300 3525 2087 3725 
Q 1875 3925 1400 3925 
L 850 3925 
L 850 2450 
L 1550 2450 
Q 1850 2450 2075 2612 
Q 2300 2775 2300 3175 
z
" transform="scale(0.015625)"/>
       <path id="SimHei-65" d="M 2850 1075 
Q 2800 625 2450 350 
Q 2100 75 1625 75 
Q 1025 75 637 462 
Q 250 850 250 1525 
Q 250 2200 637 2587 
Q 1025 2975 1625 2975 
Q 2150 2975 2487 2637 
Q 2825 2300 2825 1525 
L 800 1525 
Q 800 975 1037 750 
Q 1275 525 1625 525 
Q 1900 525 2075 662 
Q 2250 800 2300 1075 
L 2850 1075 
z
M 2250 1925 
Q 2200 2275 2025 2412 
Q 1850 2550 1575 2550 
Q 1325 2550 1125 2412 
Q 925 2275 825 1925 
L 2250 1925 
z
" transform="scale(0.015625)"/>
       <path id="SimHei-63" d="M 2850 1250 
Q 2850 725 2487 400 
Q 2125 75 1575 75 
Q 1025 75 625 462 
Q 225 850 225 1525 
Q 225 2200 625 2587 
Q 1025 2975 1575 2975 
Q 2125 2975 2450 2687 
Q 2775 2400 2775 2000 
L 2225 2000 
Q 2200 2300 2012 2412 
Q 1825 2525 1575 2525 
Q 1275 2525 1025 2287 
Q 775 2050 775 1525 
Q 775 1000 1025 762 
Q 1275 525 1575 525 
Q 1900 525 2100 700 
Q 2300 875 2300 1250 
L 2850 1250 
z
" transform="scale(0.015625)"/>
       <path id="SimHei-61" d="M 2875 125 
L 2275 125 
Q 2225 175 2200 262 
Q 2175 350 2175 475 
Q 2000 275 1750 175 
Q 1500 75 1225 75 
Q 825 75 550 275 
Q 275 475 275 850 
Q 275 1225 525 1450 
Q 775 1675 1300 1750 
Q 1650 1800 1912 1875 
Q 2175 1950 2175 2075 
Q 2175 2225 2062 2375 
Q 1950 2525 1575 2525 
Q 1275 2525 1137 2412 
Q 1000 2300 950 2100 
L 400 2100 
Q 450 2500 762 2737 
Q 1075 2975 1575 2975 
Q 2125 2975 2400 2725 
Q 2675 2475 2675 2025 
L 2675 650 
Q 2675 500 2725 375 
Q 2775 250 2875 125 
z
M 2175 1050 
L 2175 1550 
Q 2025 1500 1887 1462 
Q 1750 1425 1425 1375 
Q 1050 1325 937 1200 
Q 825 1075 825 900 
Q 825 750 937 637 
Q 1050 525 1275 525 
Q 1500 525 1762 650 
Q 2025 775 2175 1050 
z
" transform="scale(0.015625)"/>
       <path id="SimHei-6c" d="M 1825 125 
L 1325 125 
L 1325 4400 
L 1825 4400 
L 1825 125 
z
" transform="scale(0.015625)"/>
      </defs>
      <use xlink:href="#SimHei-52"/>
      <use xlink:href="#SimHei-65" x="50"/>
      <use xlink:href="#SimHei-63" x="100"/>
      <use xlink:href="#SimHei-61" x="150"/>
      <use xlink:href="#SimHei-6c" x="200"/>
      <use xlink:href="#SimHei-6c" x="250"/>
     </g>
    </g>
   </g>
   <g id="matplotlib.axis_2">
    <g id="ytick_1">
     <g id="line2d_7">
      <defs>
       <path id="me4f15324c1" d="M 0 0 
L -3.5 0 
" style="stroke: #000000; stroke-width: 0.8"/>
      </defs>
      <g>
       <use xlink:href="#me4f15324c1" x="66.5" y="449.16" style="stroke: #000000; stroke-width: 0.8"/>
      </g>
     </g>
     <g id="text_8">
      <!-- 0.0 -->
      <g transform="translate(23.5 457.41) scale(0.24 -0.24)">
       <use xlink:href="#SimHei-30"/>
       <use xlink:href="#SimHei-2e" x="50"/>
       <use xlink:href="#SimHei-30" x="100"/>
      </g>
     </g>
    </g>
    <g id="ytick_2">
     <g id="line2d_8">
      <g>
       <use xlink:href="#me4f15324c1" x="66.5" y="368.52" style="stroke: #000000; stroke-width: 0.8"/>
      </g>
     </g>
     <g id="text_9">
      <!-- 0.2 -->
      <g transform="translate(23.5 376.77) scale(0.24 -0.24)">
       <use xlink:href="#SimHei-30"/>
       <use xlink:href="#SimHei-2e" x="50"/>
       <use xlink:href="#SimHei-32" x="100"/>
      </g>
     </g>
    </g>
    <g id="ytick_3">
     <g id="line2d_9">
      <g>
       <use xlink:href="#me4f15324c1" x="66.5" y="287.88" style="stroke: #000000; stroke-width: 0.8"/>
      </g>
     </g>
     <g id="text_10">
      <!-- 0.4 -->
      <g transform="translate(23.5 296.13) scale(0.24 -0.24)">
       <use xlink:href="#SimHei-30"/>
       <use xlink:href="#SimHei-2e" x="50"/>
       <use xlink:href="#SimHei-34" x="100"/>
      </g>
     </g>
    </g>
    <g id="ytick_4">
     <g id="line2d_10">
      <g>
       <use xlink:href="#me4f15324c1" x="66.5" y="207.24" style="stroke: #000000; stroke-width: 0.8"/>
      </g>
     </g>
     <g id="text_11">
      <!-- 0.6 -->
      <g transform="translate(23.5 215.49) scale(0.24 -0.24)">
       <use xlink:href="#SimHei-30"/>
       <use xlink:href="#SimHei-2e" x="50"/>
       <use xlink:href="#SimHei-36" x="100"/>
      </g>
     </g>
    </g>
    <g id="ytick_5">
     <g id="line2d_11">
      <g>
       <use xlink:href="#me4f15324c1" x="66.5" y="126.6" style="stroke: #000000; stroke-width: 0.8"/>
      </g>
     </g>
     <g id="text_12">
      <!-- 0.8 -->
      <g transform="translate(23.5 134.85) scale(0.24 -0.24)">
       <use xlink:href="#SimHei-30"/>
       <use xlink:href="#SimHei-2e" x="50"/>
       <use xlink:href="#SimHei-38" x="100"/>
      </g>
     </g>
    </g>
    <g id="ytick_6">
     <g id="line2d_12">
      <g>
       <use xlink:href="#me4f15324c1" x="66.5" y="45.96" style="stroke: #000000; stroke-width: 0.8"/>
      </g>
     </g>
     <g id="text_13">
      <!-- 1.0 -->
      <g transform="translate(23.5 54.21) scale(0.24 -0.24)">
       <use xlink:href="#SimHei-31"/>
       <use xlink:href="#SimHei-2e" x="50"/>
       <use xlink:href="#SimHei-30" x="100"/>
      </g>
     </g>
    </g>
    <g id="text_14">
     <!-- Precision -->
     <g transform="translate(16.5 301.56) rotate(-90) scale(0.24 -0.24)">
      <defs>
       <path id="SimHei-50" d="M 2950 3100 
Q 2950 2500 2600 2150 
Q 2250 1800 1625 1800 
L 900 1800 
L 900 125 
L 325 125 
L 325 4400 
L 1625 4400 
Q 2250 4400 2600 4050 
Q 2950 3700 2950 3100 
z
M 2375 3100 
Q 2375 3575 2150 3750 
Q 1925 3925 1475 3925 
L 900 3925 
L 900 2275 
L 1475 2275 
Q 1925 2275 2150 2450 
Q 2375 2625 2375 3100 
z
" transform="scale(0.015625)"/>
       <path id="SimHei-72" d="M 2500 2425 
Q 2025 2500 1700 2287 
Q 1375 2075 1150 1550 
L 1150 125 
L 650 125 
L 650 2925 
L 1150 2925 
L 1150 2200 
Q 1375 2600 1712 2787 
Q 2050 2975 2500 2975 
L 2500 2425 
z
" transform="scale(0.015625)"/>
       <path id="SimHei-69" d="M 1800 3725 
L 1300 3725 
L 1300 4375 
L 1800 4375 
L 1800 3725 
z
M 1800 125 
L 1300 125 
L 1300 2925 
L 1800 2925 
L 1800 125 
z
" transform="scale(0.015625)"/>
       <path id="SimHei-73" d="M 2750 900 
Q 2750 500 2437 287 
Q 2125 75 1650 75 
Q 1050 75 725 312 
Q 400 550 400 1000 
L 900 1000 
Q 900 700 1112 600 
Q 1325 500 1625 500 
Q 1925 500 2075 612 
Q 2225 725 2225 900 
Q 2225 1025 2100 1150 
Q 1975 1275 1475 1350 
Q 900 1425 687 1637 
Q 475 1850 475 2200 
Q 475 2500 762 2737 
Q 1050 2975 1600 2975 
Q 2100 2975 2387 2750 
Q 2675 2525 2675 2150 
L 2175 2150 
Q 2175 2375 2012 2462 
Q 1850 2550 1600 2550 
Q 1275 2550 1137 2437 
Q 1000 2325 1000 2175 
Q 1000 2000 1125 1900 
Q 1250 1800 1650 1750 
Q 2300 1650 2525 1437 
Q 2750 1225 2750 900 
z
" transform="scale(0.015625)"/>
       <path id="SimHei-6f" d="M 2925 1525 
Q 2925 875 2525 475 
Q 2125 75 1575 75 
Q 1025 75 625 475 
Q 225 875 225 1525 
Q 225 2175 625 2575 
Q 1025 2975 1575 2975 
Q 2125 2975 2525 2575 
Q 2925 2175 2925 1525 
z
M 2375 1525 
Q 2375 2025 2125 2275 
Q 1875 2525 1575 2525 
Q 1275 2525 1025 2275 
Q 775 2025 775 1525 
Q 775 1025 1025 775 
Q 1275 525 1575 525 
Q 1875 525 2125 775 
Q 2375 1025 2375 1525 
z
" transform="scale(0.015625)"/>
       <path id="SimHei-6e" d="M 2800 125 
L 2300 125 
L 2300 1925 
Q 2300 2225 2150 2400 
Q 2000 2575 1750 2575 
Q 1425 2575 1137 2237 
Q 850 1900 850 1400 
L 850 125 
L 350 125 
L 350 2925 
L 850 2925 
L 850 2400 
Q 1050 2675 1287 2825 
Q 1525 2975 1900 2975 
Q 2350 2975 2575 2725 
Q 2800 2475 2800 2100 
L 2800 125 
z
" transform="scale(0.015625)"/>
      </defs>
      <use xlink:href="#SimHei-50"/>
      <use xlink:href="#SimHei-72" x="50"/>
      <use xlink:href="#SimHei-65" x="100"/>
      <use xlink:href="#SimHei-63" x="150"/>
      <use xlink:href="#SimHei-69" x="200"/>
      <use xlink:href="#SimHei-73" x="250"/>
      <use xlink:href="#SimHei-69" x="300"/>
      <use xlink:href="#SimHei-6f" x="350"/>
      <use xlink:href="#SimHei-6e" x="400"/>
     </g>
    </g>
   </g>
   <g id="line2d_13">
    <path d="M 1025.245455 321.48 
L 1025.245455 311.869677 
L 1020.439713 312.347074 
L 1020.439713 309.590769 
L 1015.633971 310.074495 
L 1015.633971 306.407458 
L 1010.82823 306.898868 
L 1010.82823 295.91122 
L 1006.022488 296.420285 
L 1006.022488 296.108571 
L 1001.216746 296.620123 
L 1001.216746 296.307541 
L 996.411005 296.821602 
L 996.411005 296.193402 
L 991.605263 296.710413 
L 991.605263 296.077842 
L 986.799522 296.597838 
L 986.799522 296.28 
L 981.99378 296.802589 
L 981.99378 291.537538 
L 972.382297 292.60295 
L 972.382297 291.232648 
L 962.770813 292.310769 
L 962.770813 288.424865 
L 957.965072 288.97219 
L 957.965072 284.512204 
L 953.15933 285.066977 
L 953.15933 280.759045 
L 948.353589 281.320766 
L 948.353589 278.46219 
L 943.547847 279.029268 
L 943.547847 277.353103 
L 938.742105 277.924444 
L 938.742105 277.500594 
L 929.130622 278.652537 
L 929.130622 277.370526 
L 924.32488 277.95196 
L 924.32488 276.213807 
L 914.713397 277.388571 
L 914.713397 276.949258 
L 909.907656 277.541538 
L 909.907656 277.10036 
L 905.101914 277.696082 
L 905.101914 277.253023 
L 900.296172 277.852228 
L 900.296172 276.96 
L 895.490431 277.563133 
L 895.490431 277.113927 
L 881.073206 278.943641 
L 881.073206 275.273208 
L 876.267464 275.892973 
L 876.267464 274.476621 
L 871.461722 275.100984 
L 871.461722 273.17768 
L 866.655981 273.807091 
L 866.655981 271.842353 
L 861.850239 272.476854 
L 861.850239 270.975297 
L 847.433014 272.904 
L 847.433014 269.306939 
L 842.627273 269.96 
L 842.627273 265.116757 
L 837.821531 265.776867 
L 837.821531 262.401718 
L 823.404306 264.412012 
L 823.404306 259.116688 
L 813.792823 260.483077 
L 813.792823 255.517895 
L 804.18134 256.905695 
L 804.18134 255.624 
L 799.375598 256.325217 
L 799.375598 253.710508 
L 794.569856 254.417143 
L 794.569856 251.047889 
L 789.764115 251.76 
L 789.764115 251.072195 
L 780.152632 252.511579 
L 780.152632 250.419574 
L 775.34689 251.147189 
L 775.34689 248.287798 
L 770.541148 249.02087 
L 770.541148 248.293091 
L 765.735407 249.031533 
L 765.735407 247.56 
L 760.929665 248.303911 
L 760.929665 246.055522 
L 756.123923 246.804944 
L 756.123923 246.044211 
L 751.318182 246.799245 
L 751.318182 245.26038 
L 741.706699 246.787586 
L 741.706699 243.637821 
L 736.900957 244.41 
L 736.900957 239.496 
L 732.095215 240.273253 
L 732.095215 237.725854 
L 722.483732 239.297705 
L 722.483732 237.563306 
L 717.67799 238.35834 
L 717.67799 235.701176 
L 708.066507 237.309153 
L 708.066507 236.40766 
L 698.455024 238.042403 
L 698.455024 236.214545 
L 669.620574 241.288 
L 669.620574 237.525611 
L 655.203349 240.161835 
L 655.203349 239.19871 
L 650.397608 240.093333 
L 650.397608 237.148732 
L 645.591866 238.050566 
L 645.591866 235.020287 
L 635.980383 236.846957 
L 635.980383 234.77561 
L 631.174641 235.701176 
L 631.174641 234.649655 
L 626.3689 235.583762 
L 626.3689 232.36402 
L 621.563158 233.305455 
L 621.563158 232.209746 
L 607.145933 235.089897 
L 607.145933 233.980725 
L 602.340191 234.96 
L 602.340191 233.838534 
L 597.53445 234.827368 
L 597.53445 233.693333 
L 592.728708 234.691915 
L 592.728708 233.545027 
L 587.922967 234.553548 
L 587.922967 232.22087 
L 583.117225 233.238689 
L 583.117225 232.052308 
L 578.311483 233.080442 
L 578.311483 229.438652 
L 573.505742 230.475254 
L 573.505742 227.976 
L 568.7 229.022069 
L 568.7 227.749595 
L 563.894258 228.806512 
L 563.894258 226.214118 
L 544.671292 230.55759 
L 535.059809 232.80878 
L 535.059809 211.028456 
L 525.448325 213.274286 
L 525.448325 211.65863 
L 511.0311 215.134825 
L 511.0311 213.486761 
L 506.225359 214.674894 
L 506.225359 211.301007 
L 501.419617 212.49913 
L 501.419617 210.771679 
L 482.196651 215.728421 
L 482.196651 213.96 
L 472.585167 216.544615 
L 472.585167 211.049764 
L 458.167943 215.043871 
L 453.362201 216.418537 
L 453.362201 206.55661 
L 438.944976 210.746087 
L 434.139234 212.191579 
L 434.139234 207.96 
L 429.333493 209.419459 
L 429.333493 207.24 
L 424.527751 208.719633 
L 424.527751 204.225421 
L 414.916268 207.24 
L 414.916268 200.124706 
L 410.110526 201.651089 
L 410.110526 186.018947 
L 405.304785 187.508936 
L 405.304785 184.695484 
L 395.693301 187.744615 
L 395.693301 184.84 
L 386.081818 187.996364 
L 386.081818 175.56 
L 371.664593 180.36 
L 366.858852 182.04 
L 366.858852 178.658734 
L 357.247368 182.105455 
L 357.247368 178.591579 
L 352.441627 180.36 
L 352.441627 176.727568 
L 342.830144 180.36 
L 342.830144 176.574085 
L 338.024402 178.44 
L 338.024402 174.516522 
L 328.412919 178.35403 
L 328.412919 165.66 
L 318.801435 169.52129 
L 313.995694 171.546885 
L 313.995694 162.136271 
L 309.189952 164.13931 
L 309.189952 159.138947 
L 299.578469 163.254545 
L 299.578469 157.96 
L 289.966986 162.267692 
L 285.161244 164.548235 
L 285.161244 158.856 
L 280.355502 161.16 
L 280.355502 155.16 
L 275.549761 157.483404 
L 275.549761 151.142609 
L 270.744019 153.48 
L 270.744019 146.76 
L 261.132536 151.56 
L 256.326794 154.13561 
L 256.326794 146.76 
L 251.521053 149.344615 
L 251.521053 124.36 
L 246.715311 126.6 
L 241.909569 128.971765 
L 237.103828 131.487273 
L 232.298086 134.16 
L 232.298086 123.99871 
L 227.492344 126.6 
L 222.686603 129.38069 
L 217.880861 132.36 
L 213.07512 135.56 
L 208.269378 139.006154 
L 203.463636 142.728 
L 198.657895 146.76 
L 193.852153 151.142609 
L 189.046411 155.923636 
L 184.24067 161.16 
L 179.434928 166.92 
L 174.629187 173.286316 
L 174.629187 140.830588 
L 169.823445 146.76 
L 165.017703 153.48 
L 165.017703 132.36 
L 160.211962 139.006154 
L 160.211962 113.16 
L 155.40622 119.269091 
L 150.600478 126.6 
L 150.600478 90.76 
L 145.794737 96.36 
L 140.988995 103.56 
L 136.183254 113.16 
L 136.183254 45.96 
L 112.154545 45.96 
L 112.154545 45.96 
" clip-path="url(#pb57046d9d4)" style="fill: none; stroke: #2878b5; stroke-width: 2; stroke-linecap: square"/>
   </g>
   <g id="line2d_14">
    <path d="M 1025.245455 351.72 
L 1025.245455 334.073386 
L 1018.948276 334.641657 
L 1018.948276 303.278593 
L 1012.651097 303.926751 
L 1012.651097 285.824023 
L 1006.353918 286.505455 
L 1006.353918 281.749474 
L 1000.05674 282.440938 
L 1000.05674 277.921446 
L 993.759561 278.622236 
L 993.759561 276.006626 
L 981.165204 277.426667 
L 981.165204 274.734922 
L 974.868025 275.45434 
L 974.868025 273.8 
L 968.570846 274.525605 
L 968.570846 271.699806 
L 962.273668 272.432727 
L 962.273668 270.107368 
L 955.976489 270.847129 
L 955.976489 257.568511 
L 949.67931 258.321566 
L 949.67931 257.64 
L 943.382132 258.39871 
L 943.382132 257.712518 
L 937.084953 258.476968 
L 937.084953 256.389197 
L 930.787774 257.16 
L 930.787774 252.845393 
L 918.193417 254.406792 
L 918.193417 252.176794 
L 905.59906 253.763077 
L 905.59906 252.248372 
L 899.301881 253.051051 
L 899.301881 252.285 
L 893.004702 253.094118 
L 893.004702 250.76 
L 886.707524 251.575936 
L 886.707524 250.7856 
L 874.113166 252.437419 
L 874.113166 245.029456 
L 867.815987 245.865882 
L 867.815987 237.876157 
L 861.518809 238.717895 
L 861.518809 236.855575 
L 855.22163 237.704 
L 855.22163 235.807534 
L 830.032915 239.275068 
L 830.032915 234.371215 
L 817.438558 236.148679 
L 817.438558 235.139147 
L 804.844201 236.949474 
L 804.844201 231.748235 
L 798.547022 232.663448 
L 798.547022 230.509254 
L 792.249843 231.432 
L 792.249843 230.337889 
L 785.952665 231.269091 
L 785.952665 229.045714 
L 767.061129 231.891606 
L 767.061129 227.293333 
L 760.76395 228.257872 
L 760.76395 227.076578 
L 741.872414 230.029565 
L 741.872414 228.832131 
L 735.575235 229.836923 
L 735.575235 222.36 
L 729.278056 223.368 
L 729.278056 219.429767 
L 716.683699 221.470588 
L 716.683699 210.226667 
L 704.089342 212.28 
L 704.089342 210.790189 
L 697.792163 211.833418 
L 697.792163 204.077647 
L 691.494984 205.117895 
L 691.494984 201.864 
L 685.197806 202.910336 
L 685.197806 197.850411 
L 678.900627 198.897931 
L 678.900627 197.16 
L 672.603448 198.217343 
L 672.603448 196.450141 
L 666.30627 197.517447 
L 666.30627 190.170219 
L 660.009091 191.230588 
L 660.009091 189.32 
L 647.414734 191.475789 
L 647.414734 189.523636 
L 641.117555 190.619542 
L 641.117555 184.56 
L 634.820376 185.651339 
L 634.820376 183.56 
L 628.523197 184.6608 
L 628.523197 180.36 
L 622.226019 181.461639 
L 622.226019 177 
L 609.631661 179.221017 
L 609.631661 176.913846 
L 597.037304 179.191304 
L 597.037304 176.823158 
L 590.740125 177.981239 
L 590.740125 165.426667 
L 571.848589 168.84 
L 565.551411 170.021538 
L 565.551411 164.548235 
L 552.957053 166.92 
L 552.957053 152.065263 
L 540.362696 154.347097 
L 540.362696 147.867692 
L 527.768339 150.157753 
L 527.768339 146.76 
L 515.173981 149.104186 
L 515.173981 145.574118 
L 502.579624 147.974458 
L 502.579624 144.301463 
L 483.688088 148.035949 
L 477.390909 149.344615 
L 477.390909 145.450909 
L 471.09373 146.76 
L 471.09373 138.587027 
L 464.796552 139.85589 
L 464.796552 135.56 
L 445.905016 139.455652 
L 433.310658 142.246567 
L 433.310658 137.596364 
L 427.01348 139.006154 
L 427.01348 134.16 
L 414.419122 137.005161 
L 401.824765 140.04 
L 395.527586 141.634576 
L 395.527586 130.844211 
L 389.230408 132.36 
L 389.230408 126.6 
L 376.63605 129.643019 
L 364.041693 132.924706 
L 364.041693 126.6 
L 351.447335 129.96 
L 338.852978 133.612174 
L 326.258621 137.596364 
L 326.258621 122.76 
L 313.664263 126.6 
L 313.664263 118.329231 
L 301.069906 122.241081 
L 301.069906 113.16 
L 288.475549 117.112941 
L 282.17837 119.269091 
L 275.881191 121.56 
L 275.881191 87.670345 
L 263.286834 90.76 
L 256.989655 92.483077 
L 250.692476 94.344 
L 250.692476 79.56 
L 244.395298 81.02087 
L 238.098119 82.614545 
L 231.80094 84.36 
L 225.503762 86.28 
L 219.206583 88.402105 
L 212.909404 90.76 
L 206.612226 93.395294 
L 200.315047 96.36 
L 194.017868 99.72 
L 187.72069 103.56 
L 187.72069 76.975385 
L 181.423511 79.56 
L 175.126332 82.614545 
L 168.829154 86.28 
L 168.829154 45.96 
L 112.154545 45.96 
L 112.154545 45.96 
" clip-path="url(#pb57046d9d4)" style="fill: none; stroke: #9ac9db; stroke-width: 2; stroke-linecap: square"/>
   </g>
   <g id="line2d_15">
    <path d="M 1025.245455 353.736 
L 1025.245455 343.719116 
L 1018.815237 344.268487 
L 1018.815237 336.583366 
L 1012.385019 337.16 
L 1012.385019 334.892794 
L 1005.954802 335.478864 
L 1005.954802 331.418824 
L 999.524584 332.019789 
L 999.524584 327.138947 
L 993.094366 327.756923 
L 993.094366 326.95115 
L 986.664149 327.574191 
L 986.664149 319.218768 
L 980.233931 319.867838 
L 980.233931 317.681739 
L 973.803713 318.339661 
L 973.803713 314.088 
L 967.373496 314.76 
L 967.373496 304.616604 
L 960.943278 305.315676 
L 960.943278 300.908189 
L 954.51306 301.620335 
L 954.51306 301.207059 
L 948.082843 301.924045 
L 948.082843 299.4 
L 941.652625 300.126189 
L 941.652625 296.629795 
L 935.222407 297.367059 
L 935.222407 283.744615 
L 928.79219 284.509196 
L 928.79219 283.978065 
L 922.361972 284.74835 
L 922.361972 270.275493 
L 915.931754 271.068127 
L 915.931754 268.514839 
L 909.501536 269.315396 
L 909.501536 266.021538 
L 903.071319 266.830588 
L 903.071319 266.157786 
L 890.210883 267.794944 
L 890.210883 266.436404 
L 883.780666 267.265263 
L 883.780666 260.895409 
L 877.350448 261.735 
L 877.350448 259.512569 
L 870.92023 260.36 
L 870.92023 258.085301 
L 858.059795 259.802915 
L 858.059795 258.257143 
L 851.629577 259.127213 
L 851.629577 258.345185 
L 845.19936 259.22281 
L 845.19936 257.64 
L 838.769142 258.52569 
L 838.769142 256.916962 
L 832.338924 257.810847 
L 832.338924 256.996596 
L 825.908707 257.898462 
L 825.908707 251.128142 
L 819.478489 252.04 
L 819.478489 251.16 
L 806.618054 253.008649 
L 806.618054 251.225455 
L 800.187836 252.16274 
L 800.187836 249.426667 
L 787.327401 251.328224 
L 787.327401 247.56 
L 774.466965 249.498462 
L 774.466965 246.576585 
L 748.746095 250.568955 
L 748.746095 249.576 
L 742.315877 250.599196 
L 742.315877 248.58335 
L 729.455442 250.661538 
L 729.455442 249.638351 
L 723.025224 250.693679 
L 723.025224 244.325775 
L 716.595006 245.392258 
L 716.595006 243.177391 
L 710.164789 244.255082 
L 710.164789 241.990939 
L 697.304353 244.181229 
L 697.304353 241.865085 
L 678.0137 245.242759 
L 678.0137 244.064046 
L 671.583483 245.215814 
L 671.583483 244.023158 
L 652.29283 247.56 
L 652.29283 245.131084 
L 645.862612 246.338182 
L 645.862612 241.29913 
L 633.002177 243.756226 
L 633.002177 238.455484 
L 620.141741 240.971765 
L 620.141741 239.602105 
L 613.711524 240.884503 
L 613.711524 236.662703 
L 607.281306 237.96 
L 607.281306 220.877647 
L 587.990653 224.823158 
L 587.990653 221.398168 
L 581.560435 222.747692 
L 581.560435 220.992558 
L 575.130218 222.36 
L 575.130218 220.574173 
L 562.269782 223.368 
L 562.269782 221.547097 
L 542.979129 225.900496 
L 542.979129 222.148235 
L 523.688476 226.704828 
L 510.828041 229.875789 
L 510.828041 227.935221 
L 491.537388 232.898182 
L 491.537388 228.893333 
L 485.10717 230.602991 
L 485.10717 228.541132 
L 478.676953 230.28 
L 478.676953 228.175385 
L 472.246735 229.944466 
L 472.246735 227.795294 
L 452.956082 233.305455 
L 452.956082 231.102857 
L 446.525864 233.011546 
L 446.525864 228.461053 
L 440.095647 230.402553 
L 440.095647 228.050323 
L 427.235211 232.052308 
L 427.235211 224.650909 
L 414.374776 228.806512 
L 414.374776 226.214118 
L 407.944558 228.36 
L 407.944558 222.974634 
L 401.514341 225.16 
L 401.514341 216.544615 
L 388.653905 221.033684 
L 388.653905 214.868108 
L 375.79347 219.56 
L 375.79347 206.054118 
L 362.933035 210.905455 
L 350.072599 216.06 
L 337.212164 221.547097 
L 337.212164 213.96 
L 330.781946 216.807458 
L 330.781946 199.909091 
L 317.921511 205.718491 
L 317.921511 196.171765 
L 305.061076 202.302857 
L 298.630858 205.56 
L 298.630858 189.32 
L 292.20064 192.578182 
L 292.20064 186.611163 
L 285.770423 189.96 
L 285.770423 183.638049 
L 279.340205 187.08 
L 279.340205 165.83027 
L 272.909987 169.16 
L 266.47977 172.68 
L 266.47977 164.548235 
L 260.049552 168.141818 
L 253.619334 171.96 
L 253.619334 153.48 
L 247.189117 157.187586 
L 240.758899 161.16 
L 240.758899 150.493333 
L 234.328681 154.513846 
L 227.898464 158.856 
L 227.898464 146.76 
L 221.468246 151.142609 
L 215.038028 155.923636 
L 215.038028 141.96 
L 208.60781 146.76 
L 208.60781 130.844211 
L 202.177593 135.56 
L 202.177593 117.112941 
L 195.747375 121.56 
L 189.317157 126.6 
L 182.88694 132.36 
L 176.456722 139.006154 
L 176.456722 113.16 
L 170.026504 119.269091 
L 163.596287 126.6 
L 157.166069 135.56 
L 150.735851 146.76 
L 150.735851 45.96 
L 112.154545 45.96 
L 112.154545 45.96 
" clip-path="url(#pb57046d9d4)" style="fill: none; stroke: #f8ac8c; stroke-width: 2; stroke-linecap: square"/>
   </g>
   <g id="line2d_16">
    <path d="M 1025.245455 402.792 
L 1025.245455 397.544416 
L 1012.012253 398.197918 
L 1012.012253 398.103017 
L 1012.012253 353.96 
L 998.779051 355.033171 
L 998.779051 344.857297 
L 985.54585 346.015814 
L 985.54585 333.45913 
L 972.312648 334.714585 
L 972.312648 323.16 
L 959.079447 324.49913 
L 959.079447 294.64024 
L 945.846245 296.138313 
L 945.846245 293.321963 
L 932.613043 294.848889 
L 932.613043 281.385503 
L 919.379842 282.976216 
L 919.379842 252.3984 
L 906.14664 254.063226 
L 906.14664 249.226116 
L 892.913439 250.92 
L 892.913439 240.486316 
L 879.680237 242.207788 
L 879.680237 232.626667 
L 866.447036 234.371215 
L 866.447036 217.014545 
L 853.213834 218.76 
L 853.213834 216.384742 
L 839.980632 218.16 
L 839.980632 191.299535 
L 826.747431 193.009412 
L 826.747431 189.96 
L 813.514229 191.69494 
L 813.514229 188.555122 
L 787.047826 192.12 
L 787.047826 174.984 
L 760.581423 178.518904 
L 734.11502 182.252958 
L 720.881818 184.2 
L 720.881818 168.141818 
L 707.648617 170.021538 
L 707.648617 165.66 
L 694.415415 167.56 
L 694.415415 120.626667 
L 667.949012 123.498462 
L 641.482609 126.6 
L 641.482609 120.017143 
L 615.016206 123.168511 
L 601.783004 124.846957 
L 601.783004 117.64 
L 588.549802 119.269091 
L 588.549802 86.28 
L 575.316601 87.313846 
L 575.316601 77.791579 
L 548.850198 79.56 
L 535.616996 80.52 
L 535.616996 69.677647 
L 509.150593 71.16 
L 495.917391 71.972903 
L 495.917391 59.4 
L 456.217787 60.893333 
L 429.751383 62.088 
L 403.28498 63.490435 
L 376.818577 65.16 
L 350.352174 67.181053 
L 337.118972 68.36 
L 323.885771 69.677647 
L 310.652569 71.16 
L 297.419368 72.84 
L 284.186166 74.76 
L 270.952964 76.975385 
L 257.719763 79.56 
L 244.486561 82.614545 
L 244.486561 45.96 
L 112.154545 45.96 
L 112.154545 45.96 
" clip-path="url(#pb57046d9d4)" style="fill: none; stroke: #c82423; stroke-width: 2; stroke-linecap: square"/>
   </g>
   <g id="line2d_17">
    <path d="M 1025.245455 406.824 
L 1025.245455 388.390622 
L 1010.751948 389.211799 
L 1010.751948 374.76 
L 996.258442 375.741493 
L 996.258442 370.075756 
L 981.764935 371.12129 
L 981.764935 369.05404 
L 967.271429 370.127442 
L 967.271429 359.050909 
L 952.777922 360.241369 
L 952.777922 358.868108 
L 938.284416 360.08093 
L 938.284416 357.2304 
L 923.790909 358.480482 
L 923.790909 354.289412 
L 909.297403 355.59038 
L 909.297403 352.742609 
L 894.803896 354.082271 
L 894.803896 353.665263 
L 851.323377 357.768 
L 851.323377 356.532973 
L 836.82987 357.938281 
L 836.82987 348.36 
L 822.336364 349.879598 
L 822.336364 349.378182 
L 807.842857 350.918376 
L 807.842857 348.88228 
L 793.349351 350.46 
L 793.349351 340.872 
L 778.855844 342.566897 
L 778.855844 341.950751 
L 764.362338 343.671628 
L 764.362338 341.799053 
L 749.868831 343.56 
L 749.868831 342.287711 
L 735.375325 344.083636 
L 735.375325 342.794356 
L 706.388312 346.481739 
L 706.388312 343.865732 
L 691.894805 345.775385 
L 691.894805 340.187027 
L 677.401299 342.188571 
L 677.401299 340.713103 
L 662.907792 342.76 
L 662.907792 338.133913 
L 633.920779 342.430588 
L 633.920779 341.64 
L 619.427273 343.846567 
L 619.427273 337.16 
L 590.44026 341.856774 
L 590.44026 329.28973 
L 575.946753 331.865455 
L 575.946753 327.439245 
L 561.453247 330.12 
L 561.453247 310.28 
L 546.95974 313.249888 
L 546.95974 308.508837 
L 532.466234 311.597647 
L 532.466234 309.96 
L 503.479221 316.399024 
L 503.479221 313.08 
L 488.985714 316.461266 
L 488.985714 301.509296 
L 474.492208 305.16 
L 474.492208 303.073043 
L 445.505195 310.74806 
L 445.505195 306.489231 
L 431.011688 310.56 
L 431.011688 287.88 
L 416.518182 292.36 
L 416.518182 252.248372 
L 402.024675 257.16 
L 402.024675 225.16 
L 387.531169 230.28 
L 387.531169 184.994483 
L 373.037662 189.96 
L 358.544156 195.293333 
L 344.050649 201.036923 
L 344.050649 191.112 
L 329.557143 197.16 
L 315.063636 203.733913 
L 300.57013 210.905455 
L 286.076623 218.76 
L 286.076623 180.36 
L 271.583117 188.265882 
L 271.583117 171.96 
L 257.08961 180.36 
L 242.596104 189.96 
L 228.102597 201.036923 
L 213.609091 213.96 
L 213.609091 192.578182 
L 199.115584 207.24 
L 199.115584 180.36 
L 184.622078 197.16 
L 184.622078 113.16 
L 170.128571 126.6 
L 155.635065 146.76 
L 155.635065 45.96 
L 112.154545 45.96 
L 112.154545 45.96 
" clip-path="url(#pb57046d9d4)" style="fill: none; stroke: #ff8884; stroke-width: 2; stroke-linecap: square"/>
   </g>
   <g id="line2d_18">
    <path d="M 1025.245455 426.312 
L 1025.245455 415.311111 
L 998.38984 416.225347 
L 998.38984 416.143623 
L 998.38984 410.140645 
L 971.534225 411.211765 
L 971.534225 409.090435 
L 944.67861 410.221682 
L 944.67861 405.76 
L 917.822995 407.013659 
L 917.822995 387.758985 
L 890.96738 389.502857 
L 890.96738 387.941152 
L 837.25615 391.56 
L 837.25615 359.189752 
L 810.400535 361.8 
L 810.400535 347.381359 
L 756.689305 353.350099 
L 756.689305 342.821538 
L 729.83369 346.12 
L 729.83369 342.566897 
L 702.978075 346.015814 
L 702.978075 329.28973 
L 649.266845 337.16 
L 649.266845 335.582535 
L 622.41123 339.72 
L 622.41123 329.46 
L 595.555615 333.96 
L 595.555615 287.88 
L 568.7 293.378182 
L 568.7 285.96 
L 541.844385 291.813659 
L 541.844385 287.88 
L 514.98877 294.083077 
L 514.98877 276.36 
L 488.133155 283.136471 
L 461.27754 290.323636 
L 461.27754 261.96 
L 434.421925 269.96 
L 434.421925 247.56 
L 407.56631 256.325217 
L 407.56631 227.4 
L 380.710695 236.949474 
L 353.85508 247.56 
L 353.85508 222.36 
L 326.999465 234.12 
L 326.999465 201.036923 
L 300.14385 213.96 
L 273.288235 229.232727 
L 273.288235 207.24 
L 246.43262 225.16 
L 219.577005 247.56 
L 192.72139 276.36 
L 165.865775 314.76 
L 139.01016 368.52 
L 139.01016 247.56 
L 112.154545 449.16 
L 112.154545 45.96 
L 112.154545 45.96 
" clip-path="url(#pb57046d9d4)" style="fill: none; stroke: #c497b2; stroke-width: 2; stroke-linecap: square"/>
   </g>
   <g id="line2d_19">
    <path d="M 1025.245455 377.144 
L 1025.245455 375.402504 
L 1023.825406 375.496255 
L 1023.825406 375.391291 
L 1023.825406 362.208572 
L 1022.405358 362.314839 
L 1022.405358 362.227205 
L 1022.405358 356.558352 
L 1020.98531 356.669677 
L 1020.98531 356.570118 
L 1020.98531 355.392558 
L 1019.565262 355.505038 
L 1019.565262 355.402795 
L 1019.565262 353.059739 
L 1016.725166 353.217378 
L 1016.725166 353.181525 
L 1016.725166 353.109738 
L 1015.305118 353.224646 
L 1015.305118 353.116854 
L 1015.305118 350.908966 
L 1013.88507 351.025849 
L 1013.88507 350.950564 
L 1013.88507 348.399669 
L 1012.465022 348.51874 
L 1012.465022 348.439433 
L 1012.465022 347.840618 
L 1011.044974 347.960317 
L 1011.044974 347.88 
L 1011.044974 345.955148 
L 1009.624926 346.076505 
L 1009.624926 345.993036 
L 1009.624926 345.825693 
L 1008.204878 345.947343 
L 1008.204878 345.863532 
L 1008.204878 344.503809 
L 1006.78483 344.626667 
L 1006.78483 344.54056 
L 1006.78483 340.513293 
L 1005.364782 340.639332 
L 1005.364782 340.546381 
L 1005.364782 340.266569 
L 1003.944733 340.39299 
L 1003.944733 340.299467 
L 1003.944733 338.877073 
L 1002.524685 339.004706 
L 1002.524685 338.908626 
L 1002.524685 338.812379 
L 1001.104637 338.940262 
L 1001.104637 338.843916 
L 1001.104637 337.871111 
L 999.684589 337.999876 
L 999.684589 337.901722 
L 999.684589 335.184423 
L 998.264541 335.315294 
L 998.264541 335.212174 
L 998.264541 333.907229 
L 996.844493 334.039193 
L 996.844493 333.933578 
L 996.844493 332.54273 
L 995.424445 332.675838 
L 995.424445 332.567531 
L 995.424445 331.858597 
L 994.004397 331.992382 
L 994.004397 331.882623 
L 994.004397 331.496842 
L 991.164301 331.654915 
L 991.164301 331.32204 
L 988.324205 331.48053 
L 988.324205 331.033504 
L 986.904157 331.168931 
L 986.904157 331.112852 
L 986.904157 330.718798 
L 984.064061 330.990644 
L 984.064061 330.934212 
L 984.064061 330.594483 
L 982.644012 330.730867 
L 982.644012 330.674094 
L 982.644012 329.642785 
L 981.223964 329.780029 
L 981.223964 329.722246 
L 981.223964 329.664407 
L 979.803916 329.80186 
L 979.803916 329.744004 
L 979.803916 329.453878 
L 976.96382 329.72965 
L 976.96382 329.671533 
L 976.96382 329.263125 
L 975.543772 329.401524 
L 975.543772 329.342991 
L 975.543772 328.219891 
L 974.123724 328.35921 
L 974.123724 328.299556 
L 974.123724 328.060346 
L 972.703676 328.2 
L 972.703676 328.140089 
L 972.703676 328.020089 
L 969.86358 328.30005 
L 969.86358 328.24004 
L 969.86358 327.454453 
L 968.443532 327.5952 
L 968.443532 327.534387 
L 968.443532 326.799859 
L 967.023484 326.941269 
L 967.023484 326.879698 
L 967.023484 325.886054 
L 965.603436 326.028293 
L 965.603436 325.965694 
L 965.603436 324.764107 
L 964.183388 324.907304 
L 964.183388 324.843453 
L 964.183388 324.394657 
L 962.763339 324.538328 
L 962.763339 324.473991 
L 962.763339 323.37 
L 961.343291 323.51456 
L 961.343291 323.449051 
L 961.343291 323.383474 
L 959.923243 323.528267 
L 959.923243 323.462663 
L 959.923243 323.396991 
L 958.503195 323.542018 
L 958.503195 323.476318 
L 958.503195 322.348813 
L 957.083147 322.494741 
L 957.083147 322.427829 
L 957.083147 322.024865 
L 955.663099 322.171241 
L 955.663099 322.103873 
L 955.663099 322.036433 
L 954.243051 322.183048 
L 954.243051 322.115579 
L 954.243051 321.912741 
L 952.823003 322.059681 
L 952.823003 321.991966 
L 952.823003 319.645947 
L 951.402955 319.794528 
L 951.402955 319.724259 
L 951.402955 318.875036 
L 949.982907 319.024333 
L 949.982907 318.953103 
L 949.982907 317.43907 
L 948.562859 317.589474 
L 948.562859 317.516541 
L 948.562859 317.443527 
L 947.142811 317.594184 
L 947.142811 317.521133 
L 947.142811 317.154655 
L 945.722763 317.305738 
L 945.722763 317.232241 
L 945.722763 317.085 
L 944.302715 317.236382 
L 944.302715 317.162682 
L 944.302715 316.570101 
L 942.882666 316.722044 
L 942.882666 316.64764 
L 942.882666 316.573153 
L 941.462618 316.725354 
L 941.462618 316.650827 
L 941.462618 316.576216 
L 940.04257 316.728676 
L 940.04257 316.654025 
L 940.04257 315.295763 
L 937.202474 315.602873 
L 937.202474 315.526686 
L 937.202474 315.067728 
L 935.782426 315.221856 
L 935.782426 315.1451 
L 935.782426 314.294948 
L 934.362378 314.449786 
L 934.362378 314.372009 
L 934.362378 313.115245 
L 932.94233 313.27102 
L 932.94233 313.191739 
L 932.94233 312.714098 
L 931.522282 312.870369 
L 931.522282 312.790481 
L 931.522282 310.017416 
L 930.102234 310.17544 
L 930.102234 310.092216 
L 930.102234 310.008892 
L 928.682186 310.167194 
L 928.682186 310.083815 
L 928.682186 310.000336 
L 927.262138 310.158919 
L 927.262138 310.075385 
L 927.262138 309.908014 
L 925.84209 310.066924 
L 925.84209 309.983133 
L 925.84209 308.714043 
L 924.422042 308.873869 
L 924.422042 308.788484 
L 924.422042 307.495135 
L 921.581945 307.729846 
L 921.581945 307.468261 
L 918.741849 307.703792 
L 918.741849 307.265576 
L 917.321801 307.427576 
L 917.321801 307.339653 
L 917.321801 306.721121 
L 915.901753 306.883691 
L 915.901753 306.794934 
L 915.901753 305.901243 
L 914.481705 306.064523 
L 914.481705 305.974582 
L 914.481705 305.884528 
L 913.061657 306.048106 
L 913.061657 305.957985 
L 913.061657 304.776 
L 908.801513 305.269924 
L 908.801513 305.178332 
L 908.801513 303.976945 
L 907.381465 304.142659 
L 907.381465 304.04946 
L 907.381465 303.393699 
L 905.961417 303.56 
L 905.961417 303.465882 
L 905.961417 303.371643 
L 901.701272 303.777899 
L 901.701272 303.114919 
L 898.861176 303.450411 
L 898.861176 303.3553 
L 898.861176 302.397319 
L 897.441128 302.565917 
L 897.441128 302.469474 
L 897.441128 302.276206 
L 896.02108 302.445168 
L 896.02108 302.348391 
L 896.02108 301.471612 
L 893.180984 301.811163 
L 893.180984 301.713191 
L 893.180984 301.61509 
L 891.760936 301.7853 
L 891.760936 301.687115 
L 891.760936 301.095251 
L 890.340888 301.266024 
L 890.340888 301.166966 
L 890.340888 300.569818 
L 888.92084 300.741157 
L 888.92084 300.641212 
L 888.92084 300.440917 
L 887.500792 300.612632 
L 887.500792 300.51233 
L 887.500792 300.210609 
L 884.660696 300.555122 
L 884.660696 300.454373 
L 884.660696 299.948571 
L 880.400551 300.467975 
L 880.400551 300.366548 
L 880.400551 300.061435 
L 877.560455 300.307397 
L 877.560455 298.658061 
L 876.140407 298.833181 
L 876.140407 298.728932 
L 876.140407 298.415316 
L 874.720359 298.590876 
L 874.720359 298.486096 
L 874.720359 298.065513 
L 873.300311 298.241564 
L 873.300311 298.136101 
L 873.300311 296.751537 
L 871.880263 296.928525 
L 871.880263 296.821017 
L 871.880263 296.172766 
L 870.460215 296.350348 
L 870.460215 296.241818 
L 870.460215 295.915302 
L 869.040167 296.093333 
L 869.040167 295.984234 
L 869.040167 295.874979 
L 867.620119 296.053362 
L 867.620119 295.944 
L 867.620119 294.396364 
L 866.200071 294.57574 
L 866.200071 294.464046 
L 866.200071 293.903147 
L 864.780023 294.083077 
L 864.780023 293.631616 
L 861.939926 293.992653 
L 861.939926 293.879475 
L 860.519878 294.060438 
L 860.519878 293.720059 
L 859.09983 293.901435 
L 859.09983 293.559707 
L 857.679782 293.741498 
L 857.679782 293.627303 
L 851.99959 294.357347 
L 851.99959 294.128856 
L 850.579542 294.312142 
L 850.579542 294.083077 
L 849.159494 294.266736 
L 849.159494 293.691352 
L 846.319398 294.06 
L 846.319398 293.597015 
L 844.89935 293.781957 
L 844.89935 293.082581 
L 843.479302 293.268108 
L 843.479302 292.207619 
L 842.059253 292.393888 
L 842.059253 291.559392 
L 839.219157 291.933496 
L 839.219157 289.254191 
L 834.959013 289.82087 
L 834.959013 289.573064 
L 833.538965 289.762646 
L 833.538965 289.014887 
L 832.118917 289.20507 
L 832.118917 288.576811 
L 825.018677 289.533502 
L 825.018677 289.407514 
L 822.178581 289.792411 
L 822.178581 289.666329 
L 820.758532 289.859287 
L 820.758532 288.331223 
L 819.338484 288.52512 
L 819.338484 287.88 
L 817.918436 288.074469 
L 817.918436 287.815072 
L 816.498388 288.00996 
L 816.498388 287.48886 
L 815.07834 287.684272 
L 815.07834 287.553522 
L 813.658292 287.749303 
L 813.658292 287.618394 
L 812.238244 287.814545 
L 812.238244 287.683477 
L 810.818196 287.88 
L 810.818196 286.956893 
L 809.398148 287.154108 
L 809.398148 284.595411 
L 805.138004 285.192 
L 805.138004 284.229908 
L 803.717956 284.429799 
L 803.717956 282.754576 
L 802.297908 282.95542 
L 802.297908 282.814329 
L 800.877859 283.015565 
L 800.877859 282.16427 
L 799.457811 282.366154 
L 799.457811 281.217831 
L 798.037763 281.420465 
L 798.037763 281.275862 
L 796.617715 281.478896 
L 796.617715 280.01953 
L 795.197667 280.223415 
L 795.197667 279.780786 
L 792.357571 280.189921 
L 792.357571 279.893742 
L 790.937523 280.098947 
L 790.937523 279.950518 
L 788.097427 280.362111 
L 788.097427 278.409822 
L 786.677379 278.616812 
L 786.677379 278.464813 
L 785.257331 278.672221 
L 785.257331 278.214741 
L 783.837283 278.422668 
L 783.837283 277.500594 
L 782.417235 277.709189 
L 782.417235 277.399711 
L 780.997186 277.60878 
L 780.997186 277.453671 
L 779.577138 277.663167 
L 779.577138 277.352203 
L 778.15709 277.562178 
L 778.15709 277.406322 
L 776.737042 277.616727 
L 776.737042 276.990657 
L 775.316994 277.201644 
L 775.316994 276.729231 
L 773.896946 276.940752 
L 773.896946 276.782752 
L 772.476898 276.994711 
L 772.476898 276.677939 
L 771.05685 276.890387 
L 771.05685 276.25353 
L 768.216754 276.68 
L 768.216754 275.877767 
L 766.796706 276.091844 
L 766.796706 274.956439 
L 762.536562 275.602105 
L 762.536562 274.121517 
L 761.116514 274.337989 
L 761.116514 274.005627 
L 759.696465 274.222607 
L 759.696465 274.056 
L 756.856369 274.491298 
L 756.856369 274.157323 
L 755.436321 274.375694 
L 755.436321 272.686957 
L 754.016273 272.906228 
L 754.016273 271.011026 
L 749.756129 271.672941 
L 749.756129 270.974173 
L 746.916033 271.417988 
L 746.916033 270.714059 
L 744.075937 271.16 
L 744.075937 270.450837 
L 739.815792 271.123636 
L 739.815792 270.22988 
L 738.395744 270.455276 
L 738.395744 270.095347 
L 735.555648 270.547689 
L 735.555648 270.367273 
L 734.1356 270.594176 
L 734.1356 270.413441 
L 731.295504 270.868722 
L 731.295504 270.687716 
L 728.455408 271.144944 
L 728.455408 270.234847 
L 727.03536 270.464401 
L 727.03536 269.174845 
L 725.615312 269.405201 
L 725.615312 268.472863 
L 724.195264 268.703925 
L 724.195264 267.001509 
L 722.775216 267.233452 
L 722.775216 266.850852 
L 721.355168 267.083368 
L 721.355168 266.699241 
L 719.935119 266.932334 
L 719.935119 264.790769 
L 717.095023 265.259358 
L 717.095023 263.87068 
L 714.254927 264.341838 
L 714.254927 263.740477 
L 709.994783 264.451404 
L 709.994783 264.04855 
L 708.574735 264.286638 
L 708.574735 262.86297 
L 707.154687 263.10185 
L 707.154687 262.691126 
L 705.734639 262.930608 
L 705.734639 262.51814 
L 704.314591 262.758226 
L 704.314591 261.927929 
L 700.054446 262.651844 
L 700.054446 262.443221 
L 698.634398 262.685644 
L 698.634398 262.267071 
L 695.794302 262.753701 
L 695.794302 262.333393 
L 694.374254 262.577607 
L 694.374254 262.36678 
L 692.954206 262.611584 
L 692.954206 262.400317 
L 691.534158 262.645714 
L 691.534158 262.221818 
L 690.11411 262.46785 
L 690.11411 262.042098 
L 688.694062 262.288767 
L 688.694062 261.43156 
L 687.274014 261.678944 
L 687.274014 259.501463 
L 685.853966 259.749767 
L 685.853966 259.529267 
L 684.433918 259.778182 
L 684.433918 258.668089 
L 683.01387 258.917746 
L 683.01387 258.694195 
L 680.173774 259.195336 
L 680.173774 258.971321 
L 677.333677 259.474894 
L 677.333677 258.573777 
L 675.913629 258.826587 
L 675.913629 258.6 
L 674.493581 258.853445 
L 674.493581 258.39871 
L 671.653485 258.907545 
L 671.653485 258.679424 
L 668.813389 259.190769 
L 668.813389 258.042225 
L 663.133197 259.073001 
L 663.133197 258.841752 
L 661.713149 259.101048 
L 661.713149 258.869268 
L 658.873052 259.389829 
L 658.873052 259.157552 
L 657.453004 259.418824 
L 657.453004 258.718672 
L 654.612908 259.243354 
L 654.612908 259.008889 
L 651.772812 259.536238 
L 651.772812 259.301264 
L 650.352764 259.565955 
L 650.352764 259.330435 
L 647.512668 259.861868 
L 647.512668 259.625835 
L 644.672572 260.16 
L 644.672572 259.686316 
L 643.252524 259.954479 
L 643.252524 259.000101 
L 641.832476 259.269091 
L 641.832476 258.788354 
L 640.412428 259.058099 
L 640.412428 256.617766 
L 638.992379 256.888535 
L 638.992379 255.644864 
L 636.152283 256.188794 
L 636.152283 255.686918 
L 634.732235 255.96 
L 634.732235 253.411187 
L 633.312187 253.685231 
L 633.312187 253.167417 
L 631.892139 253.442228 
L 631.892139 253.182311 
L 630.472091 253.457872 
L 630.472091 252.674019 
L 629.052043 252.950374 
L 629.052043 251.895484 
L 627.631995 252.172651 
L 627.631995 251.640972 
L 624.791899 252.197618 
L 624.791899 251.930732 
L 621.951803 252.490435 
L 621.951803 252.222857 
L 620.531755 252.503869 
L 620.531755 251.696799 
L 619.111706 251.97863 
L 619.111706 251.708148 
L 617.691658 251.990769 
L 617.691658 251.71956 
L 614.851562 252.287172 
L 614.851562 252.015249 
L 613.431514 252.300249 
L 613.431514 251.754175 
L 612.011466 252.04 
L 612.011466 251.765841 
L 610.591418 252.052479 
L 610.591418 251.225455 
L 609.17137 251.512941 
L 609.17137 251.235736 
L 607.751322 251.524045 
L 607.751322 251.246076 
L 604.911226 251.825162 
L 604.911226 251.266931 
L 602.07113 251.849362 
L 602.07113 251.006154 
L 600.651082 251.298659 
L 600.651082 251.016 
L 599.231034 251.309356 
L 599.231034 251.025903 
L 596.390937 251.615172 
L 596.390937 251.330935 
L 594.970889 251.626859 
L 594.970889 249.904186 
L 593.550841 250.201048 
L 593.550841 249.328421 
L 590.710745 249.924809 
L 590.710745 249.632247 
L 589.290697 249.931765 
L 589.290697 249.638351 
L 587.870649 249.938761 
L 587.870649 249.64449 
L 586.450601 249.945799 
L 586.450601 249.650667 
L 585.030553 249.952878 
L 585.030553 248.163593 
L 583.610505 248.466747 
L 583.610505 246.950937 
L 576.510264 248.480548 
L 576.510264 247.867786 
L 575.090216 248.176514 
L 575.090216 247.56 
L 573.670168 247.869677 
L 573.670168 246.937778 
L 572.25012 247.248408 
L 572.25012 246.307826 
L 570.830072 246.619409 
L 570.830072 245.987457 
L 565.14988 247.243516 
L 565.14988 244.675421 
L 563.729832 244.991847 
L 563.729832 244.339553 
L 562.309784 244.65696 
L 562.309784 242.005381 
L 560.889736 242.323636 
L 560.889736 239.946207 
L 558.049639 240.585371 
L 558.049639 239.895868 
L 555.209543 240.539104 
L 555.209543 238.442412 
L 553.789495 238.765369 
L 553.789495 237.700978 
L 552.369447 238.024865 
L 552.369447 236.588571 
L 549.529351 237.239181 
L 549.529351 236.876923 
L 548.109303 237.203836 
L 548.109303 236.475464 
L 546.689255 236.803373 
L 546.689255 236.437241 
L 545.269207 236.766218 
L 545.269207 235.66 
L 542.429111 236.320976 
L 542.429111 233.31265 
L 541.009063 233.644248 
L 541.009063 232.107594 
L 536.748918 233.108387 
L 536.748918 232.720503 
L 533.908822 233.393514 
L 533.908822 232.613165 
L 532.488774 232.951304 
L 532.488774 230.575385 
L 525.388534 232.281627 
L 525.388534 231.88 
L 522.548438 232.571152 
L 522.548438 231.762985 
L 518.288294 232.80878 
L 518.288294 231.172854 
L 516.868245 231.523636 
L 516.868245 231.110664 
L 515.448197 231.462662 
L 515.448197 229.373436 
L 511.188053 230.435676 
L 511.188053 228.733541 
L 508.347957 229.4475 
L 508.347957 229.017534 
L 504.087813 230.098583 
L 504.087813 229.232727 
L 501.247717 229.96 
L 501.247717 227.763607 
L 498.407621 228.495211 
L 498.407621 228.050323 
L 495.567524 228.78753 
L 495.567524 226.534233 
L 494.147476 226.904262 
L 494.147476 225.98963 
L 492.727428 226.360825 
L 492.727428 225.438261 
L 488.467284 226.56 
L 488.467284 223.742278 
L 487.047236 224.11814 
L 487.047236 223.162548 
L 485.627188 223.539574 
L 485.627188 222.090193 
L 482.787092 222.847742 
L 482.787092 220.884078 
L 481.367044 221.264348 
L 481.367044 220.767843 
L 478.526948 221.532867 
L 478.526948 220.028722 
L 474.266803 221.186608 
L 474.266803 220.68 
L 472.846755 221.069131 
L 472.846755 219.018876 
L 471.426707 219.408649 
L 471.426707 218.890023 
L 470.006659 219.281267 
L 470.006659 218.76 
L 467.166563 219.547244 
L 467.166563 218.496384 
L 465.746515 218.89211 
L 465.746515 218.362759 
L 464.326467 218.76 
L 464.326467 218.227898 
L 462.906419 218.626667 
L 462.906419 218.091787 
L 461.486371 218.492093 
L 461.486371 217.954406 
L 458.646275 218.76 
L 458.646275 216.581277 
L 455.806178 217.391829 
L 455.806178 216.285537 
L 454.38613 216.693014 
L 454.38613 214.446957 
L 452.966082 214.854915 
L 452.966082 212.563423 
L 450.125986 213.382113 
L 450.125986 212.217778 
L 444.445794 213.876209 
L 444.445794 213.288 
L 443.025746 213.707368 
L 443.025746 211.923636 
L 441.605698 212.343797 
L 441.605698 211.138626 
L 440.18565 211.56 
L 440.18565 210.341538 
L 438.765602 210.764113 
L 438.765602 208.287273 
L 434.505457 209.562094 
L 434.505457 208.933228 
L 431.665361 209.793245 
L 431.665361 209.16 
L 427.405217 210.4656 
L 427.405217 209.82738 
L 425.985169 210.266702 
L 425.985169 209.624516 
L 424.565121 210.06566 
L 424.565121 208.116522 
L 420.304977 209.449315 
L 420.304977 208.790769 
L 418.884929 209.239339 
L 418.884929 208.576575 
L 416.044832 209.48 
L 416.044832 208.812368 
L 414.624784 209.267263 
L 414.624784 208.595294 
L 408.944592 210.438187 
L 408.944592 209.76 
L 407.524544 210.226667 
L 407.524544 209.544 
L 397.584208 212.882449 
L 397.584208 210.797647 
L 396.164159 211.283894 
L 396.164159 209.872166 
L 394.744111 210.36 
L 394.744111 209.647164 
L 391.904015 210.63027 
L 391.904015 209.189003 
L 389.063919 210.181277 
L 389.063919 209.452683 
L 387.643871 209.952661 
L 387.643871 207.737778 
L 386.223823 208.238638 
L 386.223823 205.98 
L 384.803775 206.48163 
L 384.803775 204.950536 
L 381.963679 205.96 
L 381.963679 202.037419 
L 377.703535 203.562606 
L 377.703535 199.496424 
L 373.44339 201.036923 
L 373.44339 197.672542 
L 372.023342 198.188571 
L 372.023342 196.469589 
L 370.603294 196.986804 
L 370.603294 196.117241 
L 369.183246 196.636817 
L 369.183246 189.447544 
L 367.763198 189.96 
L 367.763198 189.030968 
L 363.503054 190.586087 
L 363.503054 189.645818 
L 362.083006 190.170219 
L 362.083006 189.221538 
L 359.24291 190.278819 
L 359.24291 183.414545 
L 357.822862 183.937186 
L 357.822862 182.924885 
L 356.402814 183.449655 
L 356.402814 182.427692 
L 353.562717 183.485581 
L 353.562717 181.41 
L 349.302573 183.016126 
L 349.302573 179.8224 
L 345.042429 181.448259 
L 345.042429 180.36 
L 343.622381 180.908571 
L 343.622381 178.700741 
L 342.202333 179.249256 
L 342.202333 171.209362 
L 335.102092 173.932174 
L 335.102092 172.730306 
L 333.682044 173.286316 
L 333.682044 172.071013 
L 329.4219 173.76 
L 329.4219 172.525022 
L 328.001852 173.095135 
L 328.001852 169.313425 
L 326.581804 169.879266 
L 326.581804 168.592258 
L 325.161756 169.16 
L 325.161756 167.857674 
L 320.901612 169.582642 
L 320.901612 162.829565 
L 319.481564 163.396893 
L 319.481564 159.173793 
L 315.221419 160.872 
L 315.221419 159.423317 
L 312.381323 160.575228 
L 312.381323 159.102857 
L 310.961275 159.683077 
L 310.961275 158.190928 
L 308.121179 159.36 
L 308.121179 157.842723 
L 305.281083 159.026667 
L 305.281083 157.483404 
L 301.020939 159.291892 
L 301.020939 157.716522 
L 299.600891 158.327213 
L 299.600891 151.828156 
L 293.920698 154.248 
L 293.920698 150.838613 
L 292.50065 151.448372 
L 292.50065 149.707368 
L 291.080602 150.317647 
L 291.080602 146.76 
L 289.660554 147.363593 
L 289.660554 145.545542 
L 286.820458 146.76 
L 286.820458 144.904785 
L 285.40041 145.515556 
L 285.40041 139.786415 
L 282.560314 140.981656 
L 282.560314 137.005161 
L 279.720218 138.195294 
L 279.720218 134.076556 
L 275.460074 135.862703 
L 275.460074 133.731429 
L 271.199929 135.56 
L 271.199929 133.366993 
L 268.359833 134.606809 
L 268.359833 132.36 
L 264.099689 134.251971 
L 264.099689 131.936471 
L 261.259593 133.219701 
L 261.259593 128.432727 
L 259.839545 129.06229 
L 259.839545 126.6 
L 252.739304 129.8256 
L 252.739304 127.250323 
L 247.059112 129.96 
L 247.059112 127.277647 
L 244.219016 128.667692 
L 244.219016 125.904828 
L 238.538824 128.76 
L 232.858631 131.826667 
L 230.018535 133.446792 
L 230.018535 127.375385 
L 228.598487 128.165825 
L 228.598487 125.018824 
L 225.758391 126.6 
L 225.758391 123.341818 
L 220.078199 126.6 
L 217.238103 128.334194 
L 217.238103 124.846957 
L 211.55791 128.432727 
L 207.297766 131.343529 
L 203.037622 134.467317 
L 200.197526 136.68 
L 200.197526 124.505455 
L 195.937382 127.68973 
L 191.677237 131.143099 
L 188.837141 133.612174 
L 188.837141 128.971765 
L 184.576997 132.803077 
L 183.156949 134.16 
L 183.156949 129.16 
L 181.736901 130.501935 
L 181.736901 125.278033 
L 177.476757 129.38069 
L 174.636661 132.36 
L 173.216612 133.930909 
L 173.216612 122.035472 
L 171.796564 123.498462 
L 171.796564 103.56 
L 170.376516 104.76 
L 170.376516 97.43234 
L 167.53642 99.72 
L 164.696324 102.220465 
L 161.856228 104.964878 
L 161.856228 87.313846 
L 159.016132 89.549189 
L 156.176036 92.04 
L 156.176036 81.536471 
L 153.335939 83.76 
L 150.495843 86.28 
L 147.655747 89.16 
L 144.815651 92.483077 
L 141.975555 96.36 
L 141.975555 81.02087 
L 139.135459 84.36 
L 137.715411 86.28 
L 136.295363 88.402105 
L 134.875315 90.76 
L 133.455267 93.395294 
L 132.035218 96.36 
L 132.035218 72.84 
L 130.61517 74.76 
L 129.195122 76.975385 
L 127.775074 79.56 
L 126.355026 82.614545 
L 124.934978 86.28 
L 124.934978 45.96 
L 112.154545 45.96 
L 112.154545 45.96 
" clip-path="url(#pb57046d9d4)" style="fill: none; stroke-dasharray: 7.4,3.2; stroke-dashoffset: 0; stroke: #000000; stroke-width: 2"/>
   </g>
   <g id="patch_3">
    <path d="M 66.5 469.32 
L 66.5 25.8 
" style="fill: none; stroke: #000000; stroke-width: 0.8; stroke-linejoin: miter; stroke-linecap: square"/>
   </g>
   <g id="patch_4">
    <path d="M 1070.9 469.32 
L 1070.9 25.8 
" style="fill: none; stroke: #000000; stroke-width: 0.8; stroke-linejoin: miter; stroke-linecap: square"/>
   </g>
   <g id="patch_5">
    <path d="M 66.5 469.32 
L 1070.9 469.32 
" style="fill: none; stroke: #000000; stroke-width: 0.8; stroke-linejoin: miter; stroke-linecap: square"/>
   </g>
   <g id="patch_6">
    <path d="M 66.5 25.8 
L 1070.9 25.8 
" style="fill: none; stroke: #000000; stroke-width: 0.8; stroke-linejoin: miter; stroke-linecap: square"/>
   </g>
   <g id="text_15">
    <!-- Precision-Recall Curve -->
    <g transform="translate(410.3 19.8) scale(0.288 -0.288)">
     <defs>
      <path id="SimHei-2d" d="M 2975 2125 
L 125 2125 
L 125 2525 
L 2975 2525 
L 2975 2125 
z
" transform="scale(0.015625)"/>
      <path id="SimHei-20" transform="scale(0.015625)"/>
      <path id="SimHei-43" d="M 2975 1825 
Q 2950 875 2575 475 
Q 2200 75 1675 75 
Q 1075 75 650 562 
Q 225 1050 225 2125 
Q 225 3300 637 3875 
Q 1050 4450 1700 4450 
Q 2250 4450 2612 4037 
Q 2975 3625 2950 2875 
L 2400 2875 
Q 2400 3425 2225 3700 
Q 2050 3975 1700 3975 
Q 1300 3975 1062 3562 
Q 825 3150 825 2175 
Q 825 1275 1062 912 
Q 1300 550 1675 550 
Q 1950 550 2175 812 
Q 2400 1075 2400 1825 
L 2975 1825 
z
" transform="scale(0.015625)"/>
      <path id="SimHei-75" d="M 2800 125 
L 2300 125 
L 2300 650 
Q 2100 375 1862 225 
Q 1625 75 1250 75 
Q 800 75 575 325 
Q 350 575 350 950 
L 350 2925 
L 850 2925 
L 850 1125 
Q 850 825 1000 650 
Q 1150 475 1400 475 
Q 1725 475 2012 812 
Q 2300 1150 2300 1650 
L 2300 2925 
L 2800 2925 
L 2800 125 
z
" transform="scale(0.015625)"/>
      <path id="SimHei-76" d="M 2875 2925 
L 1825 75 
L 1275 75 
L 225 2925 
L 750 2925 
L 1525 750 
L 1575 750 
L 2350 2925 
L 2875 2925 
z
" transform="scale(0.015625)"/>
     </defs>
     <use xlink:href="#SimHei-50"/>
     <use xlink:href="#SimHei-72" x="50"/>
     <use xlink:href="#SimHei-65" x="100"/>
     <use xlink:href="#SimHei-63" x="150"/>
     <use xlink:href="#SimHei-69" x="200"/>
     <use xlink:href="#SimHei-73" x="250"/>
     <use xlink:href="#SimHei-69" x="300"/>
     <use xlink:href="#SimHei-6f" x="350"/>
     <use xlink:href="#SimHei-6e" x="400"/>
     <use xlink:href="#SimHei-2d" x="450"/>
     <use xlink:href="#SimHei-52" x="500"/>
     <use xlink:href="#SimHei-65" x="550"/>
     <use xlink:href="#SimHei-63" x="600"/>
     <use xlink:href="#SimHei-61" x="650"/>
     <use xlink:href="#SimHei-6c" x="700"/>
     <use xlink:href="#SimHei-6c" x="750"/>
     <use xlink:href="#SimHei-20" x="800"/>
     <use xlink:href="#SimHei-43" x="850"/>
     <use xlink:href="#SimHei-75" x="900"/>
     <use xlink:href="#SimHei-72" x="950"/>
     <use xlink:href="#SimHei-76" x="1000"/>
     <use xlink:href="#SimHei-65" x="1050"/>
    </g>
   </g>
   <g id="legend_1">
    <g id="patch_7">
     <path d="M 1097.744 300.2625 
L 1486.544 300.2625 
Q 1491.344 300.2625 1491.344 295.4625 
L 1491.344 42.6 
Q 1491.344 37.8 1486.544 37.8 
L 1097.744 37.8 
Q 1092.944 37.8 1092.944 42.6 
L 1092.944 295.4625 
Q 1092.944 300.2625 1097.744 300.2625 
z
" style="fill: #ffffff; opacity: 0.8; stroke: #cccccc; stroke-linejoin: miter"/>
    </g>
    <g id="text_16">
     <!-- all_classes mAP@0.5=0.5639 -->
     <g transform="translate(1136.144 64.275) scale(0.24 -0.24)">
      <defs>
       <path id="SimHei-5f" d="M 3150 -850 
L 0 -850 
L 0 -550 
L 3150 -550 
L 3150 -850 
z
" transform="scale(0.015625)"/>
       <path id="SimHei-6d" d="M 3050 125 
L 2550 125 
L 2550 2150 
Q 2550 2300 2500 2400 
Q 2450 2500 2300 2500 
Q 2125 2500 1975 2312 
Q 1825 2125 1825 1825 
L 1825 125 
L 1325 125 
L 1325 2150 
Q 1325 2300 1275 2400 
Q 1225 2500 1075 2500 
Q 900 2500 750 2312 
Q 600 2125 600 1825 
L 600 125 
L 100 125 
L 100 2925 
L 600 2925 
L 600 2550 
Q 725 2750 900 2862 
Q 1075 2975 1275 2975 
Q 1475 2975 1612 2862 
Q 1750 2750 1800 2550 
Q 1925 2750 2087 2862 
Q 2250 2975 2450 2975 
Q 2750 2975 2900 2812 
Q 3050 2650 3050 2350 
L 3050 125 
z
" transform="scale(0.015625)"/>
       <path id="SimHei-41" d="M 3075 125 
L 2475 125 
L 2125 1450 
L 1025 1450 
L 675 125 
L 75 125 
L 1325 4450 
L 1825 4450 
L 3075 125 
z
M 2000 1925 
L 1600 3450 
L 1550 3450 
L 1150 1925 
L 2000 1925 
z
" transform="scale(0.015625)"/>
       <path id="SimHei-40" d="M 3000 2650 
Q 3000 1725 2737 1375 
Q 2475 1025 2175 1025 
Q 2050 1025 1950 1100 
Q 1850 1175 1800 1325 
Q 1675 1175 1550 1100 
Q 1425 1025 1300 1025 
Q 1050 1025 875 1237 
Q 700 1450 700 1850 
Q 700 2525 1050 3050 
Q 1400 3575 1725 3575 
Q 1850 3575 1900 3550 
Q 1950 3525 2025 3375 
L 2150 3575 
L 2425 3575 
L 2075 1675 
Q 2050 1525 2100 1450 
Q 2150 1375 2250 1375 
Q 2525 1375 2637 1712 
Q 2750 2050 2750 2650 
Q 2750 3400 2462 3825 
Q 2175 4250 1700 4250 
Q 1175 4250 775 3737 
Q 375 3225 375 2175 
Q 375 1125 750 700 
Q 1125 275 1650 275 
Q 1850 275 2075 387 
Q 2300 500 2425 725 
L 2550 550 
Q 2400 350 2162 212 
Q 1925 75 1650 75 
Q 1025 75 575 562 
Q 125 1050 125 2175 
Q 125 3300 600 3875 
Q 1075 4450 1700 4450 
Q 2300 4450 2650 3950 
Q 3000 3450 3000 2650 
z
M 1950 2975 
Q 1975 3125 1925 3212 
Q 1875 3300 1750 3300 
Q 1550 3300 1325 2837 
Q 1100 2375 1100 1875 
Q 1100 1600 1187 1475 
Q 1275 1350 1400 1350 
Q 1550 1350 1625 1475 
Q 1700 1600 1725 1750 
L 1950 2975 
z
" transform="scale(0.015625)"/>
       <path id="SimHei-35" d="M 550 1325 
Q 725 650 1150 575 
Q 1575 500 1837 662 
Q 2100 825 2212 1087 
Q 2325 1350 2312 1675 
Q 2300 2000 2137 2225 
Q 1975 2450 1725 2525 
Q 1475 2600 1162 2525 
Q 850 2450 650 2175 
L 225 2225 
Q 275 2375 700 4375 
L 2675 4375 
L 2675 3925 
L 1075 3925 
Q 950 3250 825 2850 
Q 1200 3025 1525 3012 
Q 1850 3000 2150 2862 
Q 2450 2725 2587 2487 
Q 2725 2250 2787 2012 
Q 2850 1775 2837 1500 
Q 2825 1225 2725 937 
Q 2625 650 2425 462 
Q 2225 275 1937 162 
Q 1650 50 1275 75 
Q 900 100 562 350 
Q 225 600 100 1200 
L 550 1325 
z
" transform="scale(0.015625)"/>
       <path id="SimHei-3d" d="M 2975 2900 
L 125 2900 
L 125 3300 
L 2975 3300 
L 2975 2900 
z
M 2975 1375 
L 125 1375 
L 125 1775 
L 2975 1775 
L 2975 1375 
z
" transform="scale(0.015625)"/>
       <path id="SimHei-33" d="M 250 1225 
L 700 1300 
Q 800 975 1025 762 
Q 1250 550 1587 562 
Q 1925 575 2125 837 
Q 2325 1100 2300 1437 
Q 2275 1775 2037 1962 
Q 1800 2150 1275 2225 
L 1275 2550 
Q 1800 2600 2037 2825 
Q 2275 3050 2250 3412 
Q 2225 3775 1925 3937 
Q 1625 4100 1287 3975 
Q 950 3850 750 3275 
L 300 3350 
Q 450 3800 712 4100 
Q 975 4400 1425 4450 
Q 1875 4500 2212 4337 
Q 2550 4175 2687 3837 
Q 2825 3500 2725 3100 
Q 2625 2700 2150 2400 
Q 2500 2250 2687 1950 
Q 2875 1650 2812 1162 
Q 2750 675 2375 375 
Q 2000 75 1525 87 
Q 1050 100 700 387 
Q 350 675 250 1225 
z
" transform="scale(0.015625)"/>
       <path id="SimHei-39" d="M 800 75 
Q 1350 1000 1700 1750 
Q 1075 1650 662 1912 
Q 250 2175 162 2625 
Q 75 3075 175 3437 
Q 275 3800 487 4037 
Q 700 4275 1000 4375 
Q 1300 4475 1537 4475 
Q 1775 4475 2025 4375 
Q 2275 4275 2475 4075 
Q 2675 3875 2750 3662 
Q 2825 3450 2825 3112 
Q 2825 2775 2575 2250 
Q 2325 1725 1350 75 
L 800 75 
z
M 662 2875 
Q 700 2550 937 2337 
Q 1175 2125 1450 2150 
Q 1725 2175 1887 2300 
Q 2050 2425 2200 2725 
Q 2300 3100 2250 3362 
Q 2200 3625 1987 3800 
Q 1775 3975 1525 3975 
Q 1375 4000 1137 3900 
Q 900 3800 762 3500 
Q 625 3200 662 2875 
z
" transform="scale(0.015625)"/>
      </defs>
      <use xlink:href="#SimHei-61"/>
      <use xlink:href="#SimHei-6c" x="50"/>
      <use xlink:href="#SimHei-6c" x="100"/>
      <use xlink:href="#SimHei-5f" x="150"/>
      <use xlink:href="#SimHei-63" x="200"/>
      <use xlink:href="#SimHei-6c" x="250"/>
      <use xlink:href="#SimHei-61" x="300"/>
      <use xlink:href="#SimHei-73" x="350"/>
      <use xlink:href="#SimHei-73" x="400"/>
      <use xlink:href="#SimHei-65" x="450"/>
      <use xlink:href="#SimHei-73" x="500"/>
      <use xlink:href="#SimHei-20" x="550"/>
      <use xlink:href="#SimHei-6d" x="600"/>
      <use xlink:href="#SimHei-41" x="650"/>
      <use xlink:href="#SimHei-50" x="700"/>
      <use xlink:href="#SimHei-40" x="750"/>
      <use xlink:href="#SimHei-30" x="800"/>
      <use xlink:href="#SimHei-2e" x="850"/>
      <use xlink:href="#SimHei-35" x="900"/>
      <use xlink:href="#SimHei-3d" x="950"/>
      <use xlink:href="#SimHei-30" x="1000"/>
      <use xlink:href="#SimHei-2e" x="1050"/>
      <use xlink:href="#SimHei-35" x="1100"/>
      <use xlink:href="#SimHei-36" x="1150"/>
      <use xlink:href="#SimHei-33" x="1200"/>
      <use xlink:href="#SimHei-39" x="1250"/>
     </g>
    </g>
    <g id="line2d_20">
     <path d="M 1102.544 87.8625 
L 1126.544 87.8625 
L 1150.544 87.8625 
" style="fill: none; stroke: #2878b5; stroke-width: 2; stroke-linecap: square"/>
    </g>
    <g id="text_17">
     <!-- scab                0.5813 -->
     <g transform="translate(1169.744 96.2625) scale(0.24 -0.24)">
      <defs>
       <path id="SimHei-62" d="M 2825 1525 
Q 2825 800 2475 437 
Q 2125 75 1625 75 
Q 1350 75 1150 175 
Q 950 275 800 500 
L 800 125 
L 300 125 
L 300 4400 
L 800 4400 
L 800 2550 
Q 950 2775 1150 2887 
Q 1350 3000 1625 3000 
Q 2125 3000 2475 2625 
Q 2825 2250 2825 1525 
z
M 2275 1525 
Q 2275 2000 2087 2275 
Q 1900 2550 1525 2550 
Q 1225 2550 1012 2275 
Q 800 2000 800 1525 
Q 800 1050 1012 787 
Q 1225 525 1525 525 
Q 1900 525 2087 787 
Q 2275 1050 2275 1525 
z
" transform="scale(0.015625)"/>
      </defs>
      <use xlink:href="#SimHei-73"/>
      <use xlink:href="#SimHei-63" x="50"/>
      <use xlink:href="#SimHei-61" x="100"/>
      <use xlink:href="#SimHei-62" x="150"/>
      <use xlink:href="#SimHei-20" x="200"/>
      <use xlink:href="#SimHei-20" x="250"/>
      <use xlink:href="#SimHei-20" x="300"/>
      <use xlink:href="#SimHei-20" x="350"/>
      <use xlink:href="#SimHei-20" x="400"/>
      <use xlink:href="#SimHei-20" x="450"/>
      <use xlink:href="#SimHei-20" x="500"/>
      <use xlink:href="#SimHei-20" x="550"/>
      <use xlink:href="#SimHei-20" x="600"/>
      <use xlink:href="#SimHei-20" x="650"/>
      <use xlink:href="#SimHei-20" x="700"/>
      <use xlink:href="#SimHei-20" x="750"/>
      <use xlink:href="#SimHei-20" x="800"/>
      <use xlink:href="#SimHei-20" x="850"/>
      <use xlink:href="#SimHei-20" x="900"/>
      <use xlink:href="#SimHei-20" x="950"/>
      <use xlink:href="#SimHei-30" x="1000"/>
      <use xlink:href="#SimHei-2e" x="1050"/>
      <use xlink:href="#SimHei-35" x="1100"/>
      <use xlink:href="#SimHei-38" x="1150"/>
      <use xlink:href="#SimHei-31" x="1200"/>
      <use xlink:href="#SimHei-33" x="1250"/>
     </g>
    </g>
    <g id="line2d_21">
     <path d="M 1102.544 119.6625 
L 1126.544 119.6625 
L 1150.544 119.6625 
" style="fill: none; stroke: #9ac9db; stroke-width: 2; stroke-linecap: square"/>
    </g>
    <g id="text_18">
     <!-- healthy             0.6867 -->
     <g transform="translate(1169.744 128.0625) scale(0.24 -0.24)">
      <defs>
       <path id="SimHei-68" d="M 2800 125 
L 2300 125 
L 2300 1925 
Q 2300 2225 2150 2400 
Q 2000 2575 1750 2575 
Q 1425 2575 1137 2237 
Q 850 1900 850 1400 
L 850 125 
L 350 125 
L 350 4400 
L 850 4400 
L 850 2400 
Q 1050 2675 1287 2825 
Q 1525 2975 1900 2975 
Q 2350 2975 2575 2725 
Q 2800 2475 2800 2100 
L 2800 125 
z
" transform="scale(0.015625)"/>
       <path id="SimHei-74" d="M 2750 200 
Q 2625 150 2462 112 
Q 2300 75 2025 75 
Q 1575 75 1300 325 
Q 1025 575 1025 1025 
L 1025 2525 
L 175 2525 
L 175 2925 
L 1025 2925 
L 1025 3900 
L 1525 3900 
L 1525 2925 
L 2550 2925 
L 2550 2525 
L 1525 2525 
L 1525 1000 
Q 1525 800 1625 662 
Q 1725 525 2000 525 
Q 2275 525 2450 575 
Q 2625 625 2750 700 
L 2750 200 
z
" transform="scale(0.015625)"/>
       <path id="SimHei-79" d="M 2900 2925 
L 1750 -100 
Q 1650 -450 1450 -625 
Q 1250 -800 950 -800 
Q 825 -800 712 -787 
Q 600 -775 500 -725 
L 500 -225 
Q 600 -275 700 -300 
Q 800 -325 875 -325 
Q 1075 -325 1150 -262 
Q 1225 -200 1300 25 
L 200 2925 
L 750 2925 
L 1550 725 
L 1575 725 
L 2350 2925 
L 2900 2925 
z
" transform="scale(0.015625)"/>
       <path id="SimHei-37" d="M 850 150 
Q 1300 2050 2425 3925 
L 275 3925 
L 275 4375 
L 2950 4375 
L 2950 3950 
Q 1775 2050 1400 150 
L 850 150 
z
" transform="scale(0.015625)"/>
      </defs>
      <use xlink:href="#SimHei-68"/>
      <use xlink:href="#SimHei-65" x="50"/>
      <use xlink:href="#SimHei-61" x="100"/>
      <use xlink:href="#SimHei-6c" x="150"/>
      <use xlink:href="#SimHei-74" x="200"/>
      <use xlink:href="#SimHei-68" x="250"/>
      <use xlink:href="#SimHei-79" x="300"/>
      <use xlink:href="#SimHei-20" x="350"/>
      <use xlink:href="#SimHei-20" x="400"/>
      <use xlink:href="#SimHei-20" x="450"/>
      <use xlink:href="#SimHei-20" x="500"/>
      <use xlink:href="#SimHei-20" x="550"/>
      <use xlink:href="#SimHei-20" x="600"/>
      <use xlink:href="#SimHei-20" x="650"/>
      <use xlink:href="#SimHei-20" x="700"/>
      <use xlink:href="#SimHei-20" x="750"/>
      <use xlink:href="#SimHei-20" x="800"/>
      <use xlink:href="#SimHei-20" x="850"/>
      <use xlink:href="#SimHei-20" x="900"/>
      <use xlink:href="#SimHei-20" x="950"/>
      <use xlink:href="#SimHei-30" x="1000"/>
      <use xlink:href="#SimHei-2e" x="1050"/>
      <use xlink:href="#SimHei-36" x="1100"/>
      <use xlink:href="#SimHei-38" x="1150"/>
      <use xlink:href="#SimHei-36" x="1200"/>
      <use xlink:href="#SimHei-37" x="1250"/>
     </g>
    </g>
    <g id="line2d_22">
     <path d="M 1102.544 151.5375 
L 1126.544 151.5375 
L 1150.544 151.5375 
" style="fill: none; stroke: #f8ac8c; stroke-width: 2; stroke-linecap: square"/>
    </g>
    <g id="text_19">
     <!-- frog_eye_leaf_spot  0.5602 -->
     <g transform="translate(1169.744 159.9375) scale(0.24 -0.24)">
      <defs>
       <path id="SimHei-66" d="M 2850 3825 
Q 2725 3900 2550 3950 
Q 2375 4000 2100 4000 
Q 1825 4000 1725 3862 
Q 1625 3725 1625 3525 
L 1625 2925 
L 2650 2925 
L 2650 2525 
L 1625 2525 
L 1625 125 
L 1125 125 
L 1125 2525 
L 275 2525 
L 275 2925 
L 1125 2925 
L 1125 3500 
Q 1125 3950 1400 4200 
Q 1675 4450 2125 4450 
Q 2400 4450 2562 4412 
Q 2725 4375 2850 4325 
L 2850 3825 
z
" transform="scale(0.015625)"/>
       <path id="SimHei-67" d="M 2975 2500 
Q 2800 2550 2637 2562 
Q 2475 2575 2300 2525 
Q 2375 2450 2425 2337 
Q 2475 2225 2475 2000 
Q 2475 1575 2187 1300 
Q 1900 1025 1475 1025 
Q 1375 1025 1212 1062 
Q 1050 1100 950 1150 
Q 875 1100 850 1050 
Q 825 1000 825 925 
Q 825 800 1000 737 
Q 1175 675 1625 675 
Q 2350 675 2612 475 
Q 2875 275 2875 -25 
Q 2875 -425 2487 -612 
Q 2100 -800 1575 -800 
Q 900 -800 575 -625 
Q 250 -450 250 -150 
Q 250 0 375 150 
Q 500 300 700 400 
Q 550 475 462 587 
Q 375 700 375 875 
Q 375 1025 487 1137 
Q 600 1250 750 1325 
Q 625 1450 550 1625 
Q 475 1800 475 2000 
Q 475 2425 762 2700 
Q 1050 2975 1475 2975 
Q 1700 2975 1862 2912 
Q 2025 2850 2150 2725 
Q 2350 2875 2550 2937 
Q 2750 3000 2975 2975 
L 2975 2500 
z
M 1975 2000 
Q 1975 2250 1850 2400 
Q 1725 2550 1475 2550 
Q 1225 2550 1100 2400 
Q 975 2250 975 2000 
Q 975 1750 1100 1600 
Q 1225 1450 1475 1450 
Q 1725 1450 1850 1600 
Q 1975 1750 1975 2000 
z
M 2400 -75 
Q 2400 25 2287 125 
Q 2175 225 1725 225 
Q 1625 225 1450 237 
Q 1275 250 1050 275 
Q 850 200 775 100 
Q 700 0 700 -100 
Q 700 -250 900 -350 
Q 1100 -450 1600 -450 
Q 2025 -450 2212 -337 
Q 2400 -225 2400 -75 
z
" transform="scale(0.015625)"/>
       <path id="SimHei-70" d="M 2825 1525 
Q 2825 800 2475 425 
Q 2125 50 1625 50 
Q 1350 50 1150 162 
Q 950 275 800 500 
L 800 -800 
L 300 -800 
L 300 2925 
L 800 2925 
L 800 2550 
Q 950 2775 1150 2875 
Q 1350 2975 1625 2975 
Q 2125 2975 2475 2612 
Q 2825 2250 2825 1525 
z
M 2275 1525 
Q 2275 2000 2087 2262 
Q 1900 2525 1525 2525 
Q 1225 2525 1012 2262 
Q 800 2000 800 1525 
Q 800 1050 1012 775 
Q 1225 500 1525 500 
Q 1900 500 2087 775 
Q 2275 1050 2275 1525 
z
" transform="scale(0.015625)"/>
      </defs>
      <use xlink:href="#SimHei-66"/>
      <use xlink:href="#SimHei-72" x="50"/>
      <use xlink:href="#SimHei-6f" x="100"/>
      <use xlink:href="#SimHei-67" x="150"/>
      <use xlink:href="#SimHei-5f" x="200"/>
      <use xlink:href="#SimHei-65" x="250"/>
      <use xlink:href="#SimHei-79" x="300"/>
      <use xlink:href="#SimHei-65" x="350"/>
      <use xlink:href="#SimHei-5f" x="400"/>
      <use xlink:href="#SimHei-6c" x="450"/>
      <use xlink:href="#SimHei-65" x="500"/>
      <use xlink:href="#SimHei-61" x="550"/>
      <use xlink:href="#SimHei-66" x="600"/>
      <use xlink:href="#SimHei-5f" x="650"/>
      <use xlink:href="#SimHei-73" x="700"/>
      <use xlink:href="#SimHei-70" x="750"/>
      <use xlink:href="#SimHei-6f" x="800"/>
      <use xlink:href="#SimHei-74" x="850"/>
      <use xlink:href="#SimHei-20" x="900"/>
      <use xlink:href="#SimHei-20" x="950"/>
      <use xlink:href="#SimHei-30" x="1000"/>
      <use xlink:href="#SimHei-2e" x="1050"/>
      <use xlink:href="#SimHei-35" x="1100"/>
      <use xlink:href="#SimHei-36" x="1150"/>
      <use xlink:href="#SimHei-30" x="1200"/>
      <use xlink:href="#SimHei-32" x="1250"/>
     </g>
    </g>
    <g id="line2d_23">
     <path d="M 1102.544 183.525 
L 1126.544 183.525 
L 1150.544 183.525 
" style="fill: none; stroke: #c82423; stroke-width: 2; stroke-linecap: square"/>
    </g>
    <g id="text_20">
     <!-- rust                0.7800 -->
     <g transform="translate(1169.744 191.925) scale(0.24 -0.24)">
      <use xlink:href="#SimHei-72"/>
      <use xlink:href="#SimHei-75" x="50"/>
      <use xlink:href="#SimHei-73" x="100"/>
      <use xlink:href="#SimHei-74" x="150"/>
      <use xlink:href="#SimHei-20" x="200"/>
      <use xlink:href="#SimHei-20" x="250"/>
      <use xlink:href="#SimHei-20" x="300"/>
      <use xlink:href="#SimHei-20" x="350"/>
      <use xlink:href="#SimHei-20" x="400"/>
      <use xlink:href="#SimHei-20" x="450"/>
      <use xlink:href="#SimHei-20" x="500"/>
      <use xlink:href="#SimHei-20" x="550"/>
      <use xlink:href="#SimHei-20" x="600"/>
      <use xlink:href="#SimHei-20" x="650"/>
      <use xlink:href="#SimHei-20" x="700"/>
      <use xlink:href="#SimHei-20" x="750"/>
      <use xlink:href="#SimHei-20" x="800"/>
      <use xlink:href="#SimHei-20" x="850"/>
      <use xlink:href="#SimHei-20" x="900"/>
      <use xlink:href="#SimHei-20" x="950"/>
      <use xlink:href="#SimHei-30" x="1000"/>
      <use xlink:href="#SimHei-2e" x="1050"/>
      <use xlink:href="#SimHei-37" x="1100"/>
      <use xlink:href="#SimHei-38" x="1150"/>
      <use xlink:href="#SimHei-30" x="1200"/>
      <use xlink:href="#SimHei-30" x="1250"/>
     </g>
    </g>
    <g id="line2d_24">
     <path d="M 1102.544 215.4 
L 1126.544 215.4 
L 1150.544 215.4 
" style="fill: none; stroke: #ff8884; stroke-width: 2; stroke-linecap: square"/>
    </g>
    <g id="text_21">
     <!-- complex             0.4093 -->
     <g transform="translate(1169.744 223.8) scale(0.24 -0.24)">
      <defs>
       <path id="SimHei-78" d="M 2875 125 
L 2275 125 
L 1550 1200 
L 825 125 
L 225 125 
L 1250 1550 
L 300 2925 
L 900 2925 
L 1550 1875 
L 2200 2925 
L 2800 2925 
L 1850 1550 
L 2875 125 
z
" transform="scale(0.015625)"/>
      </defs>
      <use xlink:href="#SimHei-63"/>
      <use xlink:href="#SimHei-6f" x="50"/>
      <use xlink:href="#SimHei-6d" x="100"/>
      <use xlink:href="#SimHei-70" x="150"/>
      <use xlink:href="#SimHei-6c" x="200"/>
      <use xlink:href="#SimHei-65" x="250"/>
      <use xlink:href="#SimHei-78" x="300"/>
      <use xlink:href="#SimHei-20" x="350"/>
      <use xlink:href="#SimHei-20" x="400"/>
      <use xlink:href="#SimHei-20" x="450"/>
      <use xlink:href="#SimHei-20" x="500"/>
      <use xlink:href="#SimHei-20" x="550"/>
      <use xlink:href="#SimHei-20" x="600"/>
      <use xlink:href="#SimHei-20" x="650"/>
      <use xlink:href="#SimHei-20" x="700"/>
      <use xlink:href="#SimHei-20" x="750"/>
      <use xlink:href="#SimHei-20" x="800"/>
      <use xlink:href="#SimHei-20" x="850"/>
      <use xlink:href="#SimHei-20" x="900"/>
      <use xlink:href="#SimHei-20" x="950"/>
      <use xlink:href="#SimHei-30" x="1000"/>
      <use xlink:href="#SimHei-2e" x="1050"/>
      <use xlink:href="#SimHei-34" x="1100"/>
      <use xlink:href="#SimHei-30" x="1150"/>
      <use xlink:href="#SimHei-39" x="1200"/>
      <use xlink:href="#SimHei-33" x="1250"/>
     </g>
    </g>
    <g id="line2d_25">
     <path d="M 1102.544 247.275 
L 1126.544 247.275 
L 1150.544 247.275 
" style="fill: none; stroke: #c497b2; stroke-width: 2; stroke-linecap: square"/>
    </g>
    <g id="text_22">
     <!-- powdery_mildew      0.3347 -->
     <g transform="translate(1169.744 255.675) scale(0.24 -0.24)">
      <defs>
       <path id="SimHei-77" d="M 3075 2925 
L 2450 75 
L 1975 75 
L 1575 2250 
L 1525 2250 
L 1125 75 
L 650 75 
L 25 2925 
L 550 2925 
L 875 1050 
L 925 1050 
L 1275 2925 
L 1825 2925 
L 2175 1050 
L 2225 1050 
L 2550 2925 
L 3075 2925 
z
" transform="scale(0.015625)"/>
       <path id="SimHei-64" d="M 2750 125 
L 2250 125 
L 2250 500 
Q 2100 275 1900 175 
Q 1700 75 1425 75 
Q 925 75 575 437 
Q 225 800 225 1525 
Q 225 2250 575 2625 
Q 925 3000 1425 3000 
Q 1700 3000 1900 2887 
Q 2100 2775 2250 2550 
L 2250 4400 
L 2750 4400 
L 2750 125 
z
M 2250 1525 
Q 2250 2000 2037 2275 
Q 1825 2550 1525 2550 
Q 1150 2550 962 2275 
Q 775 2000 775 1525 
Q 775 1050 962 787 
Q 1150 525 1525 525 
Q 1825 525 2037 787 
Q 2250 1050 2250 1525 
z
" transform="scale(0.015625)"/>
      </defs>
      <use xlink:href="#SimHei-70"/>
      <use xlink:href="#SimHei-6f" x="50"/>
      <use xlink:href="#SimHei-77" x="100"/>
      <use xlink:href="#SimHei-64" x="150"/>
      <use xlink:href="#SimHei-65" x="200"/>
      <use xlink:href="#SimHei-72" x="250"/>
      <use xlink:href="#SimHei-79" x="300"/>
      <use xlink:href="#SimHei-5f" x="350"/>
      <use xlink:href="#SimHei-6d" x="400"/>
      <use xlink:href="#SimHei-69" x="450"/>
      <use xlink:href="#SimHei-6c" x="500"/>
      <use xlink:href="#SimHei-64" x="550"/>
      <use xlink:href="#SimHei-65" x="600"/>
      <use xlink:href="#SimHei-77" x="650"/>
      <use xlink:href="#SimHei-20" x="700"/>
      <use xlink:href="#SimHei-20" x="750"/>
      <use xlink:href="#SimHei-20" x="800"/>
      <use xlink:href="#SimHei-20" x="850"/>
      <use xlink:href="#SimHei-20" x="900"/>
      <use xlink:href="#SimHei-20" x="950"/>
      <use xlink:href="#SimHei-30" x="1000"/>
      <use xlink:href="#SimHei-2e" x="1050"/>
      <use xlink:href="#SimHei-33" x="1100"/>
      <use xlink:href="#SimHei-33" x="1150"/>
      <use xlink:href="#SimHei-34" x="1200"/>
      <use xlink:href="#SimHei-37" x="1250"/>
     </g>
    </g>
    <g id="line2d_26">
     <path d="M 1102.544 279.2625 
L 1126.544 279.2625 
L 1150.544 279.2625 
" style="fill: none; stroke-dasharray: 7.4,3.2; stroke-dashoffset: 0; stroke: #000000; stroke-width: 2"/>
    </g>
    <g id="text_23">
     <!-- all-classes         0.5477 -->
     <g transform="translate(1169.744 287.6625) scale(0.24 -0.24)">
      <use xlink:href="#SimHei-61"/>
      <use xlink:href="#SimHei-6c" x="50"/>
      <use xlink:href="#SimHei-6c" x="100"/>
      <use xlink:href="#SimHei-2d" x="150"/>
      <use xlink:href="#SimHei-63" x="200"/>
      <use xlink:href="#SimHei-6c" x="250"/>
      <use xlink:href="#SimHei-61" x="300"/>
      <use xlink:href="#SimHei-73" x="350"/>
      <use xlink:href="#SimHei-73" x="400"/>
      <use xlink:href="#SimHei-65" x="450"/>
      <use xlink:href="#SimHei-73" x="500"/>
      <use xlink:href="#SimHei-20" x="550"/>
      <use xlink:href="#SimHei-20" x="600"/>
      <use xlink:href="#SimHei-20" x="650"/>
      <use xlink:href="#SimHei-20" x="700"/>
      <use xlink:href="#SimHei-20" x="750"/>
      <use xlink:href="#SimHei-20" x="800"/>
      <use xlink:href="#SimHei-20" x="850"/>
      <use xlink:href="#SimHei-20" x="900"/>
      <use xlink:href="#SimHei-20" x="950"/>
      <use xlink:href="#SimHei-30" x="1000"/>
      <use xlink:href="#SimHei-2e" x="1050"/>
      <use xlink:href="#SimHei-35" x="1100"/>
      <use xlink:href="#SimHei-34" x="1150"/>
      <use xlink:href="#SimHei-37" x="1200"/>
      <use xlink:href="#SimHei-37" x="1250"/>
     </g>
    </g>
   </g>
  </g>
 </g>
 <defs>
  <clipPath id="pb57046d9d4">
   <rect x="66.5" y="25.8" width="1004.4" height="443.52"/>
  </clipPath>
 </defs>
</svg>
