<?xml version="1.0" encoding="utf-8" standalone="no"?>
<!DOCTYPE svg PUBLIC "-//W3C//DTD SVG 1.1//EN"
  "http://www.w3.org/Graphics/SVG/1.1/DTD/svg11.dtd">
<svg xmlns:xlink="http://www.w3.org/1999/xlink" width="864.82021pt" height="444.88373pt" viewBox="0 0 864.82021 444.88373" xmlns="http://www.w3.org/2000/svg" version="1.1">
 <metadata>
  <rdf:RDF xmlns:dc="http://purl.org/dc/elements/1.1/" xmlns:cc="http://creativecommons.org/ns#" xmlns:rdf="http://www.w3.org/1999/02/22-rdf-syntax-ns#">
   <cc:Work>
    <dc:type rdf:resource="http://purl.org/dc/dcmitype/StillImage"/>
    <dc:date>2023-12-10T12:05:58.221366</dc:date>
    <dc:format>image/svg+xml</dc:format>
    <dc:creator>
     <cc:Agent>
      <dc:title>Matplotlib v3.7.3, https://matplotlib.org/</dc:title>
     </cc:Agent>
    </dc:creator>
   </cc:Work>
  </rdf:RDF>
 </metadata>
 <defs>
  <style type="text/css">*{stroke-linejoin: round; stroke-linecap: butt}</style>
 </defs>
 <g id="figure_1">
  <g id="patch_1">
   <path d="M 0 444.88373 
L 864.82021 444.88373 
L 864.82021 0 
L 0 0 
z
" style="fill: #ffffff"/>
  </g>
  <g id="axes_1">
   <g id="patch_2">
    <path d="M 78.5 394.88373 
L 433.590909 394.88373 
L 433.590909 6.80373 
L 78.5 6.80373 
z
" style="fill: #ffffff"/>
   </g>
   <g id="matplotlib.axis_1">
    <g id="xtick_1">
     <g id="line2d_1">
      <defs>
       <path id="md09e09a70f" d="M 0 0 
L 0 3.5 
" style="stroke: #000000; stroke-width: 0.8"/>
      </defs>
      <g>
       <use xlink:href="#md09e09a70f" x="94.640496" y="394.88373" style="stroke: #000000; stroke-width: 0.8"/>
      </g>
     </g>
     <g id="text_1">
      <!-- 0 -->
      <g transform="translate(88.640496 418.38373) scale(0.24 -0.24)">
       <defs>
        <path id="SimHei-30" d="M 225 2537 
Q 250 3200 412 3587 
Q 575 3975 875 4225 
Q 1175 4475 1612 4475 
Q 2050 4475 2375 4112 
Q 2700 3750 2800 3200 
Q 2900 2650 2862 1937 
Q 2825 1225 2612 775 
Q 2400 325 1975 150 
Q 1550 -25 1125 187 
Q 700 400 525 750 
Q 350 1100 275 1487 
Q 200 1875 225 2537 
z
M 750 2687 
Q 675 2000 800 1462 
Q 925 925 1212 700 
Q 1500 475 1800 612 
Q 2100 750 2237 1162 
Q 2375 1575 2375 2062 
Q 2375 2550 2337 2950 
Q 2300 3350 2112 3675 
Q 1925 4000 1612 4012 
Q 1300 4025 1062 3700 
Q 825 3375 750 2687 
z
" transform="scale(0.015625)"/>
       </defs>
       <use xlink:href="#SimHei-30"/>
      </g>
     </g>
    </g>
    <g id="xtick_2">
     <g id="line2d_2">
      <g>
       <use xlink:href="#md09e09a70f" x="257.675808" y="394.88373" style="stroke: #000000; stroke-width: 0.8"/>
      </g>
     </g>
     <g id="text_2">
      <!-- 50 -->
      <g transform="translate(245.675808 418.38373) scale(0.24 -0.24)">
       <defs>
        <path id="SimHei-35" d="M 550 1325 
Q 725 650 1150 575 
Q 1575 500 1837 662 
Q 2100 825 2212 1087 
Q 2325 1350 2312 1675 
Q 2300 2000 2137 2225 
Q 1975 2450 1725 2525 
Q 1475 2600 1162 2525 
Q 850 2450 650 2175 
L 225 2225 
Q 275 2375 700 4375 
L 2675 4375 
L 2675 3925 
L 1075 3925 
Q 950 3250 825 2850 
Q 1200 3025 1525 3012 
Q 1850 3000 2150 2862 
Q 2450 2725 2587 2487 
Q 2725 2250 2787 2012 
Q 2850 1775 2837 1500 
Q 2825 1225 2725 937 
Q 2625 650 2425 462 
Q 2225 275 1937 162 
Q 1650 50 1275 75 
Q 900 100 562 350 
Q 225 600 100 1200 
L 550 1325 
z
" transform="scale(0.015625)"/>
       </defs>
       <use xlink:href="#SimHei-35"/>
       <use xlink:href="#SimHei-30" x="50"/>
      </g>
     </g>
    </g>
    <g id="xtick_3">
     <g id="line2d_3">
      <g>
       <use xlink:href="#md09e09a70f" x="420.711119" y="394.88373" style="stroke: #000000; stroke-width: 0.8"/>
      </g>
     </g>
     <g id="text_3">
      <!-- 100 -->
      <g transform="translate(402.711119 418.38373) scale(0.24 -0.24)">
       <defs>
        <path id="SimHei-31" d="M 1400 3600 
Q 1075 3275 575 2975 
L 575 3450 
Q 1200 3875 1600 4450 
L 1900 4450 
L 1900 150 
L 1400 150 
L 1400 3600 
z
" transform="scale(0.015625)"/>
       </defs>
       <use xlink:href="#SimHei-31"/>
       <use xlink:href="#SimHei-30" x="50"/>
       <use xlink:href="#SimHei-30" x="100"/>
      </g>
     </g>
    </g>
    <g id="text_4">
     <!-- epoch -->
     <g transform="translate(226.045455 441.88373) scale(0.24 -0.24)">
      <defs>
       <path id="SimHei-65" d="M 2850 1075 
Q 2800 625 2450 350 
Q 2100 75 1625 75 
Q 1025 75 637 462 
Q 250 850 250 1525 
Q 250 2200 637 2587 
Q 1025 2975 1625 2975 
Q 2150 2975 2487 2637 
Q 2825 2300 2825 1525 
L 800 1525 
Q 800 975 1037 750 
Q 1275 525 1625 525 
Q 1900 525 2075 662 
Q 2250 800 2300 1075 
L 2850 1075 
z
M 2250 1925 
Q 2200 2275 2025 2412 
Q 1850 2550 1575 2550 
Q 1325 2550 1125 2412 
Q 925 2275 825 1925 
L 2250 1925 
z
" transform="scale(0.015625)"/>
       <path id="SimHei-70" d="M 2825 1525 
Q 2825 800 2475 425 
Q 2125 50 1625 50 
Q 1350 50 1150 162 
Q 950 275 800 500 
L 800 -800 
L 300 -800 
L 300 2925 
L 800 2925 
L 800 2550 
Q 950 2775 1150 2875 
Q 1350 2975 1625 2975 
Q 2125 2975 2475 2612 
Q 2825 2250 2825 1525 
z
M 2275 1525 
Q 2275 2000 2087 2262 
Q 1900 2525 1525 2525 
Q 1225 2525 1012 2262 
Q 800 2000 800 1525 
Q 800 1050 1012 775 
Q 1225 500 1525 500 
Q 1900 500 2087 775 
Q 2275 1050 2275 1525 
z
" transform="scale(0.015625)"/>
       <path id="SimHei-6f" d="M 2925 1525 
Q 2925 875 2525 475 
Q 2125 75 1575 75 
Q 1025 75 625 475 
Q 225 875 225 1525 
Q 225 2175 625 2575 
Q 1025 2975 1575 2975 
Q 2125 2975 2525 2575 
Q 2925 2175 2925 1525 
z
M 2375 1525 
Q 2375 2025 2125 2275 
Q 1875 2525 1575 2525 
Q 1275 2525 1025 2275 
Q 775 2025 775 1525 
Q 775 1025 1025 775 
Q 1275 525 1575 525 
Q 1875 525 2125 775 
Q 2375 1025 2375 1525 
z
" transform="scale(0.015625)"/>
       <path id="SimHei-63" d="M 2850 1250 
Q 2850 725 2487 400 
Q 2125 75 1575 75 
Q 1025 75 625 462 
Q 225 850 225 1525 
Q 225 2200 625 2587 
Q 1025 2975 1575 2975 
Q 2125 2975 2450 2687 
Q 2775 2400 2775 2000 
L 2225 2000 
Q 2200 2300 2012 2412 
Q 1825 2525 1575 2525 
Q 1275 2525 1025 2287 
Q 775 2050 775 1525 
Q 775 1000 1025 762 
Q 1275 525 1575 525 
Q 1900 525 2100 700 
Q 2300 875 2300 1250 
L 2850 1250 
z
" transform="scale(0.015625)"/>
       <path id="SimHei-68" d="M 2800 125 
L 2300 125 
L 2300 1925 
Q 2300 2225 2150 2400 
Q 2000 2575 1750 2575 
Q 1425 2575 1137 2237 
Q 850 1900 850 1400 
L 850 125 
L 350 125 
L 350 4400 
L 850 4400 
L 850 2400 
Q 1050 2675 1287 2825 
Q 1525 2975 1900 2975 
Q 2350 2975 2575 2725 
Q 2800 2475 2800 2100 
L 2800 125 
z
" transform="scale(0.015625)"/>
      </defs>
      <use xlink:href="#SimHei-65"/>
      <use xlink:href="#SimHei-70" x="50"/>
      <use xlink:href="#SimHei-6f" x="100"/>
      <use xlink:href="#SimHei-63" x="150"/>
      <use xlink:href="#SimHei-68" x="200"/>
     </g>
    </g>
   </g>
   <g id="matplotlib.axis_2">
    <g id="ytick_1">
     <g id="line2d_4">
      <defs>
       <path id="ma91e740bf8" d="M 0 0 
L -3.5 0 
" style="stroke: #000000; stroke-width: 0.8"/>
      </defs>
      <g>
       <use xlink:href="#ma91e740bf8" x="78.5" y="358.591665" style="stroke: #000000; stroke-width: 0.8"/>
      </g>
     </g>
     <g id="text_5">
      <!-- 0.10 -->
      <g transform="translate(23.5 366.841665) scale(0.24 -0.24)">
       <defs>
        <path id="SimHei-2e" d="M 1075 125 
L 500 125 
L 500 675 
L 1075 675 
L 1075 125 
z
" transform="scale(0.015625)"/>
       </defs>
       <use xlink:href="#SimHei-30"/>
       <use xlink:href="#SimHei-2e" x="50"/>
       <use xlink:href="#SimHei-31" x="100"/>
       <use xlink:href="#SimHei-30" x="150"/>
      </g>
     </g>
    </g>
    <g id="ytick_2">
     <g id="line2d_5">
      <g>
       <use xlink:href="#ma91e740bf8" x="78.5" y="308.542856" style="stroke: #000000; stroke-width: 0.8"/>
      </g>
     </g>
     <g id="text_6">
      <!-- 0.15 -->
      <g transform="translate(23.5 316.792856) scale(0.24 -0.24)">
       <use xlink:href="#SimHei-30"/>
       <use xlink:href="#SimHei-2e" x="50"/>
       <use xlink:href="#SimHei-31" x="100"/>
       <use xlink:href="#SimHei-35" x="150"/>
      </g>
     </g>
    </g>
    <g id="ytick_3">
     <g id="line2d_6">
      <g>
       <use xlink:href="#ma91e740bf8" x="78.5" y="258.494046" style="stroke: #000000; stroke-width: 0.8"/>
      </g>
     </g>
     <g id="text_7">
      <!-- 0.20 -->
      <g transform="translate(23.5 266.744046) scale(0.24 -0.24)">
       <defs>
        <path id="SimHei-32" d="M 300 250 
Q 325 625 650 925 
Q 975 1225 1475 1862 
Q 1975 2500 2125 2850 
Q 2275 3200 2237 3450 
Q 2200 3700 2000 3862 
Q 1800 4025 1537 4000 
Q 1275 3975 1037 3800 
Q 800 3625 675 3275 
L 200 3350 
Q 400 3925 712 4187 
Q 1025 4450 1450 4475 
Q 1700 4500 1900 4462 
Q 2100 4425 2312 4287 
Q 2525 4150 2662 3875 
Q 2800 3600 2762 3212 
Q 2725 2825 2375 2287 
Q 2025 1750 1025 600 
L 2825 600 
L 2825 150 
L 300 150 
L 300 250 
z
" transform="scale(0.015625)"/>
       </defs>
       <use xlink:href="#SimHei-30"/>
       <use xlink:href="#SimHei-2e" x="50"/>
       <use xlink:href="#SimHei-32" x="100"/>
       <use xlink:href="#SimHei-30" x="150"/>
      </g>
     </g>
    </g>
    <g id="ytick_4">
     <g id="line2d_7">
      <g>
       <use xlink:href="#ma91e740bf8" x="78.5" y="208.445237" style="stroke: #000000; stroke-width: 0.8"/>
      </g>
     </g>
     <g id="text_8">
      <!-- 0.25 -->
      <g transform="translate(23.5 216.695237) scale(0.24 -0.24)">
       <use xlink:href="#SimHei-30"/>
       <use xlink:href="#SimHei-2e" x="50"/>
       <use xlink:href="#SimHei-32" x="100"/>
       <use xlink:href="#SimHei-35" x="150"/>
      </g>
     </g>
    </g>
    <g id="ytick_5">
     <g id="line2d_8">
      <g>
       <use xlink:href="#ma91e740bf8" x="78.5" y="158.396428" style="stroke: #000000; stroke-width: 0.8"/>
      </g>
     </g>
     <g id="text_9">
      <!-- 0.30 -->
      <g transform="translate(23.5 166.646428) scale(0.24 -0.24)">
       <defs>
        <path id="SimHei-33" d="M 250 1225 
L 700 1300 
Q 800 975 1025 762 
Q 1250 550 1587 562 
Q 1925 575 2125 837 
Q 2325 1100 2300 1437 
Q 2275 1775 2037 1962 
Q 1800 2150 1275 2225 
L 1275 2550 
Q 1800 2600 2037 2825 
Q 2275 3050 2250 3412 
Q 2225 3775 1925 3937 
Q 1625 4100 1287 3975 
Q 950 3850 750 3275 
L 300 3350 
Q 450 3800 712 4100 
Q 975 4400 1425 4450 
Q 1875 4500 2212 4337 
Q 2550 4175 2687 3837 
Q 2825 3500 2725 3100 
Q 2625 2700 2150 2400 
Q 2500 2250 2687 1950 
Q 2875 1650 2812 1162 
Q 2750 675 2375 375 
Q 2000 75 1525 87 
Q 1050 100 700 387 
Q 350 675 250 1225 
z
" transform="scale(0.015625)"/>
       </defs>
       <use xlink:href="#SimHei-30"/>
       <use xlink:href="#SimHei-2e" x="50"/>
       <use xlink:href="#SimHei-33" x="100"/>
       <use xlink:href="#SimHei-30" x="150"/>
      </g>
     </g>
    </g>
    <g id="ytick_6">
     <g id="line2d_9">
      <g>
       <use xlink:href="#ma91e740bf8" x="78.5" y="108.347619" style="stroke: #000000; stroke-width: 0.8"/>
      </g>
     </g>
     <g id="text_10">
      <!-- 0.35 -->
      <g transform="translate(23.5 116.597619) scale(0.24 -0.24)">
       <use xlink:href="#SimHei-30"/>
       <use xlink:href="#SimHei-2e" x="50"/>
       <use xlink:href="#SimHei-33" x="100"/>
       <use xlink:href="#SimHei-35" x="150"/>
      </g>
     </g>
    </g>
    <g id="ytick_7">
     <g id="line2d_10">
      <g>
       <use xlink:href="#ma91e740bf8" x="78.5" y="58.298809" style="stroke: #000000; stroke-width: 0.8"/>
      </g>
     </g>
     <g id="text_11">
      <!-- 0.40 -->
      <g transform="translate(23.5 66.548809) scale(0.24 -0.24)">
       <defs>
        <path id="SimHei-34" d="M 2000 1100 
L 75 1100 
L 75 1525 
L 2100 4450 
L 2475 4450 
L 2475 1525 
L 3075 1525 
L 3075 1100 
L 2475 1100 
L 2475 150 
L 2000 150 
L 2000 1100 
z
M 2000 1525 
L 2000 3500 
L 600 1525 
L 2000 1525 
z
" transform="scale(0.015625)"/>
       </defs>
       <use xlink:href="#SimHei-30"/>
       <use xlink:href="#SimHei-2e" x="50"/>
       <use xlink:href="#SimHei-34" x="100"/>
       <use xlink:href="#SimHei-30" x="150"/>
      </g>
     </g>
    </g>
    <g id="ytick_8">
     <g id="line2d_11">
      <g>
       <use xlink:href="#ma91e740bf8" x="78.5" y="8.25" style="stroke: #000000; stroke-width: 0.8"/>
      </g>
     </g>
     <g id="text_12">
      <!-- 0.45 -->
      <g transform="translate(23.5 16.5) scale(0.24 -0.24)">
       <use xlink:href="#SimHei-30"/>
       <use xlink:href="#SimHei-2e" x="50"/>
       <use xlink:href="#SimHei-34" x="100"/>
       <use xlink:href="#SimHei-35" x="150"/>
      </g>
     </g>
    </g>
    <g id="text_13">
     <!-- loss -->
     <g transform="translate(16.5 224.84373) rotate(-90) scale(0.24 -0.24)">
      <defs>
       <path id="SimHei-6c" d="M 1825 125 
L 1325 125 
L 1325 4400 
L 1825 4400 
L 1825 125 
z
" transform="scale(0.015625)"/>
       <path id="SimHei-73" d="M 2750 900 
Q 2750 500 2437 287 
Q 2125 75 1650 75 
Q 1050 75 725 312 
Q 400 550 400 1000 
L 900 1000 
Q 900 700 1112 600 
Q 1325 500 1625 500 
Q 1925 500 2075 612 
Q 2225 725 2225 900 
Q 2225 1025 2100 1150 
Q 1975 1275 1475 1350 
Q 900 1425 687 1637 
Q 475 1850 475 2200 
Q 475 2500 762 2737 
Q 1050 2975 1600 2975 
Q 2100 2975 2387 2750 
Q 2675 2525 2675 2150 
L 2175 2150 
Q 2175 2375 2012 2462 
Q 1850 2550 1600 2550 
Q 1275 2550 1137 2437 
Q 1000 2325 1000 2175 
Q 1000 2000 1125 1900 
Q 1250 1800 1650 1750 
Q 2300 1650 2525 1437 
Q 2750 1225 2750 900 
z
" transform="scale(0.015625)"/>
      </defs>
      <use xlink:href="#SimHei-6c"/>
      <use xlink:href="#SimHei-6f" x="50"/>
      <use xlink:href="#SimHei-73" x="100"/>
      <use xlink:href="#SimHei-73" x="150"/>
     </g>
    </g>
   </g>
   <g id="line2d_12">
    <path d="M 94.640496 95.711979 
L 97.901202 103.755458 
L 101.161908 95.30631 
L 104.422615 88.388426 
L 107.683321 135.482745 
L 110.944027 144.477799 
L 114.204733 161.618564 
L 117.46544 174.788731 
L 120.726146 180.933284 
L 123.986852 196.034045 
L 127.247558 195.62303 
L 130.508264 196.695828 
L 133.768971 203.188239 
L 137.029677 213.907488 
L 140.290383 232.873204 
L 143.551089 212.510532 
L 146.811796 227.441857 
L 150.072502 257.784049 
L 153.333208 246.507946 
L 156.593914 236.859738 
L 159.854621 244.997226 
L 163.115327 235.744301 
L 166.376033 269.799157 
L 169.636739 235.435263 
L 172.897446 264.405599 
L 176.158152 256.210147 
L 179.418858 265.281404 
L 182.679564 279.794523 
L 185.94027 259.47883 
L 189.200977 277.205748 
L 192.461683 276.84744 
L 195.722389 276.355806 
L 198.983095 288.503807 
L 202.243802 279.40549 
L 205.504508 290.590371 
L 208.765214 283.4005 
L 212.02592 286.632259 
L 215.286627 247.95621 
L 218.547333 284.371741 
L 221.808039 271.864146 
L 225.068745 264.823054 
L 228.329452 268.214257 
L 231.590158 269.464663 
L 234.850864 276.786944 
L 238.11157 283.747442 
L 241.372276 262.802587 
L 244.632983 276.240146 
L 247.893689 254.467432 
L 251.154395 270.657767 
L 254.415101 280.926265 
L 257.675808 281.340373 
L 260.936514 280.632145 
L 264.19722 291.627441 
L 267.457926 274.538721 
L 270.718633 285.239464 
L 273.979339 290.920193 
L 277.240045 292.860893 
L 280.500751 289.900433 
L 283.761458 282.272246 
L 287.022164 298.877184 
L 290.28287 285.756389 
L 293.543576 269.886153 
L 296.804282 280.747601 
L 300.064989 278.451712 
L 303.325695 294.286373 
L 306.586401 289.588302 
L 309.847107 269.405376 
L 313.107814 261.133275 
L 316.36852 272.703524 
L 319.629226 292.440574 
L 322.889932 278.398776 
L 326.150639 249.100259 
L 329.411345 286.640685 
L 332.672051 269.113686 
L 335.932757 284.8222 
L 339.193464 288.342911 
L 342.45417 289.433465 
L 345.714876 287.259995 
L 348.975582 277.890633 
L 352.236289 269.996149 
L 355.496995 270.032742 
L 358.757701 264.944263 
L 362.018407 278.946821 
L 365.279113 289.395994 
L 368.53982 253.405122 
L 371.800526 249.213654 
L 375.061232 277.110237 
L 378.321938 290.46407 
L 381.582645 273.663882 
L 384.843351 284.134502 
L 388.104057 288.684609 
L 391.364763 258.894815 
L 394.62547 279.913187 
L 397.886176 252.617382 
L 401.146882 289.353877 
L 404.407588 280.633125 
L 407.668295 264.864331 
L 410.929001 215.898108 
L 414.189707 278.399157 
L 417.450413 262.700279 
" clip-path="url(#p928fcd4107)" style="fill: none; stroke: #c82423; stroke-width: 2; stroke-linecap: square"/>
   </g>
   <g id="line2d_13">
    <path d="M 94.640496 24.44373 
L 97.901202 66.131114 
L 101.161908 71.780952 
L 104.422615 75.436901 
L 107.683321 94.191723 
L 110.944027 129.263789 
L 114.204733 139.488686 
L 117.46544 149.907925 
L 120.726146 164.879068 
L 123.986852 165.790357 
L 127.247558 175.256926 
L 130.508264 191.960431 
L 133.768971 191.194384 
L 137.029677 196.347522 
L 140.290383 202.651745 
L 143.551089 213.806748 
L 146.811796 214.681544 
L 150.072502 225.293068 
L 153.333208 229.888309 
L 156.593914 238.18583 
L 159.854621 238.152838 
L 163.115327 249.300714 
L 166.376033 249.575416 
L 169.636739 257.904299 
L 172.897446 259.550191 
L 176.158152 262.250558 
L 179.418858 266.582358 
L 182.679564 271.762805 
L 185.94027 276.512616 
L 189.200977 278.546887 
L 192.461683 281.314886 
L 195.722389 283.876181 
L 198.983095 285.439005 
L 202.243802 296.605575 
L 205.504508 287.036978 
L 208.765214 295.871328 
L 212.02592 304.5685 
L 215.286627 302.343603 
L 218.547333 305.714495 
L 221.808039 308.980772 
L 225.068745 308.088687 
L 228.329452 307.809821 
L 231.590158 310.651703 
L 234.850864 310.881562 
L 238.11157 309.953319 
L 241.372276 318.135625 
L 244.632983 323.352566 
L 247.893689 307.783305 
L 251.154395 316.400525 
L 254.415101 321.266425 
L 257.675808 326.618508 
L 260.936514 332.17317 
L 264.19722 326.823206 
L 267.457926 322.378176 
L 270.718633 329.169865 
L 273.979339 328.955106 
L 277.240045 329.23604 
L 280.500751 333.67215 
L 283.761458 341.173229 
L 287.022164 334.862774 
L 290.28287 339.569156 
L 293.543576 345.328354 
L 296.804282 333.337412 
L 300.064989 341.808217 
L 303.325695 337.637656 
L 306.586401 339.395464 
L 309.847107 345.917388 
L 313.107814 344.653379 
L 316.36852 334.903321 
L 319.629226 346.463188 
L 322.889932 350.096543 
L 326.150639 351.964943 
L 329.411345 350.826269 
L 332.672051 342.56788 
L 335.932757 343.342795 
L 339.193464 355.201884 
L 342.45417 354.862819 
L 345.714876 350.150358 
L 348.975582 357.529563 
L 352.236289 355.007552 
L 355.496995 344.658582 
L 358.757701 357.861196 
L 362.018407 335.030388 
L 365.279113 358.955026 
L 368.53982 365.795661 
L 371.800526 366.9352 
L 375.061232 321.131477 
L 378.321938 343.396518 
L 381.582645 361.109623 
L 384.843351 358.272323 
L 388.104057 348.373733 
L 391.364763 353.509041 
L 394.62547 359.711643 
L 397.886176 376.703118 
L 401.146882 366.525519 
L 404.407588 345.75286 
L 407.668295 376.161228 
L 410.929001 377.24373 
L 414.189707 361.660464 
L 417.450413 367.958231 
" clip-path="url(#p928fcd4107)" style="fill: none; stroke: #2878b5; stroke-width: 2; stroke-linecap: square"/>
   </g>
   <g id="patch_3">
    <path d="M 78.5 394.88373 
L 78.5 6.80373 
" style="fill: none; stroke: #000000; stroke-width: 0.8; stroke-linejoin: miter; stroke-linecap: square"/>
   </g>
   <g id="patch_4">
    <path d="M 433.590909 394.88373 
L 433.590909 6.80373 
" style="fill: none; stroke: #000000; stroke-width: 0.8; stroke-linejoin: miter; stroke-linecap: square"/>
   </g>
   <g id="patch_5">
    <path d="M 78.5 394.88373 
L 433.590909 394.88373 
" style="fill: none; stroke: #000000; stroke-width: 0.8; stroke-linejoin: miter; stroke-linecap: square"/>
   </g>
   <g id="patch_6">
    <path d="M 78.5 6.80373 
L 433.590909 6.80373 
" style="fill: none; stroke: #000000; stroke-width: 0.8; stroke-linejoin: miter; stroke-linecap: square"/>
   </g>
   <g id="legend_1">
    <g id="patch_7">
     <path d="M 219.990909 89.97873 
L 416.790909 89.97873 
Q 421.590909 89.97873 421.590909 85.17873 
L 421.590909 23.60373 
Q 421.590909 18.80373 416.790909 18.80373 
L 219.990909 18.80373 
Q 215.190909 18.80373 215.190909 23.60373 
L 215.190909 85.17873 
Q 215.190909 89.97873 219.990909 89.97873 
z
" style="fill: #ffffff; opacity: 0.8; stroke: #cccccc; stroke-linejoin: miter"/>
    </g>
    <g id="line2d_14">
     <path d="M 224.790909 36.80373 
L 248.790909 36.80373 
L 272.790909 36.80373 
" style="fill: none; stroke: #c82423; stroke-width: 2; stroke-linecap: square"/>
    </g>
    <g id="text_14">
     <!-- val_loss -->
     <g transform="translate(291.990909 45.20373) scale(0.24 -0.24)">
      <defs>
       <path id="SimHei-76" d="M 2875 2925 
L 1825 75 
L 1275 75 
L 225 2925 
L 750 2925 
L 1525 750 
L 1575 750 
L 2350 2925 
L 2875 2925 
z
" transform="scale(0.015625)"/>
       <path id="SimHei-61" d="M 2875 125 
L 2275 125 
Q 2225 175 2200 262 
Q 2175 350 2175 475 
Q 2000 275 1750 175 
Q 1500 75 1225 75 
Q 825 75 550 275 
Q 275 475 275 850 
Q 275 1225 525 1450 
Q 775 1675 1300 1750 
Q 1650 1800 1912 1875 
Q 2175 1950 2175 2075 
Q 2175 2225 2062 2375 
Q 1950 2525 1575 2525 
Q 1275 2525 1137 2412 
Q 1000 2300 950 2100 
L 400 2100 
Q 450 2500 762 2737 
Q 1075 2975 1575 2975 
Q 2125 2975 2400 2725 
Q 2675 2475 2675 2025 
L 2675 650 
Q 2675 500 2725 375 
Q 2775 250 2875 125 
z
M 2175 1050 
L 2175 1550 
Q 2025 1500 1887 1462 
Q 1750 1425 1425 1375 
Q 1050 1325 937 1200 
Q 825 1075 825 900 
Q 825 750 937 637 
Q 1050 525 1275 525 
Q 1500 525 1762 650 
Q 2025 775 2175 1050 
z
" transform="scale(0.015625)"/>
       <path id="SimHei-5f" d="M 3150 -850 
L 0 -850 
L 0 -550 
L 3150 -550 
L 3150 -850 
z
" transform="scale(0.015625)"/>
      </defs>
      <use xlink:href="#SimHei-76"/>
      <use xlink:href="#SimHei-61" x="50"/>
      <use xlink:href="#SimHei-6c" x="100"/>
      <use xlink:href="#SimHei-5f" x="150"/>
      <use xlink:href="#SimHei-6c" x="200"/>
      <use xlink:href="#SimHei-6f" x="250"/>
      <use xlink:href="#SimHei-73" x="300"/>
      <use xlink:href="#SimHei-73" x="350"/>
     </g>
    </g>
    <g id="line2d_15">
     <path d="M 224.790909 68.79123 
L 248.790909 68.79123 
L 272.790909 68.79123 
" style="fill: none; stroke: #2878b5; stroke-width: 2; stroke-linecap: square"/>
    </g>
    <g id="text_15">
     <!-- train_loss -->
     <g transform="translate(291.990909 77.19123) scale(0.24 -0.24)">
      <defs>
       <path id="SimHei-74" d="M 2750 200 
Q 2625 150 2462 112 
Q 2300 75 2025 75 
Q 1575 75 1300 325 
Q 1025 575 1025 1025 
L 1025 2525 
L 175 2525 
L 175 2925 
L 1025 2925 
L 1025 3900 
L 1525 3900 
L 1525 2925 
L 2550 2925 
L 2550 2525 
L 1525 2525 
L 1525 1000 
Q 1525 800 1625 662 
Q 1725 525 2000 525 
Q 2275 525 2450 575 
Q 2625 625 2750 700 
L 2750 200 
z
" transform="scale(0.015625)"/>
       <path id="SimHei-72" d="M 2500 2425 
Q 2025 2500 1700 2287 
Q 1375 2075 1150 1550 
L 1150 125 
L 650 125 
L 650 2925 
L 1150 2925 
L 1150 2200 
Q 1375 2600 1712 2787 
Q 2050 2975 2500 2975 
L 2500 2425 
z
" transform="scale(0.015625)"/>
       <path id="SimHei-69" d="M 1800 3725 
L 1300 3725 
L 1300 4375 
L 1800 4375 
L 1800 3725 
z
M 1800 125 
L 1300 125 
L 1300 2925 
L 1800 2925 
L 1800 125 
z
" transform="scale(0.015625)"/>
       <path id="SimHei-6e" d="M 2800 125 
L 2300 125 
L 2300 1925 
Q 2300 2225 2150 2400 
Q 2000 2575 1750 2575 
Q 1425 2575 1137 2237 
Q 850 1900 850 1400 
L 850 125 
L 350 125 
L 350 2925 
L 850 2925 
L 850 2400 
Q 1050 2675 1287 2825 
Q 1525 2975 1900 2975 
Q 2350 2975 2575 2725 
Q 2800 2475 2800 2100 
L 2800 125 
z
" transform="scale(0.015625)"/>
      </defs>
      <use xlink:href="#SimHei-74"/>
      <use xlink:href="#SimHei-72" x="50"/>
      <use xlink:href="#SimHei-61" x="100"/>
      <use xlink:href="#SimHei-69" x="150"/>
      <use xlink:href="#SimHei-6e" x="200"/>
      <use xlink:href="#SimHei-5f" x="250"/>
      <use xlink:href="#SimHei-6c" x="300"/>
      <use xlink:href="#SimHei-6f" x="350"/>
      <use xlink:href="#SimHei-73" x="400"/>
      <use xlink:href="#SimHei-73" x="450"/>
     </g>
    </g>
   </g>
  </g>
  <g id="axes_2">
   <g id="patch_8">
    <path d="M 504.609091 394.88373 
L 859.7 394.88373 
L 859.7 6.80373 
L 504.609091 6.80373 
z
" style="fill: #ffffff"/>
   </g>
   <g id="matplotlib.axis_3">
    <g id="xtick_4">
     <g id="line2d_16">
      <g>
       <use xlink:href="#md09e09a70f" x="520.749587" y="394.88373" style="stroke: #000000; stroke-width: 0.8"/>
      </g>
     </g>
     <g id="text_16">
      <!-- 0 -->
      <g transform="translate(514.749587 418.38373) scale(0.24 -0.24)">
       <use xlink:href="#SimHei-30"/>
      </g>
     </g>
    </g>
    <g id="xtick_5">
     <g id="line2d_17">
      <g>
       <use xlink:href="#md09e09a70f" x="683.784899" y="394.88373" style="stroke: #000000; stroke-width: 0.8"/>
      </g>
     </g>
     <g id="text_17">
      <!-- 50 -->
      <g transform="translate(671.784899 418.38373) scale(0.24 -0.24)">
       <use xlink:href="#SimHei-35"/>
       <use xlink:href="#SimHei-30" x="50"/>
      </g>
     </g>
    </g>
    <g id="xtick_6">
     <g id="line2d_18">
      <g>
       <use xlink:href="#md09e09a70f" x="846.82021" y="394.88373" style="stroke: #000000; stroke-width: 0.8"/>
      </g>
     </g>
     <g id="text_18">
      <!-- 100 -->
      <g transform="translate(828.82021 418.38373) scale(0.24 -0.24)">
       <use xlink:href="#SimHei-31"/>
       <use xlink:href="#SimHei-30" x="50"/>
       <use xlink:href="#SimHei-30" x="100"/>
      </g>
     </g>
    </g>
    <g id="text_19">
     <!-- epoch -->
     <g transform="translate(652.154545 441.88373) scale(0.24 -0.24)">
      <use xlink:href="#SimHei-65"/>
      <use xlink:href="#SimHei-70" x="50"/>
      <use xlink:href="#SimHei-6f" x="100"/>
      <use xlink:href="#SimHei-63" x="150"/>
      <use xlink:href="#SimHei-68" x="200"/>
     </g>
    </g>
   </g>
   <g id="matplotlib.axis_4">
    <g id="ytick_9">
     <g id="line2d_19">
      <g>
       <use xlink:href="#ma91e740bf8" x="504.609091" y="368.094625" style="stroke: #000000; stroke-width: 0.8"/>
      </g>
     </g>
     <g id="text_20">
      <!-- 0.3 -->
      <g transform="translate(461.609091 376.344625) scale(0.24 -0.24)">
       <use xlink:href="#SimHei-30"/>
       <use xlink:href="#SimHei-2e" x="50"/>
       <use xlink:href="#SimHei-33" x="100"/>
      </g>
     </g>
    </g>
    <g id="ytick_10">
     <g id="line2d_20">
      <g>
       <use xlink:href="#ma91e740bf8" x="504.609091" y="317.056408" style="stroke: #000000; stroke-width: 0.8"/>
      </g>
     </g>
     <g id="text_21">
      <!-- 0.4 -->
      <g transform="translate(461.609091 325.306408) scale(0.24 -0.24)">
       <use xlink:href="#SimHei-30"/>
       <use xlink:href="#SimHei-2e" x="50"/>
       <use xlink:href="#SimHei-34" x="100"/>
      </g>
     </g>
    </g>
    <g id="ytick_11">
     <g id="line2d_21">
      <g>
       <use xlink:href="#ma91e740bf8" x="504.609091" y="266.018191" style="stroke: #000000; stroke-width: 0.8"/>
      </g>
     </g>
     <g id="text_22">
      <!-- 0.5 -->
      <g transform="translate(461.609091 274.268191) scale(0.24 -0.24)">
       <use xlink:href="#SimHei-30"/>
       <use xlink:href="#SimHei-2e" x="50"/>
       <use xlink:href="#SimHei-35" x="100"/>
      </g>
     </g>
    </g>
    <g id="ytick_12">
     <g id="line2d_22">
      <g>
       <use xlink:href="#ma91e740bf8" x="504.609091" y="214.979974" style="stroke: #000000; stroke-width: 0.8"/>
      </g>
     </g>
     <g id="text_23">
      <!-- 0.6 -->
      <g transform="translate(461.609091 223.229974) scale(0.24 -0.24)">
       <defs>
        <path id="SimHei-36" d="M 250 1612 
Q 275 1975 387 2225 
Q 500 2475 725 2850 
L 1750 4450 
L 2325 4450 
L 1275 2800 
Q 1950 2975 2350 2750 
Q 2750 2525 2887 2237 
Q 3025 1950 3037 1612 
Q 3050 1275 2937 950 
Q 2825 625 2537 362 
Q 2250 100 1737 75 
Q 1225 50 862 262 
Q 500 475 362 862 
Q 225 1250 250 1612 
z
M 1025 787 
Q 1250 550 1625 525 
Q 2000 500 2250 775 
Q 2500 1050 2500 1575 
Q 2500 2100 2187 2300 
Q 1875 2500 1487 2450 
Q 1100 2400 925 2075 
Q 750 1750 775 1387 
Q 800 1025 1025 787 
z
" transform="scale(0.015625)"/>
       </defs>
       <use xlink:href="#SimHei-30"/>
       <use xlink:href="#SimHei-2e" x="50"/>
       <use xlink:href="#SimHei-36" x="100"/>
      </g>
     </g>
    </g>
    <g id="ytick_13">
     <g id="line2d_23">
      <g>
       <use xlink:href="#ma91e740bf8" x="504.609091" y="163.941757" style="stroke: #000000; stroke-width: 0.8"/>
      </g>
     </g>
     <g id="text_24">
      <!-- 0.7 -->
      <g transform="translate(461.609091 172.191757) scale(0.24 -0.24)">
       <defs>
        <path id="SimHei-37" d="M 850 150 
Q 1300 2050 2425 3925 
L 275 3925 
L 275 4375 
L 2950 4375 
L 2950 3950 
Q 1775 2050 1400 150 
L 850 150 
z
" transform="scale(0.015625)"/>
       </defs>
       <use xlink:href="#SimHei-30"/>
       <use xlink:href="#SimHei-2e" x="50"/>
       <use xlink:href="#SimHei-37" x="100"/>
      </g>
     </g>
    </g>
    <g id="ytick_14">
     <g id="line2d_24">
      <g>
       <use xlink:href="#ma91e740bf8" x="504.609091" y="112.903539" style="stroke: #000000; stroke-width: 0.8"/>
      </g>
     </g>
     <g id="text_25">
      <!-- 0.8 -->
      <g transform="translate(461.609091 121.153539) scale(0.24 -0.24)">
       <defs>
        <path id="SimHei-38" d="M 175 1375 
Q 175 1675 325 1962 
Q 475 2250 825 2425 
Q 525 2600 425 2812 
Q 325 3025 312 3300 
Q 300 3575 387 3775 
Q 475 3975 650 4150 
Q 825 4325 1037 4387 
Q 1250 4450 1500 4450 
Q 1750 4450 1950 4400 
Q 2150 4350 2375 4187 
Q 2600 4025 2700 3725 
Q 2800 3425 2687 3025 
Q 2575 2625 2100 2400 
Q 2525 2275 2700 2012 
Q 2875 1750 2875 1375 
Q 2875 1000 2762 775 
Q 2650 550 2512 400 
Q 2375 250 2137 162 
Q 1900 75 1537 75 
Q 1175 75 912 162 
Q 650 250 475 425 
Q 300 600 237 837 
Q 175 1075 175 1375 
z
M 687 1400 
Q 675 1100 787 875 
Q 900 650 1200 587 
Q 1500 525 1825 600 
Q 2150 675 2275 950 
Q 2400 1225 2362 1500 
Q 2325 1775 2050 1962 
Q 1775 2150 1450 2125 
Q 1125 2100 912 1900 
Q 700 1700 687 1400 
z
M 775 3350 
Q 775 3100 950 2875 
Q 1125 2650 1500 2650 
Q 1875 2650 2062 2875 
Q 2250 3100 2237 3412 
Q 2225 3725 2012 3875 
Q 1800 4025 1437 4000 
Q 1075 3975 925 3787 
Q 775 3600 775 3350 
z
" transform="scale(0.015625)"/>
       </defs>
       <use xlink:href="#SimHei-30"/>
       <use xlink:href="#SimHei-2e" x="50"/>
       <use xlink:href="#SimHei-38" x="100"/>
      </g>
     </g>
    </g>
    <g id="ytick_15">
     <g id="line2d_25">
      <g>
       <use xlink:href="#ma91e740bf8" x="504.609091" y="61.865322" style="stroke: #000000; stroke-width: 0.8"/>
      </g>
     </g>
     <g id="text_26">
      <!-- 0.9 -->
      <g transform="translate(461.609091 70.115322) scale(0.24 -0.24)">
       <defs>
        <path id="SimHei-39" d="M 800 75 
Q 1350 1000 1700 1750 
Q 1075 1650 662 1912 
Q 250 2175 162 2625 
Q 75 3075 175 3437 
Q 275 3800 487 4037 
Q 700 4275 1000 4375 
Q 1300 4475 1537 4475 
Q 1775 4475 2025 4375 
Q 2275 4275 2475 4075 
Q 2675 3875 2750 3662 
Q 2825 3450 2825 3112 
Q 2825 2775 2575 2250 
Q 2325 1725 1350 75 
L 800 75 
z
M 662 2875 
Q 700 2550 937 2337 
Q 1175 2125 1450 2150 
Q 1725 2175 1887 2300 
Q 2050 2425 2200 2725 
Q 2300 3100 2250 3362 
Q 2200 3625 1987 3800 
Q 1775 3975 1525 3975 
Q 1375 4000 1137 3900 
Q 900 3800 762 3500 
Q 625 3200 662 2875 
z
" transform="scale(0.015625)"/>
       </defs>
       <use xlink:href="#SimHei-30"/>
       <use xlink:href="#SimHei-2e" x="50"/>
       <use xlink:href="#SimHei-39" x="100"/>
      </g>
     </g>
    </g>
    <g id="ytick_16">
     <g id="line2d_26">
      <g>
       <use xlink:href="#ma91e740bf8" x="504.609091" y="10.827105" style="stroke: #000000; stroke-width: 0.8"/>
      </g>
     </g>
     <g id="text_27">
      <!-- 1.0 -->
      <g transform="translate(461.609091 19.077105) scale(0.24 -0.24)">
       <use xlink:href="#SimHei-31"/>
       <use xlink:href="#SimHei-2e" x="50"/>
       <use xlink:href="#SimHei-30" x="100"/>
      </g>
     </g>
    </g>
    <g id="text_28">
     <!-- mAP -->
     <g transform="translate(454.609091 218.84373) rotate(-90) scale(0.24 -0.24)">
      <defs>
       <path id="SimHei-6d" d="M 3050 125 
L 2550 125 
L 2550 2150 
Q 2550 2300 2500 2400 
Q 2450 2500 2300 2500 
Q 2125 2500 1975 2312 
Q 1825 2125 1825 1825 
L 1825 125 
L 1325 125 
L 1325 2150 
Q 1325 2300 1275 2400 
Q 1225 2500 1075 2500 
Q 900 2500 750 2312 
Q 600 2125 600 1825 
L 600 125 
L 100 125 
L 100 2925 
L 600 2925 
L 600 2550 
Q 725 2750 900 2862 
Q 1075 2975 1275 2975 
Q 1475 2975 1612 2862 
Q 1750 2750 1800 2550 
Q 1925 2750 2087 2862 
Q 2250 2975 2450 2975 
Q 2750 2975 2900 2812 
Q 3050 2650 3050 2350 
L 3050 125 
z
" transform="scale(0.015625)"/>
       <path id="SimHei-41" d="M 3075 125 
L 2475 125 
L 2125 1450 
L 1025 1450 
L 675 125 
L 75 125 
L 1325 4450 
L 1825 4450 
L 3075 125 
z
M 2000 1925 
L 1600 3450 
L 1550 3450 
L 1150 1925 
L 2000 1925 
z
" transform="scale(0.015625)"/>
       <path id="SimHei-50" d="M 2950 3100 
Q 2950 2500 2600 2150 
Q 2250 1800 1625 1800 
L 900 1800 
L 900 125 
L 325 125 
L 325 4400 
L 1625 4400 
Q 2250 4400 2600 4050 
Q 2950 3700 2950 3100 
z
M 2375 3100 
Q 2375 3575 2150 3750 
Q 1925 3925 1475 3925 
L 900 3925 
L 900 2275 
L 1475 2275 
Q 1925 2275 2150 2450 
Q 2375 2625 2375 3100 
z
" transform="scale(0.015625)"/>
      </defs>
      <use xlink:href="#SimHei-6d"/>
      <use xlink:href="#SimHei-41" x="50"/>
      <use xlink:href="#SimHei-50" x="100"/>
     </g>
    </g>
   </g>
   <g id="line2d_27">
    <path d="M 520.749587 350.842144 
L 524.010293 315.182467 
L 527.270999 307.593556 
L 530.531705 293.632751 
L 533.792412 238.011795 
L 537.053118 226.93433 
L 540.313824 200.166485 
L 543.57453 173.159852 
L 546.835237 173.248995 
L 550.095943 155.417704 
L 553.356649 156.273765 
L 556.617355 140.225948 
L 559.878062 141.966949 
L 563.138768 139.490954 
L 566.399474 125.259046 
L 569.66018 130.170875 
L 572.920887 124.740786 
L 576.181593 96.68139 
L 579.442299 104.082195 
L 582.703005 106.361449 
L 585.963711 104.321749 
L 589.224418 99.460531 
L 592.485124 88.374091 
L 595.74583 105.473005 
L 599.006536 89.045826 
L 602.267243 95.246693 
L 605.527949 80.833013 
L 608.788655 70.623352 
L 612.049361 88.866431 
L 615.310068 77.999092 
L 618.570774 77.552259 
L 621.83148 74.563745 
L 625.092186 71.066365 
L 628.352893 76.969429 
L 631.613599 67.43485 
L 634.874305 70.772639 
L 638.135011 69.046622 
L 641.395718 87.442823 
L 644.656424 73.453668 
L 647.91713 79.407891 
L 651.177836 82.75532 
L 654.438542 79.648817 
L 657.699249 76.019085 
L 660.959955 72.229206 
L 664.220661 70.217418 
L 667.481367 74.702295 
L 670.742074 71.540255 
L 674.00278 82.478029 
L 677.263486 76.587214 
L 680.524192 66.427314 
L 683.784899 62.502505 
L 687.045605 70.22544 
L 690.306311 65.254947 
L 693.567017 76.356014 
L 696.827724 65.666764 
L 700.08843 66.1717 
L 703.349136 61.838585 
L 706.609842 63.426588 
L 709.870548 68.889798 
L 713.131255 58.564934 
L 716.391961 65.216841 
L 719.652667 67.664247 
L 722.913373 65.626024 
L 726.17408 64.799241 
L 729.434786 62.384874 
L 732.695492 61.301085 
L 735.956198 72.339947 
L 739.216905 74.46361 
L 742.477611 71.00588 
L 745.738317 65.884379 
L 748.999023 59.829543 
L 752.25973 68.502391 
L 755.520436 62.87049 
L 758.781142 79.34322 
L 762.041848 65.160998 
L 765.302554 61.968602 
L 768.563261 65.360755 
L 771.823967 64.97297 
L 775.084673 62.188235 
L 778.345379 73.565109 
L 781.606086 67.155131 
L 784.866792 65.370088 
L 788.127498 63.41444 
L 791.388204 56.370263 
L 794.648911 72.991129 
L 797.909617 69.499622 
L 801.170323 74.972642 
L 804.431029 61.430168 
L 807.691736 62.069499 
L 810.952442 58.153346 
L 814.213148 64.517146 
L 817.473854 71.146032 
L 820.73456 63.39717 
L 823.995267 66.438578 
L 827.255973 59.981044 
L 830.516679 59.671288 
L 833.777385 62.397854 
L 837.038092 68.988999 
L 840.298798 65.70071 
L 843.559504 63.033109 
" clip-path="url(#pd03da806ea)" style="fill: none; stroke: #c82423; stroke-width: 2; stroke-linecap: square"/>
   </g>
   <g id="line2d_28">
    <path d="M 520.749587 377.24373 
L 524.010293 347.804193 
L 527.270999 338.51425 
L 530.531705 331.845228 
L 533.792412 303.129204 
L 537.053118 251.791551 
L 540.313824 237.334325 
L 543.57453 221.452508 
L 546.835237 201.535813 
L 550.095943 199.590363 
L 553.356649 188.148828 
L 556.617355 166.550017 
L 559.878062 164.083681 
L 563.138768 157.672193 
L 566.399474 149.487291 
L 569.66018 136.523397 
L 572.920887 136.494881 
L 576.181593 124.538999 
L 579.442299 117.71782 
L 582.703005 110.467348 
L 585.963711 108.89047 
L 589.224418 100.394667 
L 592.485124 100.054541 
L 595.74583 92.478888 
L 599.006536 91.284393 
L 602.267243 88.559348 
L 605.527949 85.767023 
L 608.788655 81.237479 
L 612.049361 78.02424 
L 615.310068 76.239666 
L 618.570774 74.169734 
L 621.83148 72.457474 
L 625.092186 71.494934 
L 628.352893 63.522782 
L 631.613599 70.124475 
L 634.874305 63.568021 
L 638.135011 58.365707 
L 641.395718 59.819057 
L 644.656424 58.121454 
L 647.91713 55.587969 
L 651.177836 56.332489 
L 654.438542 56.565258 
L 657.699249 55.598335 
L 660.959955 54.585729 
L 664.220661 55.186566 
L 667.481367 50.620662 
L 670.742074 47.843862 
L 674.00278 56.577203 
L 677.263486 51.451512 
L 680.524192 49.077769 
L 683.784899 45.958456 
L 687.045605 43.246161 
L 690.306311 46.075923 
L 693.567017 48.048982 
L 696.827724 44.521317 
L 700.08843 44.825742 
L 703.349136 44.875367 
L 706.609842 42.050912 
L 709.870548 38.972719 
L 713.131255 42.190405 
L 716.391961 39.738514 
L 719.652667 36.663597 
L 722.913373 43.015467 
L 726.17408 38.84055 
L 729.434786 40.252811 
L 732.695492 39.832706 
L 735.956198 36.787844 
L 739.216905 37.343949 
L 742.477611 42.005597 
L 745.738317 36.577483 
L 748.999023 34.753034 
L 752.25973 34.238101 
L 755.520436 34.592953 
L 758.781142 38.022064 
L 762.041848 37.998081 
L 765.302554 32.275513 
L 768.563261 33.084669 
L 771.823967 34.891502 
L 775.084673 31.971688 
L 778.345379 32.804127 
L 781.606086 37.322141 
L 784.866792 31.678769 
L 788.127498 41.75442 
L 791.388204 30.950772 
L 794.648911 28.683567 
L 797.909617 28.379011 
L 801.170323 48.476174 
L 804.431029 38.199367 
L 807.691736 29.988285 
L 810.952442 31.284315 
L 814.213148 35.615479 
L 817.473854 33.385803 
L 820.73456 30.429979 
L 823.995267 24.72524 
L 827.255973 27.940397 
L 830.516679 36.482738 
L 833.777385 25.078652 
L 837.038092 24.44373 
L 840.298798 30.280764 
L 843.559504 27.800475 
" clip-path="url(#pd03da806ea)" style="fill: none; stroke: #2878b5; stroke-width: 2; stroke-linecap: square"/>
   </g>
   <g id="patch_9">
    <path d="M 504.609091 394.88373 
L 504.609091 6.80373 
" style="fill: none; stroke: #000000; stroke-width: 0.8; stroke-linejoin: miter; stroke-linecap: square"/>
   </g>
   <g id="patch_10">
    <path d="M 859.7 394.88373 
L 859.7 6.80373 
" style="fill: none; stroke: #000000; stroke-width: 0.8; stroke-linejoin: miter; stroke-linecap: square"/>
   </g>
   <g id="patch_11">
    <path d="M 504.609091 394.88373 
L 859.7 394.88373 
" style="fill: none; stroke: #000000; stroke-width: 0.8; stroke-linejoin: miter; stroke-linecap: square"/>
   </g>
   <g id="patch_12">
    <path d="M 504.609091 6.80373 
L 859.7 6.80373 
" style="fill: none; stroke: #000000; stroke-width: 0.8; stroke-linejoin: miter; stroke-linecap: square"/>
   </g>
   <g id="legend_2">
    <g id="patch_13">
     <path d="M 658.1 382.88373 
L 842.9 382.88373 
Q 847.7 382.88373 847.7 378.08373 
L 847.7 316.50873 
Q 847.7 311.70873 842.9 311.70873 
L 658.1 311.70873 
Q 653.3 311.70873 653.3 316.50873 
L 653.3 378.08373 
Q 653.3 382.88373 658.1 382.88373 
z
" style="fill: #ffffff; opacity: 0.8; stroke: #cccccc; stroke-linejoin: miter"/>
    </g>
    <g id="line2d_29">
     <path d="M 662.9 329.70873 
L 686.9 329.70873 
L 710.9 329.70873 
" style="fill: none; stroke: #c82423; stroke-width: 2; stroke-linecap: square"/>
    </g>
    <g id="text_29">
     <!-- val_mAP -->
     <g transform="translate(730.1 338.10873) scale(0.24 -0.24)">
      <use xlink:href="#SimHei-76"/>
      <use xlink:href="#SimHei-61" x="50"/>
      <use xlink:href="#SimHei-6c" x="100"/>
      <use xlink:href="#SimHei-5f" x="150"/>
      <use xlink:href="#SimHei-6d" x="200"/>
      <use xlink:href="#SimHei-41" x="250"/>
      <use xlink:href="#SimHei-50" x="300"/>
     </g>
    </g>
    <g id="line2d_30">
     <path d="M 662.9 361.69623 
L 686.9 361.69623 
L 710.9 361.69623 
" style="fill: none; stroke: #2878b5; stroke-width: 2; stroke-linecap: square"/>
    </g>
    <g id="text_30">
     <!-- train_mAP -->
     <g transform="translate(730.1 370.09623) scale(0.24 -0.24)">
      <use xlink:href="#SimHei-74"/>
      <use xlink:href="#SimHei-72" x="50"/>
      <use xlink:href="#SimHei-61" x="100"/>
      <use xlink:href="#SimHei-69" x="150"/>
      <use xlink:href="#SimHei-6e" x="200"/>
      <use xlink:href="#SimHei-5f" x="250"/>
      <use xlink:href="#SimHei-6d" x="300"/>
      <use xlink:href="#SimHei-41" x="350"/>
      <use xlink:href="#SimHei-50" x="400"/>
     </g>
    </g>
   </g>
  </g>
 </g>
 <defs>
  <clipPath id="p928fcd4107">
   <rect x="78.5" y="6.80373" width="355.090909" height="388.08"/>
  </clipPath>
  <clipPath id="pd03da806ea">
   <rect x="504.609091" y="6.80373" width="355.090909" height="388.08"/>
  </clipPath>
 </defs>
</svg>
