<svg width="3449" height="364" xmlns="http://www.w3.org/2000/svg" xmlns:xlink="http://www.w3.org/1999/xlink" overflow="hidden"><defs><clipPath id="clip0"><rect x="176" y="1071" width="3449" height="364"/></clipPath></defs><g clip-path="url(#clip0)" transform="translate(-176 -1071)"><rect x="194.5" y="1154.5" width="379" height="167" stroke="#000000" stroke-width="6.875" stroke-miterlimit="8" fill="#F5E4A9"/><text font-family="Arial,Arial_MSFontService,sans-serif" font-weight="400" font-size="110" transform="matrix(1 0 0 1 242.581 1278)">Begin</text><rect x="679.5" y="1088.5" width="535" height="299" stroke="#000000" stroke-width="6.875" stroke-miterlimit="8" fill="#D7CEE6"/><text font-family="Arial,Arial_MSFontService,sans-serif" font-weight="400" font-size="110" transform="matrix(1 0 0 1 716.614 1211)">Received <tspan font-size="110" x="24.6354" y="132">Request</tspan></text><rect x="1319.5" y="1088.5" width="535" height="299" stroke="#000000" stroke-width="6.875" stroke-miterlimit="8" fill="#D7CEE6"/><text font-family="Arial,Arial_MSFontService,sans-serif" font-weight="400" font-size="110" transform="matrix(1 0 0 1 1470.82 1211)">Start <tspan font-size="110" x="-89.077" y="132">Request</tspan></text><rect x="1960.5" y="1088.5" width="535" height="299" stroke="#000000" stroke-width="6.875" stroke-miterlimit="8" fill="#D7CEE6"/><text font-family="Arial,Arial_MSFontService,sans-serif" font-weight="400" font-size="110" transform="matrix(1 0 0 1 2119.37 1211)">Wait <tspan font-size="110" x="-97.1438" y="132">Request</tspan></text><rect x="2600.5" y="1088.5" width="535" height="299" stroke="#000000" stroke-width="6.875" stroke-miterlimit="8" fill="#D7CEE6"/><text font-family="Arial,Arial_MSFontService,sans-serif" font-weight="400" font-size="110" transform="matrix(1 0 0 1 2726.89 1211)">Reply <tspan font-size="110" x="0" y="132">Client</tspan></text><rect x="3241.5" y="1154.5" width="380" height="167" stroke="#000000" stroke-width="6.875" stroke-miterlimit="8" fill="#F5E4A9"/><text font-family="Arial,Arial_MSFontService,sans-serif" font-weight="400" font-size="110" transform="matrix(1 0 0 1 3332.69 1278)">End</text><path d="M573 1232.84 647.402 1232.84 647.402 1243.16 573 1243.16ZM647.402 1238 626.777 1212.22 678.34 1238 626.777 1263.78Z"/><path d="M1.76652e-05-5.15625 74.4023-5.156 74.4023 5.1565-1.76652e-05 5.15625ZM74.4023 0.000254901 53.7774-25.7811 105.34 0.000360892 53.7772 25.7814Z" transform="matrix(1 0 0 -1 1214 1237)"/><path d="M1.76652e-05-5.15625 74.4023-5.156 74.4023 5.1565-1.76652e-05 5.15625ZM74.4023 0.000254901 53.7774-25.7811 105.34 0.000360892 53.7772 25.7814Z" transform="matrix(1 0 0 -1 1854 1237)"/><path d="M1.76652e-05-5.15625 74.4023-5.156 74.4023 5.1565-1.76652e-05 5.15625ZM74.4023 0.000254901 53.7774-25.7811 105.34 0.000360892 53.7772 25.7814Z" transform="matrix(1 0 0 -1 2495 1237)"/><path d="M1.76652e-05-5.15625 74.4023-5.156 74.4023 5.1565-1.76652e-05 5.15625ZM74.4023 0.000254901 53.7774-25.7811 105.34 0.000360892 53.7772 25.7814Z" transform="matrix(1 0 0 -1 3135 1237)"/></g></svg>