<svg width="3448" height="675" xmlns="http://www.w3.org/2000/svg" xmlns:xlink="http://www.w3.org/1999/xlink" overflow="hidden"><defs><clipPath id="clip0"><rect x="464" y="735" width="3448" height="675"/></clipPath></defs><g clip-path="url(#clip0)" transform="translate(-464 -735)"><rect x="472.5" y="1195.5" width="295" height="134" stroke="#000000" stroke-width="6.875" stroke-miterlimit="8" fill="#F5E4A9"/><text font-family="Arial,Arial_MSFontService,sans-serif" font-weight="400" font-size="83" transform="matrix(1 0 0 1 514.298 1292)">Begin</text><rect x="873.5" y="1145.5" width="593" height="234" stroke="#000000" stroke-width="6.875" stroke-miterlimit="8" fill="#D7CEE6"/><text font-family="Arial,Arial_MSFontService,sans-serif" font-weight="400" font-size="83" transform="matrix(1 0 0 1 1070.86 1242)">Read <tspan font-size="83" x="-158.125" y="99">ApplyChannel</tspan></text><rect x="3677.5" y="1195.5" width="224" height="134" stroke="#000000" stroke-width="6.875" stroke-miterlimit="8" fill="#F5E4A9"/><text font-family="Arial,Arial_MSFontService,sans-serif" font-weight="400" font-size="83" transform="matrix(1 0 0 1 3715.74 1292)">End</text><rect x="1571.5" y="1145.5" width="528" height="234" stroke="#000000" stroke-width="6.875" stroke-miterlimit="8" fill="#DBE1D3"/><text font-family="Arial,Arial_MSFontService,sans-serif" font-weight="400" font-size="83" transform="matrix(1 0 0 1 1608.27 1242)">Check Need <tspan font-size="83" x="98.5416" y="99">Notify?</tspan></text><rect x="1571.5" y="772.5" width="528" height="233" stroke="#000000" stroke-width="6.875" stroke-miterlimit="8" fill="#D7CEE6"/><text font-family="Arial,Arial_MSFontService,sans-serif" font-weight="400" font-size="83" transform="matrix(1 0 0 1 1637.31 868)">Notify Wait <tspan font-size="83" x="44.298" y="99">Request</tspan></text><rect x="2329.5" y="1145.5" width="630" height="234" stroke="#000000" stroke-width="6.875" stroke-miterlimit="8" fill="#DBE1D3"/><text font-family="Arial,Arial_MSFontService,sans-serif" font-weight="400" font-size="83" transform="matrix(1 0 0 1 2362.33 1242)">Check Request <tspan font-size="83" x="110" y="99">Process?</tspan></text><rect x="3185.5" y="1145.5" width="378" height="234" stroke="#000000" stroke-width="6.875" stroke-miterlimit="8" fill="#D7CEE6"/><text font-family="Arial,Arial_MSFontService,sans-serif" font-weight="400" font-size="83" transform="matrix(1 0 0 1 3225.2 1242)">Process <tspan font-size="83" x="-4.58325" y="99">Request</tspan></text><rect x="2454.5" y="822.5" width="380" height="133" stroke="#000000" stroke-width="6.875" stroke-miterlimit="8" fill="#D7CEE6"/><text font-family="Arial,Arial_MSFontService,sans-serif" font-weight="400" font-size="83" transform="matrix(1 0 0 1 2527.33 918)">Ignore</text><path d="M767.5 1259.06 845.34 1259.06 845.34 1265.94 767.5 1265.94ZM845.34 1262.5 827.007 1239.58 872.84 1262.5 827.007 1285.42Z"/><path d="M1466.5 1259.06 1544.34 1259.06 1544.34 1265.94 1466.5 1265.94ZM1544.34 1262.5 1526.01 1239.58 1571.84 1262.5 1526.01 1285.42Z"/><path d="M5.38603e-06-3.4375 202.831-3.43718 202.831 3.43782-5.38603e-06 3.4375ZM202.831 0.000317804 184.497-22.9164 230.331 0.000360892 184.497 22.917Z" transform="matrix(1 0 0 -1 2099.5 1262.5)"/><text font-family="Arial,Arial_MSFontService,sans-serif" font-weight="400" font-size="73" transform="matrix(1 0 0 1 2167.31 1341)">No</text><path d="M5.48773e-06-3.4375 198.562-3.43718 198.562 3.43782-5.48773e-06 3.4375ZM198.562 0.000316991 180.229-22.9164 226.062 0.000360892 180.229 22.917Z" transform="matrix(1 0 0 -1 2959.5 1262.5)"/><text font-family="Arial,Arial_MSFontService,sans-serif" font-weight="400" font-size="73" transform="matrix(1 0 0 1 3025.58 1234)">No<tspan font-size="73" x="-1137.31" y="-133">Yes</tspan></text><path d="M3.4375-8.83061e-06 3.43779 112.985-3.43721 112.985-3.4375 8.83061e-06ZM0.000290247 112.985 22.9169 94.6515 0.000360892 140.485-22.9164 94.6517Z" transform="matrix(1 0 0 -1 1835.5 1145.98)"/><path d="M3.4375-6.51325e-06 3.43781 162.968-3.43719 162.968-3.4375 6.51325e-06ZM0.000308786 162.968 22.9169 144.635 0.000360892 190.468-22.9164 144.635Z" transform="matrix(1 0 0 -1 2644.5 1145.97)"/><text font-family="Arial,Arial_MSFontService,sans-serif" font-weight="400" font-size="73" transform="matrix(1 0 0 1 2709.16 1077)">Yes</text><path d="M3563.5 1259.06 3650.1 1259.06 3650.1 1265.94 3563.5 1265.94ZM3650.1 1262.5 3631.77 1239.58 3677.6 1262.5 3631.77 1285.42Z"/><path d="M2099.5 885.063 2218.1 885.063 2218.1 1262.24 2214.67 1258.8 2302.33 1258.8 2302.33 1265.68 2211.23 1265.68 2211.23 888.5 2214.67 891.938 2099.5 891.938ZM2302.33 1262.24 2284 1239.32 2329.83 1262.24 2284 1285.16Z"/><path d="M2640.87 822.5 2640.87 740 2644.3 743.438 1169.5 743.438 1172.94 740 1172.94 1118.76 1166.06 1118.76 1166.06 736.563 2647.74 736.563 2647.74 822.5ZM1169.5 1118.76 1192.42 1100.42 1169.5 1146.26 1146.58 1100.42Z"/><path d="M0-3.4375 460.192-3.4375 460.192 2623.11 77.4837 2623.11 77.4837 2616.24 456.754 2616.24 453.317 2619.67 453.317 0 456.754 3.4375 0 3.4375ZM77.4836 2619.67 95.8169 2642.59 49.9836 2619.67 95.8169 2596.76Z" transform="matrix(-1.83697e-16 -1 -1 1.83697e-16 3789.17 1195.48)"/></g></svg>